<?xml version="1.0" encoding="utf-8"?>
<!-- Generator: Adobe Illustrator 26.3.1, SVG Export Plug-In . SVG Version: 6.00 Build 0)  -->
<svg version="1.1" id="Layer_1" xmlns="http://www.w3.org/2000/svg" xmlns:xlink="http://www.w3.org/1999/xlink" x="0px" y="0px"
	 viewBox="0 0 17 17" style="enable-background:new 0 0 17 17;" xml:space="preserve">
<style type="text/css">
	.st0{fill:#FEE500;}
</style>
<g>
	
		<image style="overflow:visible;opacity:0.5;" width="47" height="47" xlink:href="F26776C1.png"  transform="matrix(1 0 0 1 -15 -15)">
	</image>
	<g>
		<path class="st0" d="M8.5,0C3.8,0,0,3.8,0,8.5C0,13.2,3.8,17,8.5,17c4.7,0,8.5-3.8,8.5-8.5C17,3.8,13.2,0,8.5,0z M7.1,9.1
			l-1.6,3.7H3.8l1.8-4.1h1.7L7.1,9.1z M6.2,7.1l1.8-4.3h0.9l1.8,4.3H6.2z M11.5,12.8l-0.9-2.2l-0.8-2h1.7l1.8,4.1H11.5z"/>
	</g>
</g>
</svg>
