<svg width="304" height="52" viewBox="0 0 304 52" fill="none" xmlns="http://www.w3.org/2000/svg">
<path d="M303.468 49.5H8.6319L0.5 42.3021V0.5H295.086L303.468 7.91917V49.5Z" stroke="white"/>
<path d="M61.7052 8.49707H46.0029V9.2395H61.7052V8.49707Z" fill="white"/>
<path d="M42.0711 8.49707H6.74316V9.2395H42.0711V8.49707Z" fill="white"/>
<path d="M61.6968 7.00488H6.74316V7.74731H61.6968V7.00488Z" fill="white"/>
<path d="M61.7053 5.52002H30.3008V6.26245H61.7053V5.52002Z" fill="white"/>
<path d="M26.3688 5.52002H22.4453V6.26245H26.3688V5.52002Z" fill="white"/>
<path d="M18.5216 5.52002H14.5981V6.26245H18.5216V5.52002Z" fill="white"/>
<path d="M10.6661 5.52002H6.74268V6.26245H10.6661V5.52002Z" fill="white"/>
<rect x="251" y="50" width="44" height="2" fill="white"/>
<rect x="235" y="50" width="9" height="2" fill="white"/>
</svg>
