<svg width="48" height="30" viewBox="0 0 48 30" fill="none" xmlns="http://www.w3.org/2000/svg">
<g clip-path="url(#clip0_311_14536)">
<path d="M45.7739 5.11243C45.7013 5.22557 45.6272 5.33431 45.5524 5.4372C45.4355 5.59721 45.3164 5.7422 45.198 5.86559C44.4918 6.60228 42.1121 6.47486 37.825 7.86623C37.6765 7.91456 37.5255 7.96472 37.3719 8.01671C37.3675 7.99145 37.3632 7.96582 37.3581 7.94055C37.3338 7.81753 37.3004 7.69597 37.2568 7.57734C37.2234 7.48616 37.1842 7.39682 37.1384 7.31005C37.1119 7.26025 37.0836 7.21082 37.0527 7.16286C38.7015 6.19439 40.0254 5.62943 40.9999 5.21312C42.0558 4.76239 42.693 4.49034 42.9708 4.03998C43.0866 3.85178 43.1981 3.62037 43.2987 3.36663C44.9322 2.70317 46.1003 2.33043 46.5179 2.25061C47.15 2.12941 46.5647 3.87631 45.7739 5.11243V5.11243Z" fill="white"/>
<path d="M40.4943 18.5021C40.3516 18.4911 40.2139 18.4754 40.0854 18.4534C39.9932 18.438 39.9057 18.4197 39.8244 18.3985C39.1519 18.2227 38.4976 16.9679 36.7707 15.0958C36.8067 15.0607 36.8419 15.0248 36.8757 14.9882C36.9436 14.9164 37.0075 14.8428 37.067 14.7677C37.0953 14.7322 37.1226 14.6967 37.1491 14.6605C37.1505 14.6586 37.1516 14.6568 37.1531 14.655C37.2544 14.5092 37.23 14.3804 37.2064 14.3166C37.1411 14.1391 36.9715 14.0955 36.8807 14.0724C36.8688 14.0691 36.8528 14.0651 36.8419 14.0618C36.823 14.0486 36.8027 14.038 36.7813 14.0296C36.7439 14.0153 36.7061 14.0014 36.668 13.9878C36.8136 13.8626 36.9523 13.7246 37.0812 13.5781C38.3375 14.469 39.2223 15.2668 39.8959 15.8746C40.7332 16.63 41.2386 17.0858 41.7836 17.1232C41.8548 17.1279 41.9307 17.1305 42.0095 17.1305C42.0686 17.1305 42.1318 17.1287 42.1983 17.1257C42.5904 17.4875 42.8533 17.7573 42.9691 17.9023C43.2977 18.3135 41.7077 18.5944 40.4943 18.5021V18.5021Z" fill="white"/>
<path d="M37.7707 19.5396C37.7532 19.5326 37.7365 19.5256 37.7198 19.5187C37.5742 19.4564 37.4428 19.3382 37.3095 19.1675H37.3092C36.9443 18.6989 36.5677 17.8351 35.8583 16.6495C35.8953 16.6188 35.9316 16.5877 35.9668 16.5562C35.9686 16.5547 35.9701 16.5533 35.9719 16.5518C35.9864 16.5382 35.9991 16.5247 36.0104 16.5111C36.1044 16.3995 36.1059 16.2867 36.0972 16.2255C36.0692 16.0344 35.9055 15.9531 35.8172 15.9096C35.8034 15.9026 35.7842 15.8931 35.7722 15.8865C35.7588 15.8718 35.7439 15.8583 35.7275 15.8466C35.7914 15.814 35.8543 15.7796 35.9167 15.7433C36.1436 15.6126 36.3593 15.4603 36.5558 15.293C37.2347 16.0286 37.7471 16.669 38.161 17.1867C38.8418 18.038 39.2528 18.5517 39.7514 18.682C39.9409 18.7318 40.1453 18.7633 40.3428 18.7827C40.6097 19.132 40.7847 19.3902 40.8599 19.5297C41.1307 20.0328 38.8505 19.9716 37.7707 19.5396V19.5396Z" fill="white"/>
<path d="M44.5715 14.9522C44.4383 14.9877 44.3065 15.0184 44.1787 15.0433C43.9942 15.0792 43.8174 15.1034 43.6558 15.1118C42.7219 15.1612 41.1926 13.5571 37.4019 11.7809C37.4295 11.7396 37.4567 11.6971 37.4836 11.6528C37.5329 11.5715 37.5809 11.4855 37.627 11.3947C37.7334 11.1856 37.8289 10.9538 37.9044 10.71C38.0409 10.7565 38.1774 10.8066 38.3139 10.8604C38.3208 10.8634 38.3277 10.8656 38.3346 10.8678C38.4501 10.9037 38.5692 10.9421 38.6887 10.982C39.201 11.1541 39.7264 11.358 40.2344 11.5554C40.791 11.7714 41.3665 11.9951 41.9347 12.1808C41.9801 12.198 42.0251 12.2156 42.0698 12.2331C42.1312 12.2569 42.1918 12.2804 42.2528 12.3038C42.7789 12.5052 43.3247 12.6857 43.9212 12.8556C44.0272 12.8885 44.1518 12.9259 44.2727 12.9544C44.4132 12.9878 44.5378 13.0075 44.6532 13.0141C44.6583 13.0141 44.6637 13.0149 44.6692 13.0149H44.6859C44.7981 13.0149 44.9121 13.0101 45.0243 13.001C45.2167 12.9991 45.4125 12.9797 45.6071 12.9442C46.1858 13.2027 46.5842 13.4063 46.7682 13.5231C47.2573 13.8332 45.8463 14.612 44.5715 14.9522Z" fill="white"/>
<path d="M42.3034 16.8266H42.3031C42.152 16.8372 42.0083 16.8402 41.8761 16.8347C41.8514 16.8336 41.8271 16.8321 41.8031 16.8306C40.972 16.7739 39.9825 15.2815 37.2666 13.3511C37.272 13.3442 37.2775 13.3372 37.2826 13.3299C37.3418 13.2515 37.398 13.1714 37.4503 13.0901C37.5731 12.9008 37.6765 12.7052 37.7553 12.5116C37.7561 12.5094 37.7568 12.5075 37.7579 12.5053C37.7909 12.4186 37.7913 12.3442 37.7789 12.2856C39.3838 13.0718 40.5486 13.8103 41.4288 14.3683C42.449 15.0153 43.0649 15.4056 43.6131 15.4056C43.6324 15.4056 43.652 15.4052 43.6712 15.4041C43.921 15.3906 44.2101 15.3437 44.518 15.2687C44.7877 15.4525 44.9776 15.596 45.0793 15.6879C45.5074 16.0742 43.6291 16.7347 42.3034 16.8266V16.8266Z" fill="white"/>
<path d="M32.8 21.2291C32.7735 21.6483 32.7321 21.935 32.6936 22.0628C32.5977 22.381 31.5389 21.4561 30.869 20.6198C30.796 20.529 30.7278 20.4389 30.6657 20.3518C30.5804 20.2321 30.507 20.1174 30.4504 20.0124C30.4453 20.0028 30.4402 19.9933 30.4358 19.9834C30.4311 19.9736 30.4268 19.964 30.4228 19.9541C30.4184 19.9435 30.4144 19.9333 30.4112 19.9227C30.4086 19.9164 30.4064 19.9098 30.4046 19.9036C30.4028 19.8981 30.4014 19.893 30.3999 19.8875C30.4304 19.8868 30.4605 19.8853 30.4903 19.8835C30.4925 19.8831 30.4947 19.8831 30.4968 19.8827C30.6646 19.8681 30.7445 19.7696 30.7775 19.7125C30.8225 19.6341 30.8276 19.5565 30.8171 19.4888C31.0408 19.5254 31.2699 19.5437 31.4997 19.5437C31.7114 19.5437 31.9162 19.5283 32.1126 19.4972C32.1133 19.5041 32.1141 19.5111 32.1152 19.5181C32.1195 19.5583 32.1246 19.599 32.1297 19.6396C32.1355 19.6876 32.1417 19.7356 32.1482 19.7843C32.158 19.8732 32.1704 19.9772 32.1889 20.0768C32.2114 20.1962 32.2404 20.2994 32.2786 20.3928C32.2807 20.3983 32.2829 20.4034 32.2855 20.4089C32.3283 20.4979 32.3759 20.5865 32.4274 20.6729C32.5207 20.8596 32.6471 21.0486 32.8 21.2291V21.2291Z" fill="white"/>
<path d="M35.291 22.0417C34.4715 22.1673 33.6367 21.7239 33.0975 21.1308C32.9937 21.0161 32.9004 20.8961 32.8208 20.7734C32.7686 20.6936 32.7221 20.6127 32.6821 20.5314C32.6328 20.4494 32.5877 20.3662 32.5474 20.2817C32.5162 20.2055 32.4926 20.1191 32.4745 20.0228C32.4588 19.9393 32.4476 19.8481 32.4371 19.7489C32.4233 19.6457 32.4105 19.5428 32.3989 19.4399C32.4494 19.4278 32.4991 19.4143 32.5482 19.3996L32.5547 19.3974C32.7214 19.3436 32.7794 19.2268 32.7994 19.162C32.7958 19.084 32.7914 19.0049 32.7863 18.9243C32.7591 18.8573 32.7177 18.8035 32.689 18.7658C32.6807 18.7552 32.6694 18.7405 32.6625 18.7307C32.6556 18.7087 32.6462 18.6878 32.6346 18.668C32.6342 18.6673 32.6335 18.6662 32.6331 18.6655C32.6785 18.664 32.7235 18.6618 32.7689 18.6589C32.8655 18.6527 32.9621 18.6435 33.0583 18.6311C33.4203 18.5853 33.7754 18.4963 34.0968 18.3711C34.1854 18.7881 34.2994 19.2092 34.4457 19.6581C34.4704 19.7423 34.5009 19.8404 34.5368 19.9338C34.5797 20.0451 34.6269 20.14 34.6806 20.2238C34.6839 20.2286 34.6871 20.2337 34.6908 20.2385C34.7481 20.3168 34.8106 20.3941 34.8767 20.468C34.9838 20.6086 35.1087 20.7412 35.247 20.8624C35.2623 20.9631 35.2764 21.0641 35.2895 21.1652C35.3011 21.2523 35.3117 21.3398 35.3218 21.4277C35.3015 21.6547 35.4783 22.0051 35.291 22.0417V22.0417Z" fill="white"/>
<path d="M37.9313 21.2778C37.1057 21.5561 36.154 21.2313 35.5171 20.7099C35.3839 20.6008 35.2648 20.4833 35.1635 20.3606C35.1413 20.3342 35.1203 20.3079 35.1003 20.2811C35.0375 20.2108 34.9787 20.1387 34.9242 20.0644C34.8803 19.9963 34.8421 19.9176 34.8076 19.8279C34.7775 19.7502 34.7503 19.6642 34.7227 19.5708C34.5829 19.1417 34.4649 18.7122 34.3741 18.2787C34.3723 18.2699 34.3705 18.2611 34.3687 18.252C34.397 18.2384 34.4246 18.2245 34.4518 18.2102C34.454 18.2091 34.4558 18.208 34.458 18.2073C34.5295 18.1677 34.5756 18.1194 34.605 18.0725C34.641 18.0162 34.653 17.9612 34.6569 17.9239C34.6762 17.7331 34.5393 17.616 34.466 17.553C34.4602 17.5479 34.4533 17.542 34.4467 17.5365C34.4362 17.5014 34.4253 17.4658 34.4144 17.4303C34.5066 17.4003 34.5981 17.3673 34.6878 17.3315C35.0259 17.1974 35.3439 17.0265 35.625 16.8276C35.9281 17.3355 36.1696 17.7833 36.3762 18.1666C36.8326 19.0135 37.1165 19.5401 37.5421 19.7583C37.6263 19.9831 37.7044 20.2068 37.7774 20.4335C37.8039 20.5155 37.8297 20.5979 37.8547 20.681C37.8743 20.9029 38.1093 21.2093 37.9313 21.2778V21.2778Z" fill="white"/>
<path d="M46.7565 7.53079C46.6251 7.62782 46.4878 7.71423 46.3469 7.78819C46.2493 7.83945 46.1502 7.88522 46.0503 7.92404C45.9515 7.97163 45.8513 8.01484 45.7493 8.05329C45.6571 8.08258 45.5525 8.10418 45.4352 8.11956C45.3339 8.13311 45.2228 8.14226 45.1019 8.14995C44.5464 8.19901 43.9941 8.22647 43.4422 8.22611C43.3318 8.22611 43.2214 8.22501 43.1092 8.22464C42.0221 8.2792 40.8846 8.21769 39.792 8.26272C39.6704 8.26785 39.5495 8.27407 39.4296 8.28213C38.7358 8.27407 38.0695 8.3506 37.4087 8.45825C37.4083 8.41065 37.4072 8.36268 37.4043 8.31472C37.5691 8.25869 37.7311 8.20487 37.8905 8.15288C38.5313 7.94454 39.129 7.77025 39.6853 7.62196C40.9579 7.28291 42.0116 7.0808 42.8576 6.91823C44.184 6.66339 44.985 6.5096 45.4069 6.06949C45.5826 5.88605 45.7645 5.65318 45.9425 5.38736C46.2122 5.35441 46.4802 5.32658 46.7503 5.30351C46.8564 5.29436 46.9628 5.28594 47.0699 5.27861C47.3476 5.30534 47.7706 5.13618 47.8204 5.32694C47.9979 6.16542 47.4725 7.00281 46.7565 7.53079V7.53079Z" fill="white"/>
<path d="M47.9997 8.0721C48.0171 8.95086 47.3084 9.68792 46.4794 10.0614C46.32 10.1332 46.1563 10.1917 45.9925 10.2349C45.9195 10.2543 45.8462 10.2708 45.7736 10.284C45.6679 10.3122 45.5612 10.3353 45.4541 10.3536C45.3575 10.3646 45.2511 10.3657 45.1331 10.3587C45.031 10.3525 44.9203 10.34 44.8001 10.3246C44.2453 10.2668 43.6978 10.1881 43.156 10.0826C43.0478 10.0614 42.9396 10.0391 42.8292 10.0174C41.7519 9.8633 40.6463 9.58539 39.565 9.42099C39.4448 9.40269 39.325 9.38584 39.2056 9.37083C38.573 9.24048 37.9503 9.18593 37.3276 9.16249C37.3327 9.14235 37.3371 9.12185 37.3414 9.10135C37.3618 9.00651 37.3781 8.90912 37.389 8.80989C37.3912 8.79232 37.393 8.77474 37.3948 8.75717C38.0346 8.65062 38.6693 8.57409 39.3319 8.57409C39.3631 8.57409 39.3947 8.57446 39.4263 8.57482H39.4296C39.4358 8.57482 39.4419 8.57482 39.4485 8.57409C39.5618 8.56677 39.6816 8.56018 39.8036 8.55505C40.0984 8.54297 40.4161 8.53748 40.8344 8.53748C41.0163 8.53748 41.1986 8.53858 41.3809 8.53967C41.5642 8.54041 41.7476 8.54151 41.9306 8.54151C42.2566 8.54151 42.6858 8.53858 43.1161 8.51734C43.1622 8.51771 43.208 8.51771 43.2537 8.51807C43.3165 8.51807 43.3793 8.5188 43.4421 8.5188H43.4519C43.9886 8.5188 44.5358 8.49391 45.124 8.44191C45.274 8.43203 45.3782 8.42251 45.4733 8.41006C45.6113 8.39175 45.73 8.36612 45.8364 8.33243C45.8415 8.33097 45.8462 8.32914 45.8513 8.32731C45.9573 8.2874 46.063 8.242 46.1657 8.19293C46.3977 8.10139 46.625 7.97947 46.8382 7.83301C46.8767 7.83667 46.9148 7.8407 46.9533 7.84472C47.0593 7.85608 47.1653 7.86816 47.2717 7.88134C47.5393 7.96079 47.9866 7.87548 47.9997 8.0721Z" fill="white"/>
<path d="M47.6891 10.8363C47.545 11.7872 46.6064 12.4335 45.638 12.6381C45.4449 12.6791 45.2506 12.7022 45.0611 12.707C45.0444 12.7073 45.0273 12.7077 45.0106 12.7077C44.8973 12.7176 44.7833 12.722 44.67 12.7216C44.5691 12.7158 44.4591 12.6975 44.3392 12.6689C44.2354 12.6444 44.1236 12.6118 44.003 12.5744C43.4427 12.4152 42.8937 12.2357 42.3556 12.0296C42.2478 11.9886 42.1403 11.9461 42.031 11.904C40.9505 11.5518 39.863 11.0674 38.7803 10.7038C38.6597 10.6635 38.5395 10.6247 38.4197 10.5873C38.2737 10.5299 38.1278 10.4764 37.9814 10.427C37.9869 10.405 37.992 10.383 37.9963 10.3607C38.0174 10.2655 38.0348 10.1696 38.0486 10.0725C38.07 9.92315 38.082 9.77266 38.0838 9.62217V9.61485C38.0838 9.57347 38.0777 9.53539 38.0675 9.50098C38.4259 9.5332 38.7842 9.58226 39.1473 9.65732C39.1546 9.65879 39.1619 9.66025 39.1691 9.66098C39.282 9.67563 39.4008 9.69211 39.5217 9.71041C40.0329 9.78804 40.562 9.89422 41.0732 9.99638C41.6342 10.1088 42.214 10.2249 42.7808 10.3061C42.8262 10.3149 42.8709 10.3241 42.9159 10.3332C42.9776 10.3457 43.0394 10.3578 43.1007 10.3698C43.6308 10.4735 44.1758 10.5537 44.767 10.6155C44.8726 10.6291 44.9964 10.6437 45.1155 10.6507C45.1704 10.6543 45.2234 10.6558 45.2731 10.6558C45.3486 10.6558 45.4205 10.6521 45.4866 10.6445C45.4921 10.6437 45.4971 10.643 45.5022 10.6423C45.6141 10.6232 45.7266 10.5987 45.8363 10.5701C46.0599 10.5284 46.2847 10.461 46.5022 10.3713C46.5527 10.3856 46.6028 10.3999 46.6532 10.4142C46.7603 10.4449 46.8671 10.4764 46.9742 10.509C47.2356 10.639 47.7102 10.6316 47.6891 10.8363V10.8363Z" fill="white"/>
<path d="M30.5332 20.663C30.5226 20.6865 30.5121 20.7095 30.5012 20.733C30.4758 20.7879 30.4496 20.8428 30.4228 20.8974C30.3204 21.0105 30.3124 21.3115 30.1635 21.2177C30.1432 21.2042 30.1232 21.1903 30.1033 21.176C30.0916 21.1676 30.0804 21.1592 30.0691 21.1507C30.0586 21.1431 30.0481 21.135 30.0379 21.1269C30.0277 21.1193 30.0176 21.1112 30.0074 21.1028C29.9958 21.094 29.9842 21.0845 29.9729 21.0749C29.966 21.0695 29.9591 21.0636 29.9522 21.0574C29.9326 21.0413 29.9134 21.0241 29.8941 21.0068C29.8767 20.9911 29.8593 20.9754 29.8422 20.9592C29.8237 20.942 29.8059 20.9245 29.7881 20.9065C29.7699 20.8889 29.7525 20.8706 29.7351 20.8523C29.7002 20.8157 29.6668 20.7784 29.6338 20.7399C29.6084 20.7099 29.5833 20.6795 29.559 20.6484C29.5466 20.633 29.5347 20.6176 29.5227 20.6019C29.5085 20.5832 29.4943 20.5642 29.4805 20.5451C29.4722 20.5338 29.4642 20.5224 29.4562 20.5111C29.4217 20.462 29.3883 20.4122 29.3567 20.3617C29.3469 20.3456 29.3368 20.3295 29.327 20.3134C29.3168 20.2965 29.307 20.2797 29.2972 20.2628C29.2874 20.246 29.2776 20.2291 29.2681 20.2123C29.2471 20.175 29.2271 20.1372 29.2079 20.0995C29.1973 20.079 29.1872 20.0585 29.177 20.0376C29.1585 19.9999 29.1411 19.9622 29.1244 19.9245C29.1193 19.9132 29.1142 19.9018 29.1095 19.8905C29.1004 19.8692 29.0913 19.8476 29.083 19.8264C29.0764 19.8114 29.0706 19.7967 29.0652 19.7817C29.0579 19.7634 29.0506 19.7451 29.0441 19.7264C29.0361 19.7059 29.0289 19.685 29.0216 19.6645C29.0165 19.6492 29.0114 19.6342 29.0063 19.6191C29.3331 19.7542 29.7118 19.8538 30.0989 19.8813C30.1 19.8861 30.1007 19.8905 30.1018 19.8952C30.1033 19.904 30.1054 19.9128 30.1076 19.9216C30.112 19.9414 30.1174 19.9611 30.1232 19.9805C30.1323 20.0098 30.1428 20.0387 30.1548 20.0673C30.1606 20.0816 30.1672 20.0962 30.1741 20.1101C30.1762 20.1149 30.1784 20.1197 30.181 20.1244C30.1857 20.1339 30.1904 20.1431 30.1955 20.1526C30.2823 20.3137 30.3999 20.488 30.5332 20.663V20.663Z" fill="white"/>
<path d="M40.4698 1.98628C40.4643 2.11114 40.4556 2.23563 40.4436 2.35792C40.4109 2.69368 40.3536 3.0126 40.2697 3.27256C40.0667 3.9016 38.9335 4.51307 37.1834 5.95753C36.7992 6.27498 36.3853 6.63234 35.9452 7.03876C35.9434 7.03986 35.942 7.04096 35.9402 7.04206C35.9296 6.93698 35.9137 6.83189 35.8919 6.72827C35.849 6.5225 35.7844 6.32148 35.7002 6.13401C35.6649 6.05492 35.6261 5.9784 35.584 5.9048C35.5763 5.89162 35.568 5.87917 35.5582 5.86746C35.5117 5.80887 35.4442 5.77079 35.3712 5.76091C35.3788 5.67047 35.3828 5.5793 35.3828 5.48739C35.3828 5.38744 35.3781 5.28784 35.3687 5.18898C37.536 2.32863 39.4429 0.422097 39.944 0.0445984C40.3205 -0.239167 40.5184 0.881247 40.4698 1.98628V1.98628Z" fill="white"/>
<path d="M43.0729 3.14381C43.0235 3.27636 42.9709 3.40414 42.9153 3.52387C42.8547 3.65569 42.7908 3.77761 42.724 3.88563C42.2643 4.63111 40.2211 4.95039 36.8338 6.95358C36.7921 6.93674 36.7474 6.92795 36.7017 6.92795C36.5405 6.92795 36.421 7.03048 36.3251 7.11322C36.2957 7.13849 36.246 7.18133 36.2267 7.19048C36.214 7.19561 36.202 7.2022 36.1904 7.20952C36.6007 6.83239 36.9878 6.49846 37.3487 6.19968C37.8305 5.80168 38.2659 5.46629 38.6486 5.17667C38.739 5.10783 38.8265 5.04192 38.9111 4.97821C39.829 4.28583 40.3831 3.86769 40.5458 3.3635C40.6507 3.03873 40.7204 2.60301 40.7509 2.14679C41.9633 1.32076 42.8474 0.812178 43.1742 0.672675C43.6709 0.461041 43.501 1.98642 43.0729 3.14381V3.14381Z" fill="white"/>
<path d="M28.9163 20.1664C28.8963 20.5783 28.376 20.4545 27.9021 20.2334C27.4279 20.0122 27.0391 20.3154 27.0391 20.3154C27.0623 20.2436 27.2101 19.7585 27.3056 19.1778C27.3147 19.1221 27.3103 19.0665 27.2903 19.0159C27.3953 18.9215 27.6814 18.6289 27.6846 18.2485C27.6854 18.1785 27.6854 18.0533 27.6836 17.9028C27.6846 17.9076 27.6857 17.912 27.6872 17.9167C27.6894 17.9299 27.6915 17.9427 27.6937 17.9556C27.6974 17.9775 27.701 17.9995 27.7046 18.02C27.7406 18.2228 27.7976 18.4301 27.8782 18.6527C27.8934 18.6996 27.9109 18.7494 27.9334 18.7984C27.9635 18.8636 28.0005 18.9233 28.0437 18.9756C28.0492 18.9819 28.055 18.9881 28.0608 18.9943C28.1018 19.0361 28.1447 19.0763 28.1879 19.1133C28.3208 19.2448 28.5118 19.3784 28.742 19.497C28.7118 19.5637 28.7071 19.6413 28.7314 19.7134L28.746 19.757C28.7467 19.7588 28.7514 19.772 28.7514 19.772C28.758 19.7907 28.7648 19.8097 28.7721 19.8284C28.779 19.8482 28.7863 19.8672 28.7939 19.8863C28.8004 19.9038 28.8073 19.921 28.8146 19.9386C28.8237 19.961 28.8331 19.9837 28.8418 20.0038C28.8476 20.0173 28.8534 20.0313 28.8593 20.0437C28.8785 20.0876 28.8974 20.1279 28.9163 20.1664V20.1664Z" fill="white"/>
<path d="M28.0161 16.2737C28.4224 16.3799 28.9947 16.4132 29.4921 16.2931C29.5992 16.2653 29.4678 16.1935 29.4427 16.1316C29.3367 16.1254 29.2401 16.1129 29.1526 16.0939C29.1025 16.0858 29.0538 16.0763 29.0081 16.0653C29.0008 16.0635 28.9928 16.0617 28.9856 16.0595C28.9246 16.0404 28.8654 16.0137 28.8098 15.9797C28.7684 15.954 28.7325 15.9269 28.7053 15.9053C28.5597 15.7981 28.4373 15.6908 28.3313 15.5784C28.3284 15.5754 28.3255 15.5721 28.3226 15.5688C28.3226 15.5908 28.1327 15.95 28.0161 16.2737V16.2737Z" fill="white"/>
<path d="M28.8705 14.5723C28.7325 14.7974 28.6004 15.0289 28.4751 15.2661C28.4954 15.2852 28.5161 15.3035 28.5376 15.3218C28.5572 15.343 28.5757 15.3639 28.5949 15.3844C28.6915 15.4873 28.8041 15.5839 28.9293 15.6758C28.9551 15.6963 28.9794 15.7146 29.0049 15.7304C29.0343 15.7483 29.0651 15.7626 29.0974 15.7729C29.1185 15.7776 29.1396 15.782 29.1617 15.7864H29.1621C29.1824 15.7901 29.2024 15.7937 29.2234 15.797C29.3353 15.8223 29.4751 15.8344 29.6323 15.8315C30.0491 15.8249 30.5825 15.7157 31.0048 15.4876C31.1039 15.4312 30.934 15.3943 30.9006 15.3353C30.8777 15.3177 30.8541 15.2998 30.8305 15.2822C30.8196 15.2742 30.8091 15.2661 30.7978 15.2581H30.7975C30.6798 15.2804 30.5705 15.2917 30.4728 15.2936C30.4275 15.2965 30.3835 15.298 30.341 15.298H30.3243C30.3167 15.298 30.3095 15.2976 30.3015 15.2972C30.2376 15.2925 30.1722 15.28 30.1079 15.2592C30.0604 15.2438 30.0186 15.2255 29.9859 15.2105C29.8142 15.1394 29.6653 15.0629 29.5313 14.978C29.5157 14.9681 29.5005 14.9582 29.4849 14.9479L29.4711 14.9388C29.3207 14.8623 29.1875 14.7758 29.059 14.692C28.9947 14.6506 28.9326 14.61 28.8705 14.5723Z" fill="white"/>
<path d="M29.0376 14.3064C29.1796 14.3906 29.3132 14.484 29.4537 14.5697C29.4544 14.5697 29.4544 14.5701 29.4548 14.5704C29.5201 14.6107 29.588 14.6488 29.6578 14.6843C29.6825 14.7 29.7064 14.7161 29.7315 14.7315C29.8542 14.8099 29.9904 14.8776 30.1378 14.9388C30.1686 14.9527 30.1977 14.9651 30.2264 14.9746C30.2601 14.9856 30.2935 14.9926 30.3284 14.9948C30.3433 14.9948 30.3582 14.9948 30.3738 14.9941C30.4007 14.9937 30.4286 14.9926 30.4573 14.9904C30.576 14.99 30.7205 14.9688 30.8767 14.9289C31.275 14.8275 31.7528 14.6041 32.0923 14.2932C32.1624 14.2262 32.036 14.2193 31.9707 14.1852C31.8941 14.2156 31.8211 14.2394 31.7521 14.2559C31.7042 14.2709 31.6562 14.2837 31.6098 14.294C31.6025 14.2954 31.5949 14.2969 31.5872 14.298C31.5466 14.3046 31.5048 14.3079 31.4631 14.3079C31.4391 14.3079 31.4141 14.3068 31.3897 14.305C31.34 14.3002 31.2935 14.2921 31.2576 14.2848C31.0706 14.2544 30.905 14.2138 30.751 14.1614C30.7332 14.1556 30.7158 14.1493 30.698 14.1431L30.681 14.1369C30.5139 14.097 30.3607 14.0428 30.2122 13.9904C30.0811 13.9447 29.957 13.9007 29.832 13.8696C29.8048 13.8627 29.7772 13.8564 29.7493 13.8506C29.7307 13.8469 29.7126 13.8418 29.6948 13.8356C29.608 13.8037 29.5071 13.785 29.3978 13.7744C29.2743 13.9483 29.1542 14.1256 29.0376 14.3064V14.3064Z" fill="white"/>
<path d="M29.6001 13.4957C29.6785 13.51 29.7541 13.5291 29.8259 13.5554C29.8593 13.562 29.8928 13.5697 29.9258 13.5781C30.1589 13.6363 30.3753 13.7282 30.6026 13.7978C30.6033 13.7978 30.6037 13.7982 30.6041 13.7982C30.6647 13.8176 30.7261 13.8348 30.7889 13.8494C30.8176 13.8593 30.8455 13.8696 30.8738 13.8791C31.0151 13.9271 31.1669 13.9626 31.3266 13.9886C31.3604 13.9952 31.392 14.0007 31.4228 14.0032C31.4501 14.0054 31.4766 14.0054 31.5027 14.0032H31.5034C31.5114 14.0025 31.5187 14.0014 31.5267 14.0003C31.5666 13.9915 31.6076 13.9801 31.6501 13.967C31.7478 13.9443 31.8593 13.9025 31.9762 13.845C32.3476 13.6645 32.7797 13.3262 33.0332 12.9267C33.0883 12.8348 32.9199 12.8755 32.8581 12.8392C32.828 12.8334 32.7979 12.8279 32.7674 12.8231C32.7612 12.822 32.755 12.8209 32.7489 12.8198C32.621 12.9293 32.4929 13.0168 32.3745 13.0765C32.3324 13.101 32.2895 13.1234 32.2474 13.1435C32.2405 13.1464 32.2336 13.1497 32.2271 13.1527C32.1679 13.1761 32.104 13.1926 32.0365 13.2014C31.9867 13.2083 31.9399 13.2101 31.9032 13.2109C31.832 13.2153 31.7627 13.2171 31.6959 13.2171C31.5855 13.2171 31.4784 13.2112 31.3778 13.2006C31.3589 13.1984 31.34 13.1962 31.3212 13.194L31.3034 13.1918C31.1298 13.1889 30.9668 13.1695 30.8085 13.1512C30.6683 13.1347 30.5362 13.1193 30.4062 13.1157C30.3891 13.1153 30.372 13.1149 30.3542 13.1149C30.3434 13.1149 30.3158 13.1149 30.3132 13.1149C30.2969 13.1149 30.2802 13.1138 30.2642 13.112C30.2264 13.1073 30.1858 13.1043 30.1429 13.1043C30.0605 13.1043 29.9726 13.1131 29.8808 13.1274C29.786 13.2486 29.6923 13.3709 29.6001 13.4954V13.4957Z" fill="white"/>
<path d="M30.1421 12.8018C30.2002 12.8018 30.2572 12.8051 30.3135 12.8124C30.3483 12.8117 30.3825 12.8124 30.4166 12.8128C30.5215 12.8154 30.6257 12.8249 30.7288 12.8362C30.9282 12.8582 31.1257 12.8875 31.3287 12.8893C31.3592 12.8926 31.3893 12.8963 31.4191 12.8999C31.5694 12.9157 31.7263 12.9175 31.8882 12.908C31.9227 12.9073 31.9554 12.9058 31.9855 12.9018C32.0211 12.897 32.0541 12.889 32.0857 12.8765C32.1224 12.8589 32.1591 12.8395 32.1965 12.8172C32.2237 12.804 32.2517 12.7883 32.2804 12.7711C32.3907 12.7051 32.5098 12.6103 32.6264 12.4961C32.8874 12.2394 33.1362 11.882 33.2505 11.51C33.2789 11.409 33.1264 11.4851 33.0566 11.4628C33.0261 11.4635 32.9949 11.465 32.9641 11.4665C32.8925 11.4705 32.8203 11.4764 32.7469 11.4848C32.6899 11.5628 32.6311 11.6309 32.5719 11.6873C32.5396 11.7217 32.5069 11.7546 32.4735 11.785C32.4677 11.7901 32.4623 11.7949 32.4568 11.7997C32.4082 11.8377 32.3526 11.8707 32.2923 11.8971C32.2473 11.9161 32.2034 11.9307 32.1682 11.9414C31.991 12.0018 31.8254 12.0442 31.6627 12.0713C31.6457 12.0743 31.5897 12.0831 31.5897 12.0831C31.4235 12.1263 31.2608 12.1512 31.1036 12.1753C30.9645 12.1969 30.8331 12.2174 30.7078 12.2489C30.6806 12.2555 30.653 12.2632 30.6257 12.2713C30.6116 12.2753 30.5967 12.279 30.5814 12.2815C30.4333 12.4514 30.2866 12.625 30.1421 12.8018V12.8018Z" fill="white"/>
<path d="M30.9224 11.8962C31.012 11.8816 31.1021 11.8684 31.1918 11.8538C31.2989 11.8358 31.4056 11.8153 31.5109 11.7871C31.5407 11.7824 31.5708 11.7783 31.6003 11.7732C31.7491 11.7487 31.8991 11.7084 32.0509 11.656C32.0832 11.6465 32.1137 11.6366 32.1416 11.6246C32.1736 11.6106 32.2023 11.5938 32.2284 11.5737C32.2288 11.5733 32.2299 11.5726 32.2302 11.5722C32.2582 11.5462 32.2858 11.518 32.3137 11.488C32.3896 11.4177 32.4662 11.3207 32.5367 11.205C32.7375 10.8787 32.8947 10.4049 32.8747 9.96041C32.87 9.89341 32.8188 9.91684 32.7633 9.94101C32.5574 10.1603 32.3468 10.3808 32.134 10.6034C31.739 11.0164 31.3294 11.4451 30.9224 11.8962V11.8962Z" fill="white"/>
<path d="M27.6826 16.48C27.6873 16.5034 27.6917 16.5268 27.6953 16.5503C27.7088 16.5928 27.7215 16.6356 27.7327 16.6788C27.8358 17.0662 27.8605 17.466 27.9702 17.8516C27.9771 17.8911 27.9833 17.9303 27.9902 17.9691C28.0247 18.1639 28.0802 18.3598 28.1525 18.5571C28.1663 18.5996 28.1801 18.6395 28.1968 18.6754C28.216 18.7171 28.2392 18.7549 28.2668 18.7885C28.3028 18.8252 28.3416 18.8618 28.3841 18.8977C28.7545 19.2715 29.6506 19.6446 30.4715 19.5915C30.5689 19.5827 30.526 19.5073 30.4908 19.4297C30.2018 19.3575 29.9436 19.2558 29.7446 19.1316C29.6822 19.0987 29.6226 19.0639 29.5674 19.0276C29.562 19.024 29.5562 19.0203 29.5507 19.0159C29.4894 18.9691 29.4349 18.9145 29.3844 18.8486C29.3452 18.797 29.3129 18.7446 29.286 18.6988C29.1372 18.4674 29.0195 18.2474 28.9269 18.0259C28.916 18.0006 28.9062 17.9753 28.8957 17.9501C28.8903 17.9365 28.8845 17.9226 28.879 17.9094C28.7574 17.6839 28.6626 17.4514 28.5711 17.2266C28.4869 17.0193 28.4074 16.8238 28.3097 16.6367C28.3093 16.6363 28.3093 16.6356 28.309 16.6352C28.0751 16.6034 27.8584 16.5503 27.683 16.4807L27.6826 16.48Z" fill="white"/>
<path d="M28.6553 16.665C28.827 17.0334 28.9523 17.4207 29.1476 17.7788C29.1654 17.8228 29.1825 17.8656 29.2006 17.9085C29.2903 18.1234 29.4047 18.3332 29.5387 18.5408C29.5656 18.5866 29.5913 18.6279 29.62 18.6649C29.6527 18.7081 29.6886 18.7447 29.7293 18.7755C29.7798 18.8088 29.8342 18.8403 29.8923 18.8707C30.0205 18.9523 30.1846 19.0252 30.3734 19.0853C30.4824 19.1197 30.5996 19.1497 30.7235 19.1746C31.255 19.2811 31.8973 19.2881 32.466 19.1186C32.6253 19.0669 32.4079 18.9311 32.3857 18.8187C32.3617 18.7784 32.3371 18.7381 32.3116 18.6986C32.3055 18.6887 32.2989 18.6788 32.2924 18.6689C31.9914 18.6543 31.7227 18.6056 31.5063 18.5269C31.4355 18.5067 31.3672 18.4837 31.303 18.4588C31.2968 18.4566 31.2906 18.454 31.2844 18.4511C31.2129 18.4174 31.1465 18.3738 31.0815 18.3182C31.031 18.2742 30.9871 18.2281 30.9508 18.1878C30.7507 17.9842 30.5858 17.7858 30.4464 17.5808C30.4304 17.5577 30.4148 17.5339 30.3992 17.5105C30.3905 17.4976 30.3822 17.4852 30.3742 17.4727C30.2035 17.2695 30.0597 17.0535 29.9207 16.8448C29.8462 16.7328 29.7736 16.6244 29.6992 16.52C29.665 16.546 29.6218 16.5684 29.567 16.5826C29.5652 16.583 29.5634 16.5834 29.5616 16.5837C29.3295 16.6397 29.0761 16.6683 28.8089 16.6683C28.7577 16.6683 28.7065 16.6672 28.6556 16.665H28.6553Z" fill="white"/>
<path d="M29.8008 16.1242C29.8102 16.144 29.8178 16.1652 29.8229 16.1887C29.8229 16.1887 29.8229 16.1888 29.8229 16.189C30.1011 16.5468 30.3164 16.9451 30.6105 17.2919C30.6381 17.3322 30.6639 17.3724 30.6911 17.412C30.8262 17.6108 30.9859 17.7997 31.1657 17.9817C31.2023 18.0224 31.2375 18.0593 31.2742 18.0908C31.3167 18.1271 31.3614 18.1571 31.4097 18.1798C31.4685 18.2025 31.5313 18.2237 31.5974 18.242C31.7295 18.2915 31.89 18.3281 32.0701 18.3501C32.1903 18.3651 32.3192 18.3731 32.4539 18.3742C33.0414 18.3801 33.7396 18.253 34.3184 17.9499C34.4738 17.8638 34.2211 17.7723 34.1768 17.6624C34.1438 17.6269 34.1103 17.5914 34.0762 17.5566C34.0704 17.5508 34.0646 17.5445 34.0588 17.539C33.7767 17.6068 33.5138 17.6394 33.2923 17.6394H33.2919C33.2222 17.6394 33.155 17.6361 33.0919 17.6298C33.0153 17.6276 32.9412 17.6225 32.8707 17.6137C32.8638 17.613 32.8573 17.6119 32.8508 17.6108C32.7705 17.5954 32.6939 17.5691 32.6155 17.5299C32.5534 17.4991 32.4964 17.4625 32.4521 17.4332C32.2001 17.2802 31.9844 17.1235 31.7927 16.9536C31.7706 16.9342 31.7488 16.9144 31.727 16.8946C31.7154 16.884 31.7038 16.8737 31.6918 16.8628C31.4696 16.7028 31.2702 16.5226 31.0774 16.3483C30.9275 16.2128 30.7844 16.0832 30.6337 15.9653C30.3672 16.0499 30.0804 16.1052 29.8011 16.1239L29.8008 16.1242Z" fill="white"/>
<path d="M30.9558 15.8441C31.2641 16.104 31.5462 16.3933 31.8762 16.6287C31.914 16.6624 31.9503 16.6961 31.9877 16.7294C32.174 16.8946 32.3828 17.0432 32.6097 17.1802C32.6569 17.2116 32.7012 17.2395 32.7466 17.2622C32.7985 17.2882 32.8508 17.3068 32.9053 17.3171C32.9703 17.3248 33.0385 17.3295 33.1097 17.331C33.3014 17.3515 33.5374 17.3372 33.7959 17.2896C33.9089 17.2688 34.0261 17.2413 34.1456 17.2069C34.7018 17.0502 35.3079 16.7562 35.7737 16.3376C35.9084 16.2113 35.631 16.1839 35.5584 16.085C35.5163 16.0572 35.4734 16.0308 35.4302 16.0041C35.4255 16.0012 35.4204 15.9982 35.4153 15.9949C35.1859 16.0876 34.9687 16.1469 34.7803 16.1678C34.712 16.1806 34.6448 16.1897 34.5799 16.1959C34.573 16.1967 34.5661 16.197 34.5595 16.197H34.5432C34.4731 16.197 34.4012 16.1875 34.3286 16.1689C34.2672 16.1531 34.2106 16.1322 34.1627 16.1132C33.9096 16.025 33.6877 15.9261 33.4848 15.8108C33.4619 15.7976 33.4386 15.784 33.4158 15.7712C33.4038 15.7643 33.3922 15.7569 33.3798 15.7503C33.1522 15.6497 32.9416 15.5277 32.7379 15.4095C32.5512 15.3011 32.3748 15.1986 32.1892 15.114C32.1464 15.0946 32.1035 15.0763 32.0618 15.0598C32.0473 15.0539 32.0331 15.0466 32.0193 15.0389C31.9318 14.9866 31.8363 14.943 31.7346 14.9067C31.5527 15.0071 31.357 15.0927 31.158 15.1583C31.2263 15.2041 31.3341 15.2956 31.3316 15.4585C31.3305 15.5149 31.3109 15.6573 31.1493 15.7489C31.1475 15.75 31.1457 15.7511 31.1439 15.7522C31.0836 15.7848 31.0208 15.8155 30.9551 15.8441H30.9558Z" fill="white"/>
<path d="M32.0454 14.7128C32.0886 14.7336 32.1307 14.7567 32.1714 14.7809C32.2092 14.7959 32.2462 14.8116 32.2836 14.8285H32.284C32.2934 14.8321 32.3025 14.8365 32.3119 14.8409C32.7273 15.0299 33.0948 15.3001 33.5138 15.482C33.5533 15.5048 33.5922 15.5278 33.631 15.5502C33.8271 15.6615 34.0395 15.7537 34.2665 15.8328C34.3144 15.8515 34.3587 15.868 34.403 15.8793C34.4538 15.8925 34.5039 15.8991 34.554 15.898C34.6136 15.8929 34.6746 15.8841 34.7381 15.8716C34.8391 15.861 34.9509 15.8376 35.07 15.801H35.0704C35.1873 15.7665 35.3107 15.7193 35.4378 15.6618C35.9578 15.426 36.5325 15.0112 36.9156 14.4869C37.0115 14.3492 36.7602 14.3774 36.6778 14.3034C36.6349 14.2869 36.5921 14.2712 36.5489 14.2558C36.4991 14.2382 36.4494 14.2218 36.3986 14.2057C36.2188 14.3323 36.0434 14.429 35.884 14.4891C35.8227 14.5172 35.762 14.5421 35.7021 14.563C35.696 14.5652 35.6891 14.567 35.6829 14.5689C35.6132 14.5879 35.5387 14.5978 35.4621 14.5978H35.4574C35.3953 14.5974 35.335 14.5908 35.2882 14.5846C35.0304 14.5619 34.7988 14.5213 34.5813 14.4616C34.5569 14.455 34.5326 14.448 34.5083 14.4411C34.4956 14.4374 34.4825 14.4338 34.4698 14.4297C34.2323 14.3898 34.0072 14.325 33.7886 14.2624C33.5889 14.2049 33.4001 14.1507 33.2073 14.1156C33.1627 14.1075 33.1187 14.1002 33.0762 14.0951C33.0603 14.0929 33.045 14.0896 33.0298 14.0848C32.8783 14.0391 32.6993 14.0171 32.4829 14.0171C32.4252 14.0171 32.366 14.0186 32.3068 14.0211C32.3497 14.0596 32.386 14.1127 32.4027 14.1866C32.4154 14.2415 32.4303 14.3832 32.2985 14.5096C32.2967 14.511 32.2949 14.5129 32.2934 14.5143C32.2186 14.5832 32.1355 14.6494 32.0465 14.7128H32.0454Z" fill="white"/>
<path d="M32.7035 13.7262C32.8447 13.7368 32.982 13.7591 33.1134 13.7983C33.1229 13.7994 33.1319 13.8009 33.1414 13.8023H33.1417C33.181 13.8075 33.2202 13.8141 33.259 13.821C33.6922 13.9001 34.0989 14.066 34.5331 14.1374C34.576 14.1495 34.617 14.1615 34.6588 14.1733C34.8679 14.2307 35.0887 14.2674 35.3192 14.2875C35.3682 14.2937 35.4144 14.2985 35.4579 14.2988C35.5088 14.2988 35.557 14.2934 35.6039 14.2805C35.658 14.2615 35.7135 14.2392 35.7702 14.2124C35.8472 14.1842 35.9285 14.1458 36.0131 14.0978C36.1195 14.0385 36.2306 13.9635 36.3428 13.8767H36.3431C36.7854 13.5332 37.2433 12.9968 37.4862 12.4007C37.5439 12.2488 37.3155 12.3348 37.2207 12.2854C37.1768 12.2799 37.1332 12.2751 37.0893 12.2711C37.0588 12.2686 37.0283 12.266 36.9982 12.2642C36.9666 12.2956 36.9346 12.3253 36.9027 12.3531C36.898 12.3572 36.8925 12.3619 36.8871 12.3659C36.8272 12.4114 36.7593 12.4491 36.6852 12.4787C36.6271 12.5014 36.5694 12.5179 36.52 12.5307C36.2662 12.6072 36.0316 12.657 35.8029 12.6834C35.7767 12.6863 35.7509 12.6889 35.7248 12.6918C35.711 12.6933 35.6972 12.6944 35.6838 12.6958C35.4434 12.7482 35.2048 12.7731 34.9736 12.7969C34.7615 12.8185 34.5618 12.8397 34.3646 12.8797C34.3193 12.8892 34.2746 12.8994 34.2318 12.9104C34.2165 12.9141 34.2009 12.9166 34.1853 12.9181C33.848 12.9485 33.4976 13.1133 33.1298 13.3011C33.0009 13.4607 32.8538 13.6039 32.7031 13.7266L32.7035 13.7262Z" fill="white"/>
<path d="M33.1807 12.6151C33.2282 12.6426 33.2729 12.6843 33.3056 12.7488C33.3244 12.7861 33.3361 12.826 33.3393 12.8663C33.612 12.7418 33.884 12.6448 34.1588 12.6199C34.2079 12.6074 34.2569 12.5965 34.3059 12.5862C34.7471 12.4961 35.1966 12.4983 35.6366 12.3998C35.6817 12.3951 35.7256 12.3907 35.7699 12.3859C35.9798 12.3621 36.1925 12.316 36.4086 12.2519H36.4093C36.4202 12.249 36.4304 12.2457 36.4413 12.242C36.4903 12.2292 36.5357 12.216 36.5774 12.1999C36.6257 12.1809 36.6693 12.1567 36.7092 12.1271C36.7535 12.0882 36.7978 12.0454 36.8417 11.9985C36.8563 11.9854 36.8708 11.9718 36.8857 11.9575C37.3225 11.5306 37.784 10.5497 37.7938 9.61967C37.7916 9.45307 37.6064 9.62223 37.4979 9.61162C37.4543 9.62333 37.4111 9.63541 37.3679 9.64823C37.2909 9.67093 37.2146 9.6962 37.1377 9.72292C37.1021 9.79615 37.0632 9.86609 37.0215 9.93163C36.983 10.0034 36.9412 10.0733 36.8977 10.1396C36.8944 10.1447 36.8908 10.1502 36.8864 10.155C36.8352 10.2227 36.7735 10.2875 36.6976 10.3527C36.6359 10.4054 36.5694 10.4545 36.5124 10.4955C36.2078 10.728 35.9155 10.9261 35.6188 11.1022C35.5847 11.1223 35.5506 11.1421 35.5161 11.1626C35.4928 11.1762 35.4696 11.1897 35.4464 11.2033C35.1443 11.4101 34.8229 11.5976 34.5125 11.7796C34.2315 11.9436 33.9413 12.1131 33.6748 12.2922C33.612 12.3339 33.5514 12.3764 33.4937 12.4174C33.4878 12.4214 33.4817 12.4255 33.4759 12.4295H33.4755C33.4733 12.431 33.4708 12.4324 33.4686 12.4339C33.3698 12.4906 33.2747 12.5514 33.1814 12.6155L33.1807 12.6151Z" fill="white"/>
<path d="M33.2305 12.2265C33.2602 12.2082 33.2907 12.1906 33.3209 12.173C33.383 12.1287 33.4458 12.0851 33.5093 12.0423C34.083 11.6575 34.7202 11.3393 35.2874 10.9493C35.348 10.9135 35.4079 10.879 35.4679 10.8435C35.7663 10.667 36.0543 10.469 36.336 10.2537C36.3985 10.2086 36.4551 10.1665 36.5049 10.1237C36.5622 10.0743 36.6109 10.0245 36.6505 9.97283C36.6675 9.94757 36.6839 9.92121 36.6998 9.89448C36.7223 9.85713 36.7445 9.81832 36.7652 9.77877C36.8226 9.68943 36.8745 9.58947 36.9199 9.48256C37.194 8.83191 37.2194 7.9008 36.7641 7.25455C36.6664 7.12713 36.5005 7.39039 36.3407 7.45922C36.2855 7.49877 36.2314 7.53978 36.177 7.58042C36.0909 7.64596 36.006 7.71223 35.9217 7.78034C35.9112 7.84075 35.8981 7.89897 35.8829 7.95572C35.8676 8.03591 35.8484 8.115 35.8266 8.19152C35.8248 8.19738 35.823 8.2036 35.8208 8.20946C35.7917 8.28965 35.7522 8.36947 35.6991 8.45441C35.6556 8.52362 35.6073 8.59026 35.5648 8.64664C35.343 8.96007 35.1229 9.23797 34.892 9.49537C34.8648 9.5254 34.8382 9.55469 34.811 9.58471C34.7929 9.60412 34.7751 9.62353 34.7573 9.6433C34.5307 9.93219 34.2798 10.2083 34.0369 10.4752C33.8205 10.7135 33.5972 10.9592 33.3975 11.2075C33.4389 11.2335 33.4676 11.2639 33.485 11.2877C33.5217 11.3367 33.5772 11.4415 33.5358 11.5905C33.5351 11.593 33.5347 11.5952 33.5337 11.5978C33.4694 11.8069 33.3652 12.0218 33.2305 12.2257V12.2265Z" fill="white"/>
<path d="M32.8959 11.1708C32.9126 11.1697 32.9296 11.1686 32.9471 11.1675C32.9482 11.1675 32.9507 11.1671 32.9518 11.1671C32.9841 11.1656 33.0171 11.1642 33.0491 11.1634C33.0509 11.1634 33.0527 11.1631 33.0545 11.1631C33.0887 11.118 33.1235 11.0737 33.1588 11.0298C33.5919 10.4897 34.1053 9.99359 34.5309 9.45022C34.5781 9.39787 34.6253 9.3466 34.6718 9.29498C34.9041 9.03648 35.1202 8.76077 35.3253 8.47041C35.3715 8.40853 35.4132 8.35141 35.4481 8.29539C35.4884 8.23095 35.52 8.16871 35.5417 8.10792C35.5428 8.1039 35.5439 8.10024 35.545 8.09621C35.5646 8.02884 35.5802 7.95927 35.5937 7.88824C35.6173 7.80366 35.6347 7.71395 35.6463 7.62021C35.7084 7.13031 35.6104 6.53532 35.333 6.05127C35.2898 6.29586 35.2171 6.53422 35.1158 6.76453C35.097 6.80663 35.077 6.84837 35.0574 6.89011C35.0566 6.89158 35.0454 6.91465 35.0421 6.92087C34.5745 7.88567 33.8432 8.77322 33.0171 9.66845C33.1039 9.7241 33.1624 9.8215 33.1707 9.93903C33.1707 9.9416 33.1707 9.94379 33.1707 9.94636C33.1889 10.3429 33.0872 10.7867 32.8955 11.1708H32.8959Z" fill="white"/>
<path d="M26.9801 12.0665C26.9884 12.3584 26.8552 12.6451 26.584 12.9186L24.2947 15.2279L24.0002 15.1107L23.7053 15.2279L21.416 12.9186C21.1448 12.6451 21.0115 12.3584 21.0199 12.0665C21.0268 11.8318 21.123 11.6191 21.2265 11.4565C21.3431 12.1727 22.2896 12.7516 23.5122 12.8768C23.6672 12.8926 23.827 12.9014 23.99 12.9021H24.01C24.173 12.9014 24.3328 12.8926 24.4878 12.8768C25.7104 12.7516 26.6569 12.1727 26.7735 11.4565C26.877 11.6191 26.9732 11.8318 26.9801 12.0665V12.0665Z" fill="white"/>
<path d="M24.3274 15.7215L24.3245 15.7651C24.3252 15.757 24.3259 15.7493 24.3267 15.742C24.3121 15.9485 24.1636 16.7727 24.01 16.8405C24.009 16.8408 24.0082 16.8412 24.0071 16.8419C24.005 16.8427 24.0028 16.8434 24.0006 16.8438H23.9995C23.9973 16.8434 23.9952 16.8427 23.993 16.8419C23.9919 16.8412 23.9912 16.8408 23.9901 16.8405C23.8365 16.7727 23.688 15.9485 23.6735 15.742C23.6735 15.742 23.6738 15.7416 23.6735 15.7413C23.6731 15.7376 23.6731 15.7343 23.6731 15.731C23.6735 15.7409 23.6742 15.7523 23.6756 15.7651L23.6727 15.7215C23.6724 15.7193 23.6724 15.7171 23.6724 15.7153C23.6724 15.5846 23.9178 15.4685 23.9901 15.437C23.9912 15.4366 23.9922 15.4359 23.993 15.4355C23.9959 15.4344 23.9984 15.4333 24.0002 15.4326C24.0021 15.4333 24.0046 15.4344 24.0071 15.4355C24.0082 15.4359 24.009 15.4363 24.01 15.4366C24.0823 15.4681 24.3277 15.5846 24.3277 15.7153C24.3277 15.7171 24.3277 15.7193 24.3274 15.7215V15.7215Z" fill="white"/>
<path d="M23.9933 15.4298C23.9951 15.4306 23.9974 15.4317 24.0008 15.4329C23.9989 15.4336 23.9963 15.4348 23.9933 15.4359C23.9925 15.4363 23.9914 15.437 23.9902 15.4374V15.4287C23.9902 15.4287 23.9914 15.4291 23.9933 15.4298V15.4298Z" fill="white"/>
<path d="M23.9933 16.8423C23.9955 16.8431 23.9978 16.8438 24.0001 16.8442C23.9978 16.845 23.9955 16.8454 23.9933 16.8454C23.9921 16.8457 23.9914 16.8457 23.9902 16.8457V16.8408C23.9902 16.8408 23.9921 16.8416 23.9933 16.8423Z" fill="white"/>
<path d="M24.3271 15.7217C24.3271 15.7246 24.3268 15.7279 24.3268 15.7312C24.3268 15.7345 24.3264 15.7382 24.3264 15.7422C24.3257 15.7495 24.3249 15.7572 24.3242 15.7653L24.3271 15.7217V15.7217Z" fill="white"/>
<path d="M25.4564 14.8672L24.7803 15.5361C24.7854 15.5413 24.7904 15.5464 24.7955 15.5515L25.4654 14.8756C25.4625 14.873 25.4596 14.8701 25.4564 14.8672Z" fill="white"/>
<path opacity="0.55" d="M24.3271 15.7217C24.3271 15.7246 24.3268 15.7279 24.3268 15.7312C24.3268 15.7345 24.3264 15.7382 24.3264 15.7422C24.3257 15.7495 24.3249 15.7572 24.3242 15.7653L24.3271 15.7217V15.7217Z" fill="white"/>
<path d="M24.3271 15.7217C24.3271 15.7246 24.3268 15.7279 24.3268 15.7312C24.3268 15.7345 24.3264 15.7382 24.3264 15.7422C24.3257 15.7495 24.3249 15.7572 24.3242 15.7653L24.3271 15.7217V15.7217Z" fill="white"/>
<path d="M25.4564 14.8672L24.7803 15.5361C24.7854 15.5413 24.7904 15.5464 24.7955 15.5515L25.4654 14.8756C25.4625 14.873 25.4596 14.8701 25.4564 14.8672Z" fill="white"/>
<path d="M26.4399 14.2123H26.1229L26.9969 13.331C27.2707 13.0502 27.4395 12.6653 27.4395 12.2403C27.4395 11.6782 27.144 11.1861 26.7014 10.9126C26.7507 10.9569 27.8988 12.007 26.7896 13.1256L24.5065 15.4283C24.5693 15.5034 24.6139 15.5934 24.6179 15.6993C24.6183 15.7044 24.6183 15.7095 24.6183 15.715C24.6183 15.7198 24.6183 15.7245 24.6179 15.73C24.6143 15.8582 24.5635 16.1602 24.5043 16.4067C24.4763 16.522 24.4451 16.6399 24.4048 16.7464H25.4643C25.9418 16.7464 26.5303 16.3521 26.7722 15.8702L27.0151 15.3855C27.3386 14.7403 27.0797 14.2123 26.4399 14.2123V14.2123ZM25.5329 15.6989C25.3074 15.8541 25.1106 15.8659 24.9531 15.8197C24.9523 15.8197 24.9512 15.8197 24.9505 15.819C24.9454 15.8172 24.9403 15.8157 24.9353 15.8139C24.6818 15.726 24.7465 15.6084 24.7722 15.5744L24.7955 15.5513C24.7904 15.5462 24.7853 15.5411 24.7802 15.536L25.4563 14.867C25.4596 14.8699 25.4625 14.8729 25.4654 14.8754L25.7261 14.6125C25.6237 14.9629 26.1306 15.287 25.5329 15.6989V15.6989Z" fill="white"/>
<path d="M27.5536 15.3989C27.5536 15.615 27.5507 15.8237 27.5442 16.0247C27.5257 16.0595 26.928 17.1627 25.5493 17.1627H24.4974C24.2153 17.1627 24.2139 17.04 24.2139 17.04H25.464C26.0508 17.04 26.7392 16.5845 27.0311 16.0031L27.274 15.5183C27.3539 15.359 27.4055 15.2008 27.4294 15.0482C27.4352 15.0119 27.4941 14.9691 27.5126 15.0324C27.5137 15.0357 27.5144 15.0394 27.5151 15.0434C27.5394 15.1584 27.5518 15.277 27.5518 15.3989H27.5536V15.3989Z" fill="white"/>
<path d="M27.5536 15.3989C27.5536 15.615 27.5507 15.8237 27.5442 16.0247C27.5257 16.0595 26.928 17.1627 25.5493 17.1627H24.4974C24.2153 17.1627 24.2139 17.04 24.2139 17.04H25.464C26.0508 17.04 26.7392 16.5845 27.0311 16.0031L27.274 15.5183C27.3539 15.359 27.4055 15.2008 27.4294 15.0482C27.4352 15.0119 27.4941 14.9691 27.5126 15.0324C27.5137 15.0357 27.5144 15.0394 27.5151 15.0434C27.5394 15.1584 27.5518 15.277 27.5518 15.3989H27.5536V15.3989Z" fill="white"/>
<path d="M27.2671 21.3013L27.0841 20.9816C26.8779 20.6214 26.5406 20.6214 26.3343 20.9816L26.3057 21.0322L26.2766 20.9816C26.0707 20.6214 25.7334 20.6214 25.5272 20.9816L25.4807 21.0629L25.4339 20.9816C25.2276 20.6214 24.8907 20.6214 24.6841 20.9816L24.5011 21.3013C24.3519 21.562 24.3991 21.7883 24.5926 21.8934C24.5951 21.8948 24.598 21.8963 24.6009 21.8977L24.6053 21.8999C24.8152 22.012 24.9691 22.3748 24.9691 22.8054C24.9691 23.2082 24.834 23.5524 24.6449 23.6864C24.6438 23.6867 24.6431 23.6878 24.642 23.6882C24.6416 23.6886 24.6412 23.6889 24.6405 23.6893C24.5098 23.7805 24.4241 23.9328 24.4241 24.1053C24.4241 24.3843 24.6481 24.6102 24.9245 24.6102C25.2008 24.6102 25.4255 24.3843 25.4255 24.1053C25.4255 24.0712 25.4223 24.0379 25.4161 24.006C25.4161 24.006 25.4161 24.0058 25.4161 24.0053L25.415 23.9998C25.4139 23.9939 25.4125 23.9881 25.411 23.9826C25.4106 23.9815 25.4106 23.9811 25.4103 23.9804V23.9789C25.4095 23.9771 25.4092 23.9756 25.4088 23.9745H25.4092C25.6361 23.7497 25.8696 23.6121 26.1234 23.1683C26.4102 22.6678 26.3877 21.982 26.6444 21.956C26.656 21.9549 26.6677 21.9541 26.6786 21.9541C26.688 21.9545 26.6971 21.9549 26.7062 21.956H26.8928C27.3053 21.956 27.4737 21.6616 27.2675 21.3013H27.2671ZM24.9673 24.3271C24.7578 24.2905 24.683 24.1686 24.8253 24.0979C24.9677 24.0273 25.2966 23.7102 25.2966 23.7102C25.2901 24.0064 25.1768 24.3641 24.9673 24.3271ZM25.3035 21.6836C25.3035 21.6836 25.0791 21.2951 24.9629 21.1885C24.8471 21.082 24.9535 20.9912 25.1645 21.0179C25.3758 21.0443 25.3816 21.4078 25.3035 21.6836ZM26.1078 21.7088C26.1078 21.7088 25.8837 21.3203 25.7676 21.2138C25.6517 21.1072 25.7581 21.0164 25.9691 21.0428C26.1804 21.0695 26.1862 21.4327 26.1078 21.7088V21.7088ZM26.8652 21.7322C26.8652 21.7322 26.6408 21.3438 26.525 21.2372C26.4088 21.1307 26.5152 21.0399 26.7261 21.0662C26.9374 21.093 26.9433 21.4565 26.8652 21.7322V21.7322Z" fill="white"/>
<path d="M27.331 27.5301C27.046 28.3591 26.469 29.3063 26.2919 29.0207C26.216 28.898 26.0809 28.6077 25.9142 28.1778C25.8496 28.0105 25.7799 27.8223 25.7069 27.6143C25.4611 26.912 25.1797 25.9868 24.9248 24.9034C25.2483 24.903 25.5272 24.706 25.6495 24.4248C25.6626 24.4537 25.6757 24.483 25.6891 24.5119C26.2773 25.7902 26.8804 26.8388 27.331 27.5301V27.5301Z" fill="white"/>
<path d="M28.7478 26.4548C28.7101 27.2673 28.3408 28.4522 28.1073 28.2134C28.0122 28.1164 27.8234 27.8693 27.5761 27.4954C27.5253 27.4189 27.4723 27.3372 27.4171 27.2505C26.9919 26.5808 26.4382 25.6076 25.8906 24.4179C25.8373 24.3019 25.7857 24.1851 25.7363 24.0686C25.7469 24.0588 25.7578 24.0496 25.7686 24.0397C25.9092 23.9145 26.0642 23.7765 26.2265 23.5483C26.2472 23.5776 26.2686 23.6069 26.29 23.6362C27.2886 24.9972 28.2391 25.9993 28.7478 26.4548Z" fill="white"/>
<path d="M29.1502 26.4962C29.1081 26.468 29.0482 26.4208 28.9723 26.3549C28.9073 26.2989 28.8307 26.229 28.7432 26.1466C28.2356 25.6647 27.3798 24.7457 26.468 23.503C26.4299 23.4514 26.3925 23.3994 26.3555 23.3474C26.362 23.3367 26.3682 23.3261 26.3744 23.3151C26.521 23.0588 26.5947 22.7718 26.6543 22.5411C26.6681 22.4869 26.6841 22.4243 26.7008 22.3672C28.1902 23.749 29.2058 24.0566 29.3456 24.53C29.546 25.2107 29.4371 26.6899 29.1502 26.4962V26.4962Z" fill="white"/>
<path d="M27.3939 18.2454C27.3914 18.5591 27.074 18.8169 27.074 18.8169C26.2476 19.4547 24.5524 18.9549 24.5524 18.9549C25.6416 19.4646 26.4688 19.3555 27.0199 19.123C26.9274 19.6144 26.8195 20.0435 26.6997 20.4188C26.5585 20.4206 26.423 20.473 26.3054 20.5675C26.2451 20.5191 26.1805 20.4818 26.1126 20.4565C26.0447 20.4316 25.9742 20.4184 25.9016 20.4184C25.7498 20.4184 25.6046 20.4759 25.4801 20.5825C25.3559 20.4759 25.2106 20.4184 25.0589 20.4184C24.8123 20.4184 24.5839 20.5704 24.4325 20.8348L24.2492 21.1548C24.0959 21.4224 24.109 21.6377 24.1464 21.7714C24.1918 21.9317 24.2996 22.0657 24.4507 22.1489C24.4572 22.1529 24.4641 22.1565 24.4714 22.1598C24.5338 22.1957 24.6391 22.3667 24.6696 22.6468C24.6751 22.6941 24.678 22.7446 24.6783 22.798V22.8054C24.6783 22.8526 24.6762 22.898 24.6722 22.9412C24.6609 23.0598 24.6359 23.162 24.6054 23.2433C24.5665 23.3469 24.5186 23.4168 24.4783 23.4458C24.4783 23.4461 24.4757 23.4476 24.475 23.4483C24.455 23.4622 24.4358 23.4772 24.4173 23.493C24.4057 23.5029 24.394 23.5131 24.3832 23.5237C24.3719 23.534 24.361 23.545 24.3508 23.5563C24.3454 23.5618 24.3399 23.5677 24.3352 23.5735C24.3294 23.5798 24.3236 23.5864 24.3185 23.593C24.3163 23.5951 24.3142 23.5977 24.3123 23.6003C24.3113 23.6014 24.3105 23.6025 24.3094 23.6039C24.3087 23.6047 24.308 23.6058 24.3076 23.6065C24.3004 23.6149 24.2938 23.6233 24.2884 23.6318C24.2862 23.6343 24.284 23.6373 24.2822 23.6398C24.1867 23.7738 24.1333 23.936 24.1333 24.1052C24.1333 24.4626 24.3672 24.7654 24.6885 24.8668C25.0102 26.253 25.3806 27.4068 25.6754 28.1797C25.3504 28.9233 24.3076 30.0617 24.0001 29.9969C23.6929 30.0624 22.6494 28.9237 22.3244 28.1797C22.6192 27.4068 22.9896 26.253 23.3113 24.8668C23.6326 24.7654 23.8665 24.4626 23.8665 24.1052C23.8665 23.936 23.8131 23.7738 23.7176 23.6398C23.7158 23.6373 23.7136 23.6343 23.7114 23.6318C23.706 23.6233 23.6994 23.6149 23.6922 23.6065C23.6918 23.6058 23.6911 23.6047 23.6904 23.6039C23.6893 23.6025 23.6886 23.6014 23.6875 23.6003C23.6856 23.5977 23.6835 23.5951 23.6813 23.593C23.6762 23.5864 23.6704 23.5798 23.6646 23.5735C23.6599 23.5677 23.6544 23.5618 23.649 23.5563C23.6388 23.545 23.6279 23.534 23.6167 23.5237C23.6058 23.5131 23.5941 23.5029 23.5825 23.493C23.564 23.4772 23.5448 23.4622 23.5248 23.4483C23.5241 23.4476 23.5215 23.4461 23.5215 23.4458C23.4812 23.4168 23.4333 23.3469 23.3944 23.2433C23.3639 23.162 23.3389 23.0598 23.3276 22.9412C23.3236 22.898 23.3215 22.8526 23.3215 22.8054V22.798C23.3218 22.7446 23.3247 22.6941 23.3302 22.6468C23.3607 22.3667 23.466 22.1957 23.5284 22.1598C23.5357 22.1565 23.5426 22.1529 23.5491 22.1489C23.7002 22.0657 23.808 21.9317 23.8534 21.7714C23.8908 21.6377 23.9039 21.4224 23.7506 21.1548L23.5673 20.8348C23.4159 20.5704 23.1875 20.4184 22.9409 20.4184C22.7892 20.4184 22.6439 20.4759 22.5197 20.5825C22.3952 20.4759 22.25 20.4184 22.0982 20.4184C22.0256 20.4184 21.9551 20.4316 21.8872 20.4565C21.8193 20.4818 21.7547 20.5191 21.6944 20.5675C21.5768 20.473 21.4414 20.4206 21.3001 20.4188C21.1803 20.0435 21.0725 19.6144 20.9799 19.123C21.531 19.3555 22.3582 19.4646 23.4475 18.9549C23.4475 18.9549 21.7522 19.4547 20.9258 18.8169C20.9258 18.8169 20.6084 18.5591 20.6059 18.2454C20.603 17.9316 20.6135 16.7778 20.7017 16.7778C20.705 16.7778 20.7086 16.7808 20.7123 16.787H20.7126C21.0783 17.1176 21.648 17.4548 22.4504 17.4548H23.5023C23.7601 17.4548 23.91 17.3695 23.9917 17.2681C23.9946 17.2644 23.9972 17.2608 24.0001 17.2571C24.0023 17.2608 24.0052 17.2641 24.0081 17.2677C24.0894 17.3695 24.2394 17.4548 24.4975 17.4548H25.5494C26.3518 17.4548 26.9215 17.1176 27.2872 16.7874H27.2875C27.2912 16.7808 27.2948 16.7778 27.2981 16.7778C27.3863 16.7778 27.3968 17.9316 27.3939 18.2454V18.2454Z" fill="white"/>
<path d="M24.0004 17.2574C23.9974 17.2612 23.9947 17.265 23.9917 17.2688V17.2461C23.9917 17.2461 23.9925 17.2472 23.9928 17.2476C23.9951 17.251 23.9978 17.254 24.0004 17.2574Z" fill="white"/>
<path d="M23.9933 15.4298V15.4359C23.9933 15.4359 23.9914 15.437 23.9902 15.4374V15.4287C23.9902 15.4287 23.9914 15.4291 23.9933 15.4298Z" fill="white"/>
<path d="M23.9902 16.8408C23.9902 16.8408 23.9921 16.8416 23.9933 16.8423V16.8454C23.9933 16.8454 23.9914 16.8457 23.9902 16.8457V16.8408Z" fill="white"/>
<path d="M35.0922 5.48721C35.0922 5.89876 35.0061 6.2898 34.8507 6.64314C34.8325 6.68341 34.8137 6.72369 34.7948 6.7636C34.7904 6.77239 34.7864 6.78081 34.7821 6.78923C33.4266 9.58953 29.7383 11.7527 27.9225 15.7302L27.9109 15.7214C27.9127 15.6178 27.9134 15.5109 27.9134 15.3985L27.9116 15.1056C27.9116 14.6446 27.4265 14.3905 27.3139 14.2645C27.3096 14.259 27.3052 14.2535 27.3009 14.2484C27.0275 13.909 27.1796 13.6483 27.2642 13.5458L27.2733 13.5366C27.2853 13.5242 27.2972 13.5117 27.3089 13.4989H27.3092V13.4982C27.5347 13.2539 27.6872 12.9585 27.7566 12.6385C27.9403 11.8681 27.4654 11.2064 27.4403 11.172C27.9581 11.7059 28.0616 12.2489 28.0772 12.5231C28.7199 12.2606 29.6018 11.7048 30.0804 10.5525C30.3309 9.94982 30.9246 9.12636 31.6261 8.27616C32.2382 7.53398 32.9325 6.77092 33.5523 6.11625C33.9045 5.74351 34.2327 5.40592 34.5079 5.12728C34.5148 5.11996 34.5221 5.11264 34.5294 5.10531C34.5363 5.09836 34.5432 5.09104 34.5501 5.08408C34.96 4.64983 34.7621 4.20752 34.7621 4.20752C34.7621 4.20752 34.8703 4.29466 34.972 4.66118C35.05 4.92261 35.0922 5.20015 35.0922 5.48721V5.48721Z" fill="white"/>
<path d="M2.22592 5.11243C2.29854 5.22557 2.37261 5.33431 2.44741 5.4372C2.56433 5.59721 2.68342 5.7422 2.80179 5.86559C3.50801 6.60228 5.88773 6.47486 10.1748 7.86623C10.3233 7.91456 10.4743 7.96472 10.6279 8.01671C10.6323 7.99145 10.6366 7.96582 10.6417 7.94055C10.6661 7.81753 10.6995 7.69597 10.743 7.57734C10.7764 7.48616 10.8156 7.39682 10.8614 7.31005C10.8879 7.26025 10.9162 7.21082 10.9471 7.16286C9.29828 6.19439 7.97443 5.62943 6.99989 5.21312C5.94401 4.76239 5.30678 4.49034 5.02901 4.03998C4.91318 3.85178 4.80171 3.62037 4.70114 3.36663C3.06757 2.70317 1.8995 2.33043 1.48194 2.25061C0.849793 2.12941 1.4351 3.87631 2.22592 5.11243V5.11243Z" fill="white"/>
<path d="M7.50593 18.5021C7.64863 18.4911 7.78624 18.4754 7.91478 18.4534C8.007 18.438 8.09451 18.4197 8.17584 18.3985C8.84829 18.2227 9.50259 16.9679 11.2295 15.0958C11.1935 15.0607 11.1583 15.0248 11.1245 14.9882C11.0566 14.9164 10.9927 14.8428 10.9332 14.7677C10.9049 14.7322 10.8776 14.6967 10.8511 14.6605C10.8497 14.6586 10.8486 14.6568 10.8471 14.655C10.7458 14.5092 10.7702 14.3804 10.7938 14.3166C10.8591 14.1391 11.0287 14.0955 11.1194 14.0724C11.1314 14.0691 11.1474 14.0651 11.1583 14.0618C11.1772 14.0486 11.1975 14.038 11.2189 14.0296C11.2563 14.0153 11.2941 14.0014 11.3322 13.9878C11.1866 13.8626 11.0479 13.7246 10.919 13.5781C9.66271 14.469 8.77785 15.2668 8.10431 15.8746C7.26702 16.63 6.76159 17.0858 6.21658 17.1232C6.14542 17.1279 6.06953 17.1305 5.99074 17.1305C5.93155 17.1305 5.86838 17.1287 5.80193 17.1257C5.40979 17.4875 5.14691 17.7573 5.03108 17.9023C4.70248 18.3135 6.29247 18.5944 7.50593 18.5021V18.5021Z" fill="white"/>
<path d="M10.2295 19.5396C10.247 19.5326 10.2637 19.5256 10.2804 19.5187C10.426 19.4564 10.5574 19.3382 10.6907 19.1675H10.691C11.0559 18.6989 11.4325 17.8351 12.142 16.6495C12.1049 16.6188 12.0686 16.5877 12.0334 16.5562C12.0316 16.5547 12.0301 16.5533 12.0283 16.5518C12.0138 16.5382 12.0011 16.5247 11.9898 16.5111C11.8958 16.3995 11.8943 16.2867 11.903 16.2255C11.931 16.0344 12.0948 15.9531 12.183 15.9096C12.1968 15.9026 12.216 15.8931 12.228 15.8865C12.2414 15.8718 12.2563 15.8583 12.2727 15.8466C12.2088 15.814 12.146 15.7796 12.0835 15.7433C11.8566 15.6126 11.6409 15.4603 11.4445 15.293C10.7655 16.0286 10.2531 16.669 9.83921 17.1867C9.15841 18.038 8.74739 18.5517 8.24886 18.682C8.05932 18.7318 7.8549 18.7633 7.65738 18.7827C7.3905 19.132 7.21549 19.3902 7.14033 19.5297C6.86946 20.0328 9.1497 19.9716 10.2295 19.5396V19.5396Z" fill="white"/>
<path d="M3.42882 14.9522C3.56207 14.9877 3.69388 15.0184 3.82169 15.0433C4.00614 15.0792 4.18297 15.1034 4.34454 15.1118C5.27842 15.1612 6.80778 13.5571 10.5985 11.7809C10.5709 11.7396 10.5437 11.6971 10.5168 11.6528C10.4674 11.5715 10.4195 11.4855 10.3734 11.3947C10.267 11.1856 10.1715 10.9538 10.096 10.71C9.95944 10.7565 9.82291 10.8066 9.68639 10.8604C9.67949 10.8634 9.67259 10.8656 9.66569 10.8678C9.55023 10.9037 9.43113 10.9421 9.31168 10.982C8.79935 11.1541 8.27395 11.358 7.76598 11.5554C7.20936 11.7714 6.63385 11.9951 6.06561 12.1808C6.02022 12.198 5.9752 12.2156 5.93054 12.2331C5.86918 12.2569 5.80854 12.2804 5.74754 12.3038C5.22142 12.5052 4.67568 12.6857 4.07912 12.8556C3.9731 12.8885 3.84856 12.9259 3.72765 12.9544C3.58713 12.9878 3.46259 13.0075 3.34712 13.0141C3.34204 13.0141 3.33659 13.0149 3.33115 13.0149H3.31444C3.20225 13.0149 3.08824 13.0101 2.97604 13.001C2.7836 12.9991 2.58789 12.9797 2.39327 12.9442C1.8145 13.2027 1.41619 13.4063 1.2321 13.5231C0.743009 13.8332 2.15399 14.612 3.42882 14.9522V14.9522Z" fill="white"/>
<path d="M5.69636 16.8266H5.69672C5.84777 16.8372 5.99155 16.8402 6.12372 16.8347C6.14841 16.8336 6.17274 16.8321 6.1967 16.8306C7.02783 16.7739 8.01726 15.2815 10.7332 13.3511C10.7278 13.3442 10.7223 13.3372 10.7172 13.3299C10.658 13.2515 10.6018 13.1714 10.5495 13.0901C10.4268 12.9008 10.3233 12.7052 10.2445 12.5116C10.2438 12.5094 10.243 12.5075 10.2419 12.5053C10.2089 12.4186 10.2085 12.3442 10.2209 12.2856C8.616 13.0718 7.45119 13.8103 6.57105 14.3683C5.55076 15.0153 4.93495 15.4056 4.38668 15.4056C4.36743 15.4056 4.34782 15.4052 4.32858 15.4041C4.07877 15.3906 3.78975 15.3437 3.48184 15.2687C3.21207 15.4525 3.02217 15.596 2.9205 15.6879C2.49241 16.0742 4.3707 16.7347 5.69636 16.8266V16.8266Z" fill="white"/>
<path d="M15.1997 21.2291C15.2262 21.6483 15.2676 21.935 15.3061 22.0628C15.402 22.381 16.4607 21.4561 17.1306 20.6198C17.2036 20.529 17.2719 20.4389 17.334 20.3518C17.4193 20.2321 17.4926 20.1174 17.5493 20.0124C17.5544 20.0028 17.5595 19.9933 17.5638 19.9834C17.5685 19.9736 17.5729 19.964 17.5769 19.9541C17.5812 19.9435 17.5852 19.9333 17.5885 19.9227C17.591 19.9164 17.5932 19.9098 17.595 19.9036C17.5969 19.8981 17.5983 19.893 17.5998 19.8875C17.5693 19.8868 17.5391 19.8853 17.5094 19.8835C17.5072 19.8831 17.505 19.8831 17.5028 19.8827C17.3351 19.8681 17.2552 19.7696 17.2221 19.7125C17.1771 19.6341 17.172 19.5565 17.1826 19.4888C16.9589 19.5254 16.7298 19.5437 16.4999 19.5437C16.2883 19.5437 16.0835 19.5283 15.887 19.4972C15.8863 19.5041 15.8856 19.5111 15.8845 19.5181C15.8801 19.5583 15.8751 19.599 15.87 19.6396C15.8642 19.6876 15.858 19.7356 15.8515 19.7843C15.8417 19.8732 15.8293 19.9772 15.8108 20.0768C15.7883 20.1962 15.7592 20.2994 15.7211 20.3928C15.7189 20.3983 15.7168 20.4034 15.7142 20.4089C15.6714 20.4979 15.6238 20.5865 15.5722 20.6729C15.4789 20.8596 15.3526 21.0486 15.1997 21.2291V21.2291Z" fill="white"/>
<path d="M12.709 22.0417C13.5285 22.1673 14.3633 21.7239 14.9025 21.1308C15.0063 21.0161 15.0996 20.8961 15.1792 20.7734C15.2314 20.6936 15.2779 20.6127 15.3179 20.5314C15.3672 20.4494 15.4123 20.3662 15.4526 20.2817C15.4838 20.2055 15.5074 20.1191 15.5256 20.0228C15.5412 19.9393 15.5524 19.8481 15.563 19.7489C15.5768 19.6457 15.5895 19.5428 15.6011 19.4399C15.5506 19.4278 15.5009 19.4143 15.4518 19.3996L15.4453 19.3974C15.2787 19.3436 15.2206 19.2268 15.2006 19.162C15.2042 19.084 15.2086 19.0049 15.2137 18.9243C15.2409 18.8573 15.2823 18.8035 15.311 18.7658C15.3193 18.7552 15.3306 18.7405 15.3375 18.7307C15.3444 18.7087 15.3538 18.6878 15.3654 18.668C15.3658 18.6673 15.3665 18.6662 15.3669 18.6655C15.3215 18.664 15.2765 18.6618 15.2311 18.6589C15.1345 18.6527 15.0379 18.6435 14.9417 18.6311C14.5797 18.5853 14.2246 18.4963 13.9032 18.3711C13.8147 18.7881 13.7006 19.2092 13.5543 19.6581C13.5296 19.7423 13.4991 19.8404 13.4632 19.9338C13.4203 20.0451 13.3731 20.14 13.3194 20.2238C13.3161 20.2286 13.3129 20.2337 13.3092 20.2385C13.2519 20.3168 13.1894 20.3941 13.1233 20.468C13.0162 20.6086 12.8913 20.7412 12.753 20.8624C12.7377 20.9631 12.7236 21.0641 12.7105 21.1652C12.6989 21.2523 12.6883 21.3398 12.6782 21.4277C12.6985 21.6547 12.5217 22.0051 12.709 22.0417V22.0417Z" fill="white"/>
<path d="M10.0686 21.2778C10.8943 21.5561 11.846 21.2313 12.4828 20.7099C12.6161 20.6008 12.7352 20.4833 12.8365 20.3606C12.8586 20.3342 12.8797 20.3079 12.8997 20.2811C12.9625 20.2108 13.0213 20.1387 13.0758 20.0644C13.1197 19.9963 13.1578 19.9176 13.1923 19.8279C13.2225 19.7502 13.2497 19.6642 13.2773 19.5708C13.4171 19.1417 13.5351 18.7122 13.6259 18.2787C13.6277 18.2699 13.6295 18.2611 13.6313 18.252C13.603 18.2384 13.5754 18.2245 13.5482 18.2102C13.546 18.2091 13.5442 18.208 13.542 18.2073C13.4705 18.1677 13.4244 18.1194 13.3949 18.0725C13.359 18.0162 13.347 17.9612 13.343 17.9239C13.3238 17.7331 13.4607 17.616 13.534 17.553C13.5398 17.5479 13.5467 17.542 13.5532 17.5365C13.5638 17.5014 13.5747 17.4658 13.5856 17.4303C13.4933 17.4003 13.4018 17.3673 13.3122 17.3315C12.9741 17.1974 12.656 17.0265 12.375 16.8276C12.0718 17.3355 11.8304 17.7833 11.6238 18.1666C11.1674 19.0135 10.8834 19.5401 10.4579 19.7583C10.3736 19.9831 10.2956 20.2068 10.2226 20.4335C10.1961 20.5155 10.1703 20.5979 10.1452 20.681C10.1256 20.9029 9.89072 21.2093 10.0686 21.2778V21.2778Z" fill="white"/>
<path d="M1.24363 7.53079C1.37507 7.62782 1.51232 7.71423 1.6532 7.78819C1.75087 7.83945 1.85 7.88522 1.94985 7.92404C2.04861 7.97163 2.14883 8.01484 2.25086 8.05329C2.34308 8.08258 2.44765 8.10418 2.56493 8.11956C2.66624 8.13311 2.77734 8.14226 2.89825 8.14995C3.45379 8.19901 4.00605 8.22647 4.55796 8.22611C4.66834 8.22611 4.77872 8.22501 4.89092 8.22464C5.97802 8.2792 7.1156 8.21769 8.20815 8.26272C8.32978 8.26785 8.45069 8.27407 8.57051 8.28213C9.26439 8.27407 9.93067 8.3506 10.5915 8.45825C10.5919 8.41065 10.593 8.36268 10.5959 8.31472C10.431 8.25869 10.2691 8.20487 10.1097 8.15288C9.46881 7.94454 8.87116 7.77025 8.3149 7.62196C7.04225 7.28291 5.98855 7.0808 5.14254 6.91823C3.81616 6.66339 3.01517 6.5096 2.59325 6.06949C2.41752 5.88605 2.23561 5.65318 2.05769 5.38736C1.78791 5.35441 1.51995 5.32658 1.2498 5.30351C1.14378 5.29436 1.03739 5.28594 0.930282 5.27861C0.652514 5.30534 0.229509 5.13618 0.179765 5.32694C0.00221205 6.16542 0.52761 7.00281 1.24363 7.53079V7.53079Z" fill="white"/>
<path d="M-0.000173513 8.0721C-0.017602 8.95086 0.691158 9.68792 1.5201 10.0614C1.6795 10.1332 1.84326 10.1917 2.00701 10.2349C2.07999 10.2543 2.15334 10.2708 2.22596 10.284C2.33162 10.3122 2.43837 10.3353 2.54548 10.3536C2.64206 10.3646 2.74845 10.3657 2.86646 10.3587C2.96849 10.3525 3.07923 10.34 3.19941 10.3246C3.75422 10.2668 4.30177 10.1881 4.84351 10.0826C4.95171 10.0614 5.05991 10.0391 5.17029 10.0174C6.24759 9.8633 7.35322 9.58539 8.43451 9.42099C8.5547 9.40269 8.67452 9.38584 8.79397 9.37083C9.42648 9.24048 10.0492 9.18593 10.6719 9.16249C10.6668 9.14235 10.6625 9.12185 10.6581 9.10135C10.6378 9.00651 10.6214 8.90912 10.6105 8.80989C10.6084 8.79232 10.6065 8.77474 10.6047 8.75717C9.96495 8.65062 9.33027 8.57409 8.66762 8.57409C8.63639 8.57409 8.6048 8.57446 8.57321 8.57482H8.56995C8.56377 8.57482 8.5576 8.57482 8.55106 8.57409C8.43778 8.56677 8.31796 8.56018 8.19596 8.55505C7.90113 8.54297 7.58342 8.53748 7.16513 8.53748C6.98322 8.53748 6.80095 8.53858 6.61868 8.53967C6.43531 8.54041 6.25195 8.54151 6.06895 8.54151C5.74289 8.54151 5.31371 8.53858 4.88345 8.51734C4.83733 8.51771 4.79158 8.51771 4.74583 8.51807C4.68302 8.51807 4.6202 8.5188 4.55739 8.5188H4.54758C4.01093 8.5188 3.46375 8.49391 2.87553 8.44191C2.72558 8.43203 2.62137 8.42251 2.52624 8.41006C2.38826 8.39175 2.26953 8.36612 2.16314 8.33243C2.15806 8.33097 2.15334 8.32914 2.14826 8.32731C2.04223 8.2874 1.93657 8.242 1.83382 8.19293C1.6018 8.10139 1.3745 7.97947 1.16137 7.83301C1.12288 7.83667 1.08475 7.8407 1.04626 7.84472C0.940241 7.85608 0.834218 7.86816 0.727831 7.88134C0.46023 7.96079 0.0128979 7.87548 -0.000173513 8.0721V8.0721Z" fill="white"/>
<path d="M0.310737 10.8363C0.454885 11.7872 1.39348 12.4335 2.36186 12.6381C2.55502 12.6791 2.74928 12.7022 2.93881 12.707C2.95552 12.7073 2.97258 12.7077 2.98928 12.7077C3.10257 12.7176 3.21658 12.722 3.32987 12.7216C3.43081 12.7158 3.54083 12.6975 3.66065 12.6689C3.76449 12.6444 3.87632 12.6118 3.99687 12.5744C4.55713 12.4152 5.10613 12.2357 5.64423 12.0296C5.75207 11.9886 5.85955 11.9461 5.96884 11.904C7.04941 11.5518 8.13688 11.0674 9.21962 10.7038C9.34017 10.6635 9.46036 10.6247 9.58018 10.5873C9.72614 10.5299 9.87211 10.4764 10.0184 10.427C10.013 10.405 10.0079 10.383 10.0035 10.3607C9.98249 10.2655 9.96506 10.1696 9.95126 10.0725C9.92984 9.92315 9.91785 9.77266 9.91604 9.62217V9.61485C9.91604 9.57347 9.92221 9.53539 9.93238 9.50098C9.574 9.5332 9.21563 9.58226 8.85254 9.65732C8.84527 9.65879 8.83801 9.66025 8.83075 9.66098C8.71783 9.67563 8.5991 9.69211 8.47818 9.71041C7.96695 9.78804 7.43792 9.89422 6.92668 9.99638C6.3657 10.1088 5.78584 10.2249 5.21905 10.3061C5.17366 10.3149 5.129 10.3241 5.08398 10.3332C5.02225 10.3457 4.96052 10.3578 4.89916 10.3698C4.36904 10.4735 3.82404 10.5537 3.23292 10.6155C3.12726 10.6291 3.00345 10.6437 2.88435 10.6507C2.82952 10.6543 2.77651 10.6558 2.72677 10.6558C2.65124 10.6558 2.57935 10.6521 2.51327 10.6445C2.50782 10.6437 2.50274 10.643 2.49765 10.6423C2.38582 10.6232 2.27326 10.5987 2.16361 10.5701C1.93994 10.5284 1.71519 10.461 1.49769 10.3713C1.44722 10.3856 1.39712 10.3999 1.34665 10.4142C1.23953 10.4449 1.13278 10.4764 1.02567 10.509C0.764242 10.639 0.289677 10.6316 0.310737 10.8363V10.8363Z" fill="white"/>
<path d="M17.4668 20.663C17.4773 20.6865 17.4879 20.7095 17.4987 20.733C17.5242 20.7879 17.5503 20.8428 17.5772 20.8974C17.6796 21.0105 17.6876 21.3115 17.8364 21.2177C17.8568 21.2042 17.8767 21.1903 17.8967 21.176C17.9083 21.1676 17.9196 21.1592 17.9308 21.1507C17.9414 21.1431 17.9519 21.135 17.9621 21.1269C17.9722 21.1193 17.9824 21.1112 17.9926 21.1028C18.0042 21.094 18.0158 21.0845 18.0271 21.0749C18.034 21.0695 18.0408 21.0636 18.0477 21.0574C18.0674 21.0413 18.0866 21.0241 18.1058 21.0068C18.1233 20.9911 18.1407 20.9754 18.1578 20.9592C18.1763 20.942 18.1941 20.9245 18.2119 20.9065C18.23 20.8889 18.2475 20.8706 18.2649 20.8523C18.2997 20.8157 18.3331 20.7784 18.3662 20.7399C18.3916 20.7099 18.4167 20.6795 18.441 20.6484C18.4533 20.633 18.4653 20.6176 18.4773 20.6019C18.4915 20.5832 18.5056 20.5642 18.5194 20.5451C18.5278 20.5338 18.5357 20.5224 18.5437 20.5111C18.5782 20.462 18.6116 20.4122 18.6432 20.3617C18.653 20.3456 18.6632 20.3295 18.673 20.3134C18.6832 20.2965 18.693 20.2797 18.7028 20.2628C18.7126 20.246 18.7224 20.2291 18.7318 20.2123C18.7529 20.175 18.7728 20.1372 18.7921 20.0995C18.8026 20.079 18.8128 20.0585 18.823 20.0376C18.8415 19.9999 18.8589 19.9622 18.8756 19.9245C18.8807 19.9132 18.8858 19.9018 18.8905 19.8905C18.8996 19.8692 18.9086 19.8476 18.917 19.8264C18.9235 19.8114 18.9293 19.7967 18.9348 19.7817C18.942 19.7634 18.9493 19.7451 18.9558 19.7264C18.9638 19.7059 18.9711 19.685 18.9784 19.6645C18.9834 19.6492 18.9885 19.6342 18.9936 19.6191C18.6668 19.7542 18.2881 19.8538 17.9011 19.8813C17.9 19.8861 17.8992 19.8905 17.8982 19.8952C17.8967 19.904 17.8945 19.9128 17.8923 19.9216C17.888 19.9414 17.8825 19.9611 17.8767 19.9805C17.8677 20.0098 17.8571 20.0387 17.8451 20.0673C17.8393 20.0816 17.8328 20.0962 17.8259 20.1101C17.8237 20.1149 17.8215 20.1197 17.819 20.1244C17.8143 20.1339 17.8096 20.1431 17.8045 20.1526C17.7177 20.3137 17.6001 20.488 17.4668 20.663V20.663Z" fill="white"/>
<path d="M7.53022 1.98628C7.53566 2.11114 7.54438 2.23563 7.55636 2.35792C7.58904 2.69368 7.64641 3.0126 7.73028 3.27256C7.93325 3.9016 9.06647 4.51307 10.8166 5.95753C11.2007 6.27498 11.6147 6.63234 12.0547 7.03876C12.0566 7.03986 12.058 7.04096 12.0598 7.04206C12.0704 6.93698 12.0863 6.83189 12.1081 6.72827C12.151 6.5225 12.2156 6.32148 12.2998 6.13401C12.335 6.05492 12.3739 5.9784 12.416 5.9048C12.4236 5.89162 12.432 5.87917 12.4418 5.86746C12.4883 5.80887 12.5558 5.77079 12.6288 5.76091C12.6212 5.67047 12.6172 5.5793 12.6172 5.48739C12.6172 5.38744 12.6219 5.28784 12.6313 5.18898C10.464 2.32863 8.55705 0.422097 8.05598 0.0445984C7.67945 -0.239167 7.48156 0.881247 7.53022 1.98628V1.98628Z" fill="white"/>
<path d="M4.92722 3.14381C4.9766 3.27636 5.02925 3.40414 5.0848 3.52387C5.14544 3.65569 5.20934 3.77761 5.27615 3.88563C5.73583 4.63111 7.77896 4.95039 11.1663 6.95358C11.208 6.93674 11.2527 6.92795 11.2984 6.92795C11.4597 6.92795 11.5791 7.03048 11.675 7.11322C11.7044 7.13849 11.7541 7.18133 11.7734 7.19048C11.7861 7.19561 11.7981 7.2022 11.8097 7.20952C11.3994 6.83239 11.0123 6.49846 10.6514 6.19968C10.1696 5.80168 9.73422 5.46629 9.35152 5.17667C9.26111 5.10783 9.17361 5.04192 9.08901 4.97821C8.1711 4.28583 7.61702 3.86769 7.45435 3.3635C7.34942 3.03873 7.27971 2.60301 7.24921 2.14679C6.03683 1.32076 5.1527 0.812178 4.82591 0.672675C4.3292 0.461041 4.49913 1.98642 4.92722 3.14381V3.14381Z" fill="white"/>
<path d="M19.084 20.1664C19.104 20.5783 19.6243 20.4545 20.0981 20.2334C20.5723 20.0122 20.9612 20.3154 20.9612 20.3154C20.9379 20.2436 20.7902 19.7585 20.6947 19.1778C20.6856 19.1221 20.69 19.0665 20.7099 19.0159C20.605 18.9215 20.3189 18.6289 20.3156 18.2485C20.3149 18.1785 20.3149 18.0533 20.3167 17.9028C20.3156 17.9076 20.3145 17.912 20.3131 17.9167C20.3109 17.9299 20.3087 17.9427 20.3065 17.9556C20.3029 17.9775 20.2993 17.9995 20.2956 18.02C20.2597 18.2228 20.2027 18.4301 20.1221 18.6527C20.1068 18.6996 20.0894 18.7494 20.0669 18.7984C20.0367 18.8636 19.9997 18.9233 19.9565 18.9756C19.9511 18.9819 19.9452 18.9881 19.9394 18.9943C19.8984 19.0361 19.8556 19.0763 19.8124 19.1133C19.6795 19.2448 19.4885 19.3784 19.2583 19.497C19.2884 19.5637 19.2931 19.6413 19.2688 19.7134L19.2543 19.757C19.2535 19.7588 19.2488 19.772 19.2488 19.772C19.2423 19.7907 19.2354 19.8097 19.2281 19.8284C19.2212 19.8482 19.214 19.8672 19.2063 19.8863C19.1998 19.9038 19.1929 19.921 19.1857 19.9386C19.1766 19.961 19.1671 19.9837 19.1584 20.0038C19.1526 20.0173 19.1468 20.0313 19.141 20.0437C19.1217 20.0876 19.1029 20.1279 19.084 20.1664V20.1664Z" fill="white"/>
<path d="M19.9842 16.2737C19.5779 16.3799 19.0057 16.4132 18.5082 16.2931C18.4011 16.2653 18.5326 16.1935 18.5576 16.1316C18.6636 16.1254 18.7602 16.1129 18.8477 16.0939C18.8978 16.0858 18.9465 16.0763 18.9922 16.0653C18.9995 16.0635 19.0075 16.0617 19.0148 16.0595C19.0758 16.0404 19.1349 16.0137 19.1905 15.9797C19.2319 15.954 19.2678 15.9269 19.2951 15.9053C19.4407 15.7981 19.563 15.6908 19.6691 15.5784C19.672 15.5754 19.6749 15.5721 19.6778 15.5688C19.6778 15.5908 19.8677 15.95 19.9842 16.2737V16.2737Z" fill="white"/>
<path d="M19.1293 14.5723C19.2673 14.7974 19.3994 15.0289 19.5247 15.2661C19.5044 15.2852 19.4837 15.3035 19.4623 15.3218C19.4427 15.343 19.4241 15.3639 19.4049 15.3844C19.3083 15.4873 19.1957 15.5839 19.0705 15.6758C19.0447 15.6963 19.0204 15.7146 18.995 15.7304C18.9655 15.7483 18.9347 15.7626 18.9024 15.7729C18.8813 15.7776 18.8602 15.782 18.8381 15.7864H18.8377C18.8174 15.7901 18.7974 15.7937 18.7764 15.797C18.6645 15.8223 18.5247 15.8344 18.3675 15.8315C17.9507 15.8249 17.4173 15.7157 16.995 15.4876C16.8959 15.4312 17.0658 15.3943 17.0992 15.3353C17.1221 15.3177 17.1457 15.2998 17.1693 15.2822C17.1802 15.2742 17.1907 15.2661 17.202 15.2581H17.2024C17.32 15.2804 17.4293 15.2917 17.527 15.2936C17.5724 15.2965 17.6163 15.298 17.6588 15.298H17.6755C17.6831 15.298 17.6904 15.2976 17.6983 15.2972C17.7622 15.2925 17.8276 15.28 17.8919 15.2592C17.9394 15.2438 17.9812 15.2255 18.0139 15.2105C18.1856 15.1394 18.3345 15.0629 18.4685 14.978C18.4841 14.9681 18.4993 14.9582 18.5149 14.9479L18.5287 14.9388C18.6791 14.8623 18.8123 14.7758 18.9409 14.692C19.0051 14.6506 19.0672 14.61 19.1293 14.5723V14.5723Z" fill="white"/>
<path d="M18.9625 14.3064C18.8205 14.3906 18.6869 14.484 18.5464 14.5697C18.5456 14.5697 18.5456 14.5701 18.5453 14.5704C18.4799 14.6107 18.412 14.6488 18.3423 14.6843C18.3176 14.7 18.2937 14.7161 18.2686 14.7315C18.1459 14.8099 18.0097 14.8776 17.8623 14.9388C17.8314 14.9527 17.8024 14.9651 17.7737 14.9746C17.7399 14.9856 17.7065 14.9926 17.6717 14.9948C17.6568 14.9948 17.6419 14.9948 17.6263 14.9941C17.5994 14.9937 17.5715 14.9926 17.5428 14.9904C17.424 14.99 17.2795 14.9688 17.1234 14.9289C16.7251 14.8275 16.2473 14.6041 15.9078 14.2932C15.8377 14.2262 15.964 14.2193 16.0294 14.1852C16.106 14.2156 16.179 14.2394 16.248 14.2559C16.2959 14.2709 16.3438 14.2837 16.3903 14.294C16.3976 14.2954 16.4052 14.2969 16.4128 14.298C16.4535 14.3046 16.4952 14.3079 16.537 14.3079C16.561 14.3079 16.586 14.3068 16.6103 14.305C16.6601 14.3002 16.7066 14.2921 16.7425 14.2848C16.9295 14.2544 17.0951 14.2138 17.249 14.1614C17.2668 14.1556 17.2842 14.1493 17.302 14.1431L17.3191 14.1369C17.4861 14.097 17.6394 14.0428 17.7879 13.9904C17.9189 13.9447 18.0431 13.9007 18.168 13.8696C18.1953 13.8627 18.2228 13.8564 18.2508 13.8506C18.2693 13.8469 18.2875 13.8418 18.3053 13.8356C18.3921 13.8037 18.493 13.785 18.6023 13.7744C18.7257 13.9483 18.8459 14.1256 18.9625 14.3064Z" fill="white"/>
<path d="M18.4001 13.4957C18.3216 13.51 18.2461 13.5291 18.1742 13.5554C18.1408 13.562 18.1074 13.5697 18.0744 13.5781C17.8412 13.6363 17.6248 13.7282 17.3975 13.7978C17.3968 13.7978 17.3965 13.7982 17.3961 13.7982C17.3355 13.8176 17.2741 13.8348 17.2113 13.8494C17.1826 13.8593 17.1546 13.8696 17.1263 13.8791C16.9851 13.9271 16.8333 13.9626 16.6735 13.9886C16.6398 13.9952 16.6082 14.0007 16.5773 14.0032C16.5501 14.0054 16.5236 14.0054 16.4974 14.0032H16.4967C16.4887 14.0025 16.4815 14.0014 16.4735 14.0003C16.4335 13.9915 16.3925 13.9801 16.35 13.967C16.2523 13.9443 16.1409 13.9025 16.024 13.845C15.6525 13.6645 15.2204 13.3262 14.967 12.9267C14.9118 12.8348 15.0803 12.8755 15.142 12.8392C15.1721 12.8334 15.2023 12.8279 15.2328 12.8231C15.239 12.822 15.2451 12.8209 15.2513 12.8198C15.3791 12.9293 15.5073 13.0168 15.6256 13.0765C15.6678 13.101 15.7106 13.1234 15.7527 13.1435C15.7596 13.1464 15.7665 13.1497 15.7731 13.1527C15.8322 13.1761 15.8962 13.1926 15.9637 13.2014C16.0134 13.2083 16.0603 13.2101 16.0969 13.2109C16.1681 13.2153 16.2375 13.2171 16.3043 13.2171C16.4147 13.2171 16.5218 13.2112 16.6223 13.2006C16.6412 13.1984 16.6601 13.1962 16.679 13.194L16.6968 13.1918C16.8703 13.1889 17.0334 13.1695 17.1917 13.1512C17.3318 13.1347 17.464 13.1193 17.594 13.1157C17.611 13.1153 17.6281 13.1149 17.6459 13.1149C17.6568 13.1149 17.6844 13.1149 17.6869 13.1149C17.7033 13.1149 17.72 13.1138 17.736 13.112C17.7737 13.1073 17.8144 13.1043 17.8572 13.1043C17.9396 13.1043 18.0275 13.1131 18.1194 13.1274C18.2141 13.2486 18.3078 13.3709 18.4001 13.4954V13.4957Z" fill="white"/>
<path d="M17.858 12.8018C17.7999 12.8018 17.7429 12.8051 17.6866 12.8124C17.6518 12.8117 17.6176 12.8124 17.5835 12.8128C17.4786 12.8154 17.3744 12.8249 17.2713 12.8362C17.0719 12.8582 16.8744 12.8875 16.6714 12.8893C16.6409 12.8926 16.6108 12.8963 16.581 12.8999C16.4307 12.9157 16.2738 12.9175 16.1119 12.908C16.0774 12.9073 16.0447 12.9058 16.0146 12.9018C15.979 12.897 15.946 12.889 15.9144 12.8765C15.8777 12.8589 15.841 12.8395 15.8036 12.8172C15.7764 12.804 15.7484 12.7883 15.7197 12.7711C15.6094 12.7051 15.4903 12.6103 15.3737 12.4961C15.1127 12.2394 14.8639 11.882 14.7496 11.51C14.7212 11.409 14.8737 11.4851 14.9435 11.4628C14.974 11.4635 15.0052 11.465 15.036 11.4665C15.1076 11.4705 15.1798 11.4764 15.2532 11.4848C15.3102 11.5628 15.369 11.6309 15.4282 11.6873C15.4605 11.7217 15.4932 11.7546 15.5266 11.785C15.5324 11.7901 15.5378 11.7949 15.5433 11.7997C15.5919 11.8377 15.6475 11.8707 15.7078 11.8971C15.7528 11.9161 15.7967 11.9307 15.8319 11.9414C16.0091 12.0018 16.1747 12.0442 16.3374 12.0713C16.3544 12.0743 16.4104 12.0831 16.4104 12.0831C16.5767 12.1263 16.7393 12.1512 16.8965 12.1753C17.0356 12.1969 17.167 12.2174 17.2923 12.2489C17.3195 12.2555 17.3471 12.2632 17.3744 12.2713C17.3885 12.2753 17.4034 12.279 17.4187 12.2815C17.5668 12.4514 17.7135 12.625 17.858 12.8018V12.8018Z" fill="white"/>
<path d="M17.0776 11.8962C16.9879 11.8816 16.8979 11.8684 16.8082 11.8538C16.7011 11.8358 16.5943 11.8153 16.489 11.7871C16.4593 11.7824 16.4291 11.7783 16.3997 11.7732C16.2508 11.7487 16.1009 11.7084 15.9491 11.656C15.9168 11.6465 15.8863 11.6366 15.8583 11.6246C15.8264 11.6106 15.7977 11.5938 15.7716 11.5737C15.7712 11.5733 15.7701 11.5726 15.7697 11.5722C15.7418 11.5462 15.7142 11.518 15.6862 11.488C15.6103 11.4177 15.5337 11.3207 15.4633 11.205C15.2625 10.8787 15.1053 10.4049 15.1252 9.96041C15.13 9.89341 15.1812 9.91684 15.2367 9.94101C15.4426 10.1603 15.6532 10.3808 15.866 10.6034C16.261 11.0164 16.6706 11.4451 17.0776 11.8962V11.8962Z" fill="white"/>
<path d="M20.3169 16.48C20.3122 16.5034 20.3078 16.5268 20.3042 16.5503C20.2908 16.5928 20.278 16.6356 20.2668 16.6788C20.1637 17.0662 20.139 17.466 20.0293 17.8516C20.0224 17.8911 20.0163 17.9303 20.0094 17.9691C19.9749 18.1639 19.9193 18.3598 19.847 18.5571C19.8333 18.5996 19.8195 18.6395 19.8028 18.6754C19.7835 18.7171 19.7603 18.7549 19.7327 18.7885C19.6967 18.8252 19.6579 18.8618 19.6154 18.8977C19.245 19.2715 18.3489 19.6446 17.528 19.5915C17.4307 19.5827 17.4735 19.5073 17.5087 19.4297C17.7977 19.3575 18.0559 19.2558 18.2549 19.1316C18.3173 19.0987 18.3769 19.0639 18.4321 19.0276C18.4375 19.024 18.4433 19.0203 18.4488 19.0159C18.5101 18.9691 18.5646 18.9145 18.6151 18.8486C18.6543 18.797 18.6866 18.7446 18.7135 18.6988C18.8623 18.4674 18.98 18.2474 19.0726 18.0259C19.0835 18.0006 19.0933 17.9753 19.1038 17.9501C19.1092 17.9365 19.115 17.9226 19.1205 17.9094C19.2421 17.6839 19.3369 17.4514 19.4284 17.2266C19.5126 17.0193 19.5922 16.8238 19.6898 16.6367C19.6902 16.6363 19.6902 16.6356 19.6906 16.6352C19.9244 16.6034 20.1412 16.5503 20.3165 16.4807L20.3169 16.48Z" fill="white"/>
<path d="M19.3447 16.665C19.173 17.0334 19.0477 17.4207 18.8524 17.7788C18.8346 17.8228 18.8175 17.8656 18.7994 17.9085C18.7097 18.1234 18.5953 18.3332 18.4613 18.5408C18.4344 18.5866 18.4087 18.6279 18.38 18.6649C18.3473 18.7081 18.3114 18.7447 18.2707 18.7755C18.2202 18.8088 18.1658 18.8403 18.1077 18.8707C17.9795 18.9523 17.8154 19.0252 17.6266 19.0853C17.5176 19.1197 17.4003 19.1497 17.2765 19.1746C16.745 19.2811 16.1026 19.2881 15.534 19.1186C15.3746 19.0669 15.5921 18.9311 15.6143 18.8187C15.6383 18.7784 15.6629 18.7381 15.6884 18.6986C15.6945 18.6887 15.7011 18.6788 15.7076 18.6689C16.0086 18.6543 16.2773 18.6056 16.4937 18.5269C16.5645 18.5067 16.6328 18.4837 16.697 18.4588C16.7032 18.4566 16.7094 18.454 16.7156 18.4511C16.7871 18.4174 16.8535 18.3738 16.9185 18.3182C16.969 18.2742 17.0129 18.2281 17.0492 18.1878C17.2493 17.9842 17.4141 17.7858 17.5536 17.5808C17.5696 17.5577 17.5852 17.5339 17.6008 17.5105C17.6095 17.4976 17.6178 17.4852 17.6258 17.4727C17.7965 17.2695 17.9403 17.0535 18.0793 16.8448C18.1538 16.7328 18.2264 16.6244 18.3008 16.52C18.335 16.546 18.3782 16.5684 18.433 16.5826C18.4348 16.583 18.4366 16.5834 18.4384 16.5837C18.6705 16.6397 18.9239 16.6683 19.1911 16.6683C19.2423 16.6683 19.2935 16.6672 19.3444 16.665H19.3447Z" fill="white"/>
<path d="M18.1994 16.1242C18.19 16.144 18.1824 16.1652 18.1773 16.1887C18.1773 16.1887 18.1773 16.1888 18.1773 16.189C17.8991 16.5468 17.6838 16.9451 17.3897 17.2919C17.3621 17.3322 17.3363 17.3724 17.3091 17.412C17.174 17.6108 17.0143 17.7997 16.8345 17.9817C16.7979 18.0224 16.7627 18.0593 16.726 18.0908C16.6835 18.1271 16.6388 18.1571 16.5905 18.1798C16.5317 18.2025 16.4689 18.2237 16.4028 18.242C16.2707 18.2915 16.1102 18.3281 15.9301 18.3501C15.8099 18.3651 15.681 18.3731 15.5463 18.3742C14.9588 18.3801 14.2606 18.253 13.6818 17.9499C13.5264 17.8638 13.7791 17.7723 13.8234 17.6624C13.8564 17.6269 13.8899 17.5914 13.924 17.5566C13.9298 17.5508 13.9356 17.5445 13.9414 17.539C14.2235 17.6068 14.4864 17.6394 14.7079 17.6394H14.7083C14.778 17.6394 14.8452 17.6361 14.9083 17.6298C14.9849 17.6276 15.059 17.6225 15.1295 17.6137C15.1364 17.613 15.1429 17.6119 15.1494 17.6108C15.2297 17.5954 15.3063 17.5691 15.3847 17.5299C15.4468 17.4991 15.5038 17.4625 15.5481 17.4332C15.8001 17.2802 16.0158 17.1235 16.2075 16.9536C16.2296 16.9342 16.2514 16.9144 16.2732 16.8946C16.2848 16.884 16.2964 16.8737 16.3084 16.8628C16.5306 16.7028 16.73 16.5226 16.9228 16.3483C17.0727 16.2128 17.2158 16.0832 17.3665 15.9653C17.633 16.0499 17.9198 16.1052 18.1991 16.1239L18.1994 16.1242Z" fill="white"/>
<path d="M17.0442 15.8441C16.736 16.104 16.4538 16.3933 16.1238 16.6287C16.086 16.6624 16.0497 16.6961 16.0123 16.7294C15.826 16.8946 15.6173 17.0432 15.3903 17.1802C15.3431 17.2116 15.2988 17.2395 15.2534 17.2622C15.2015 17.2882 15.1492 17.3068 15.0948 17.3171C15.0298 17.3248 14.9615 17.3295 14.8903 17.331C14.6986 17.3515 14.4626 17.3372 14.2041 17.2896C14.0912 17.2688 13.9739 17.2413 13.8544 17.2069C13.2982 17.0502 12.6922 16.7562 12.2263 16.3376C12.0916 16.2113 12.369 16.1839 12.4416 16.085C12.4838 16.0572 12.5266 16.0308 12.5698 16.0041C12.5745 16.0012 12.5796 15.9982 12.5847 15.9949C12.8142 16.0876 13.0313 16.1469 13.2198 16.1678C13.288 16.1806 13.3552 16.1897 13.4202 16.1959C13.4271 16.1967 13.434 16.197 13.4405 16.197H13.4569C13.5269 16.197 13.5988 16.1875 13.6714 16.1689C13.7328 16.1531 13.7894 16.1322 13.8374 16.1132C14.0905 16.025 14.3123 15.9261 14.5153 15.8108C14.5381 15.7976 14.5614 15.784 14.5843 15.7712C14.5962 15.7643 14.6079 15.7569 14.6202 15.7503C14.8479 15.6497 15.0585 15.5277 15.2622 15.4095C15.4488 15.3011 15.6253 15.1986 15.8108 15.114C15.8536 15.0946 15.8965 15.0763 15.9382 15.0598C15.9528 15.0539 15.9669 15.0466 15.9807 15.0389C16.0682 14.9866 16.1637 14.943 16.2654 14.9067C16.4473 15.0071 16.643 15.0927 16.842 15.1583C16.7737 15.2041 16.6659 15.2956 16.6684 15.4585C16.6695 15.5149 16.6891 15.6573 16.8507 15.7489C16.8525 15.75 16.8543 15.7511 16.8561 15.7522C16.9164 15.7848 16.9792 15.8155 17.045 15.8441H17.0442Z" fill="white"/>
<path d="M15.9547 14.7128C15.9114 14.7336 15.8693 14.7567 15.8287 14.7809C15.7909 14.7959 15.7539 14.8116 15.7165 14.8285H15.7161C15.7067 14.8321 15.6976 14.8365 15.6881 14.8409C15.2728 15.0299 14.9053 15.3001 14.4863 15.482C14.4467 15.5048 14.4079 15.5278 14.369 15.5502C14.1729 15.6615 13.9605 15.7537 13.7336 15.8328C13.6857 15.8515 13.6414 15.868 13.5971 15.8793C13.5462 15.8925 13.4961 15.8991 13.446 15.898C13.3865 15.8929 13.3255 15.8841 13.2619 15.8716C13.161 15.861 13.0492 15.8376 12.9301 15.801H12.9297C12.8128 15.7665 12.6893 15.7193 12.5623 15.6618C12.0423 15.426 11.4675 15.0112 11.0845 14.4869C10.9886 14.3492 11.2399 14.3774 11.3223 14.3034C11.3651 14.2869 11.408 14.2712 11.4512 14.2558C11.5009 14.2382 11.5507 14.2218 11.6015 14.2057C11.7812 14.3323 11.9566 14.429 12.116 14.4891C12.1774 14.5172 12.238 14.5421 12.2979 14.563C12.3041 14.5652 12.311 14.567 12.3172 14.5689C12.3869 14.5879 12.4613 14.5978 12.5379 14.5978H12.5427C12.6047 14.5974 12.665 14.5908 12.7119 14.5846C12.9697 14.5619 13.2013 14.5213 13.4188 14.4616C13.4431 14.455 13.4675 14.448 13.4918 14.4411C13.5045 14.4374 13.5176 14.4338 13.5303 14.4297C13.7677 14.3898 13.9929 14.325 14.2114 14.2624C14.4111 14.2049 14.5999 14.1507 14.7927 14.1156C14.8374 14.1075 14.8813 14.1002 14.9238 14.0951C14.9398 14.0929 14.9551 14.0896 14.9703 14.0848C15.1217 14.0391 15.3007 14.0171 15.5171 14.0171C15.5749 14.0171 15.634 14.0186 15.6932 14.0211C15.6504 14.0596 15.6141 14.1127 15.5974 14.1866C15.5847 14.2415 15.5698 14.3832 15.7016 14.5096C15.7034 14.511 15.7052 14.5129 15.7067 14.5143C15.7815 14.5832 15.8646 14.6494 15.9536 14.7128H15.9547Z" fill="white"/>
<path d="M15.2963 13.7262C15.1551 13.7368 15.0178 13.7591 14.8864 13.7983C14.8769 13.7994 14.8678 13.8009 14.8584 13.8023H14.858C14.8188 13.8075 14.7796 13.8141 14.7408 13.821C14.3076 13.9001 13.9009 14.066 13.4667 14.1374C13.4238 14.1495 13.3828 14.1615 13.341 14.1733C13.1319 14.2307 12.9111 14.2674 12.6806 14.2875C12.6315 14.2937 12.5854 14.2985 12.5419 14.2988C12.491 14.2988 12.4427 14.2934 12.3959 14.2805C12.3418 14.2615 12.2862 14.2392 12.2296 14.2124C12.1526 14.1842 12.0713 14.1458 11.9867 14.0978C11.8803 14.0385 11.7692 13.9635 11.657 13.8767H11.6566C11.2144 13.5332 10.7565 12.9968 10.5136 12.4007C10.4559 12.2488 10.6843 12.3348 10.779 12.2854C10.823 12.2799 10.8665 12.2751 10.9105 12.2711C10.941 12.2686 10.9715 12.266 11.0016 12.2642C11.0332 12.2956 11.0652 12.3253 11.0971 12.3531C11.1018 12.3572 11.1073 12.3619 11.1127 12.3659C11.1726 12.4114 11.2405 12.4491 11.3146 12.4787C11.3727 12.5014 11.4304 12.5179 11.4798 12.5307C11.7336 12.6072 11.9682 12.657 12.1969 12.6834C12.2231 12.6863 12.2488 12.6889 12.275 12.6918C12.2888 12.6933 12.3026 12.6944 12.316 12.6958C12.5564 12.7482 12.7949 12.7731 13.0262 12.7969C13.2383 12.8185 13.438 12.8397 13.6351 12.8797C13.6805 12.8892 13.7252 12.8994 13.768 12.9104C13.7833 12.9141 13.7989 12.9166 13.8145 12.9181C14.1518 12.9485 14.5022 13.1133 14.87 13.3011C14.9989 13.4607 15.146 13.6039 15.2967 13.7266L15.2963 13.7262Z" fill="white"/>
<path d="M14.8192 12.6151C14.7716 12.6426 14.7269 12.6843 14.6943 12.7488C14.6754 12.7861 14.6638 12.826 14.6605 12.8663C14.3878 12.7418 14.1159 12.6448 13.841 12.6199C13.792 12.6074 13.743 12.5965 13.6939 12.5862C13.2528 12.4961 12.8033 12.4983 12.3632 12.3998C12.3182 12.3951 12.2742 12.3907 12.2299 12.3859C12.0201 12.3621 11.8073 12.316 11.5913 12.2519H11.5905C11.5796 12.249 11.5695 12.2457 11.5586 12.242C11.5096 12.2292 11.4642 12.216 11.4224 12.1999C11.3741 12.1809 11.3306 12.1567 11.2906 12.1271C11.2463 12.0882 11.202 12.0454 11.1581 11.9985C11.1436 11.9854 11.129 11.9718 11.1142 11.9575C10.6774 11.5306 10.2159 10.5497 10.2061 9.61967C10.2082 9.45307 10.3934 9.62223 10.502 9.61162C10.5455 9.62333 10.5888 9.63541 10.632 9.64823C10.7089 9.67093 10.7852 9.6962 10.8622 9.72292C10.8977 9.79615 10.9366 9.86609 10.9784 9.93163C11.0168 10.0034 11.0586 10.0733 11.1022 10.1396C11.1054 10.1447 11.1091 10.1502 11.1134 10.155C11.1646 10.2227 11.2264 10.2875 11.3022 10.3527C11.364 10.4054 11.4304 10.4545 11.4874 10.4955C11.7921 10.728 12.0843 10.9261 12.381 11.1022C12.4151 11.1223 12.4493 11.1421 12.4837 11.1626C12.507 11.1762 12.5302 11.1897 12.5535 11.2033C12.8556 11.4101 13.1769 11.5976 13.4873 11.7796C13.7684 11.9436 14.0585 12.1131 14.325 12.2922C14.3878 12.3339 14.4485 12.3764 14.5062 12.4174C14.512 12.4214 14.5182 12.4255 14.524 12.4295H14.5243C14.5265 12.431 14.5291 12.4324 14.5312 12.4339C14.63 12.4906 14.7251 12.5514 14.8184 12.6155L14.8192 12.6151Z" fill="white"/>
<path d="M14.7696 12.2265C14.7398 12.2082 14.7093 12.1906 14.6792 12.173C14.6171 12.1287 14.5543 12.0851 14.4907 12.0423C13.917 11.6575 13.2798 11.3393 12.7127 10.9493C12.652 10.9135 12.5921 10.879 12.5322 10.8435C12.2337 10.667 11.9458 10.469 11.664 10.2537C11.6016 10.2086 11.545 10.1665 11.4952 10.1237C11.4378 10.0743 11.3892 10.0245 11.3496 9.97283C11.3325 9.94757 11.3162 9.92121 11.3002 9.89448C11.2777 9.85713 11.2556 9.81832 11.2349 9.77877C11.1775 9.68943 11.1256 9.58947 11.0802 9.48256C10.8061 8.83191 10.7806 7.9008 11.236 7.25455C11.3336 7.12713 11.4996 7.39039 11.6593 7.45922C11.7145 7.49877 11.7686 7.53978 11.8231 7.58042C11.9091 7.64596 11.9941 7.71223 12.0783 7.78034C12.0889 7.84075 12.1019 7.89897 12.1172 7.95572C12.1324 8.03591 12.1517 8.115 12.1735 8.19152C12.1753 8.19738 12.1771 8.2036 12.1793 8.20946C12.2083 8.28965 12.2479 8.36947 12.3009 8.45441C12.3445 8.52362 12.3928 8.59026 12.4353 8.64664C12.6571 8.96007 12.8771 9.23797 13.1081 9.49537C13.1353 9.5254 13.1618 9.55469 13.189 9.58471C13.2072 9.60412 13.225 9.62353 13.2428 9.6433C13.4694 9.93219 13.7203 10.2083 13.9632 10.4752C14.1796 10.7135 14.4029 10.9592 14.6026 11.2075C14.5612 11.2335 14.5325 11.2639 14.5151 11.2877C14.4784 11.3367 14.4228 11.4415 14.4642 11.5905C14.465 11.593 14.4653 11.5952 14.4664 11.5978C14.5307 11.8069 14.6349 12.0218 14.7696 12.2257V12.2265Z" fill="white"/>
<path d="M15.1043 11.1708C15.0876 11.1697 15.0705 11.1686 15.0531 11.1675C15.052 11.1675 15.0495 11.1671 15.0484 11.1671C15.0161 11.1656 14.983 11.1642 14.9511 11.1634C14.9493 11.1634 14.9474 11.1631 14.9456 11.1631C14.9115 11.118 14.8766 11.0737 14.8414 11.0298C14.4082 10.4897 13.8948 9.99359 13.4693 9.45022C13.4221 9.39787 13.3749 9.3466 13.3284 9.29498C13.096 9.03648 12.88 8.76077 12.6748 8.47041C12.6287 8.40853 12.587 8.35141 12.5521 8.29539C12.5118 8.23095 12.4802 8.16871 12.4584 8.10792C12.4573 8.1039 12.4562 8.10024 12.4552 8.09621C12.4356 8.02884 12.4199 7.95927 12.4065 7.88824C12.3829 7.80366 12.3655 7.71395 12.3539 7.62021C12.2918 7.13031 12.3898 6.53532 12.6672 6.05127C12.7104 6.29586 12.783 6.53422 12.8843 6.76453C12.9032 6.80663 12.9232 6.84837 12.9428 6.89011C12.9435 6.89158 12.9548 6.91465 12.958 6.92087C13.4257 7.88567 14.157 8.77322 14.983 9.66845C14.8962 9.7241 14.8378 9.8215 14.8294 9.93903C14.8294 9.9416 14.8294 9.94379 14.8294 9.94636C14.8113 10.3429 14.9129 10.7867 15.1047 11.1708H15.1043Z" fill="white"/>
<path d="M23.6729 15.7217L23.6758 15.7653C23.6743 15.7524 23.6736 15.7411 23.6732 15.7312C23.6732 15.7279 23.6732 15.7246 23.6732 15.7217H23.6729Z" fill="white"/>
<path d="M24.0073 16.8423C24.0073 16.8423 24.0092 16.8412 24.0103 16.8408V16.8457C24.0103 16.8457 24.0084 16.8457 24.0073 16.8454C24.005 16.8454 24.0028 16.8454 24.0005 16.8442C24.0028 16.8438 24.005 16.8431 24.0073 16.8423Z" fill="white"/>
<path d="M24.0102 15.4287V15.437C24.0102 15.437 24.0083 15.4363 24.0072 15.4359C24.0045 15.4348 24.0019 15.4336 24 15.4329C24.003 15.4314 24.0057 15.4306 24.0072 15.4298C24.0091 15.4291 24.0102 15.4287 24.0102 15.4287V15.4287Z" fill="white"/>
<path d="M22.5437 14.8672C22.5405 14.8701 22.5376 14.873 22.5347 14.8756L23.2049 15.5515C23.21 15.5464 23.2151 15.5413 23.2198 15.5361L22.5437 14.8672Z" fill="white"/>
<path opacity="0.55" d="M23.6754 15.7653C23.6739 15.7524 23.6732 15.7411 23.6729 15.7312C23.6729 15.7279 23.6729 15.7246 23.6729 15.7217L23.6758 15.7653H23.6754Z" fill="white"/>
<path d="M23.6754 15.7653C23.6739 15.7524 23.6732 15.7411 23.6729 15.7312C23.6729 15.7279 23.6729 15.7246 23.6729 15.7217L23.6758 15.7653H23.6754Z" fill="white"/>
<path d="M22.5437 14.8672C22.5405 14.8701 22.5376 14.873 22.5347 14.8756L23.2049 15.5515C23.21 15.5464 23.2151 15.5413 23.2198 15.5361L22.5437 14.8672Z" fill="white"/>
<path d="M23.4958 16.4067C23.4366 16.1602 23.3858 15.8582 23.3822 15.73C23.3818 15.7245 23.3818 15.7198 23.3818 15.715C23.3818 15.7095 23.3818 15.7044 23.3822 15.6993C23.3861 15.5934 23.4308 15.5034 23.4936 15.4283L21.2105 13.1256C20.1012 12.007 21.2493 10.9569 21.2987 10.9126C20.8561 11.1861 20.5605 11.6782 20.5605 12.2403C20.5605 12.6653 20.7294 13.0502 21.0032 13.331L21.8771 14.2123H21.5601C20.9204 14.2123 20.6615 14.7403 20.985 15.3855L21.2279 15.8702C21.4697 16.3521 22.0583 16.7464 22.5358 16.7464H23.5953C23.555 16.6399 23.5238 16.522 23.4958 16.4067V16.4067ZM23.0648 15.8139C23.0597 15.8157 23.0546 15.8172 23.0496 15.819C23.0488 15.8194 23.0477 15.8197 23.047 15.8197C22.8894 15.8659 22.6926 15.8541 22.4672 15.6989C21.8695 15.287 22.3764 14.9629 22.274 14.6125L22.5347 14.8754C22.5376 14.8729 22.5405 14.8699 22.5438 14.867L23.2199 15.536C23.2151 15.5411 23.21 15.5462 23.205 15.5513L23.2278 15.5744C23.2536 15.6084 23.3182 15.726 23.0648 15.8139V15.8139Z" fill="white"/>
<path d="M20.4463 15.3989C20.4463 15.615 20.4492 15.8237 20.4557 16.0247C20.4742 16.0595 21.0719 17.1627 22.4506 17.1627H23.5025C23.7846 17.1627 23.786 17.04 23.786 17.04H22.5359C21.9491 17.04 21.2607 16.5845 20.9688 16.0031L20.7259 15.5183C20.646 15.359 20.5944 15.2008 20.5705 15.0482C20.5647 15.0119 20.5058 14.9691 20.4873 15.0324C20.4862 15.0357 20.4855 15.0394 20.4848 15.0434C20.4604 15.1584 20.4481 15.277 20.4481 15.3989H20.4463V15.3989Z" fill="white"/>
<path d="M20.4463 15.3989C20.4463 15.615 20.4492 15.8237 20.4557 16.0247C20.4742 16.0595 21.0719 17.1627 22.4506 17.1627H23.5025C23.7846 17.1627 23.786 17.04 23.786 17.04H22.5359C21.9491 17.04 21.2607 16.5845 20.9688 16.0031L20.7259 15.5183C20.646 15.359 20.5944 15.2008 20.5705 15.0482C20.5647 15.0119 20.5058 14.9691 20.4873 15.0324C20.4862 15.0357 20.4855 15.0394 20.4848 15.0434C20.4604 15.1584 20.4481 15.277 20.4481 15.3989H20.4463V15.3989Z" fill="white"/>
<path d="M21.1079 21.956H21.2946C21.3036 21.9549 21.3127 21.9545 21.3222 21.9541C21.333 21.9541 21.3447 21.9549 21.3563 21.956C21.613 21.982 21.5905 22.6678 21.8773 23.1683C22.1311 23.6121 22.3646 23.7497 22.5915 23.9745H22.5919C22.5919 23.9745 22.5912 23.9771 22.5904 23.9789V23.9804C22.5904 23.9804 22.5901 23.9815 22.5897 23.9826C22.5883 23.9881 22.5868 23.9939 22.5857 23.9998L22.5846 24.0053C22.5846 24.0053 22.5846 24.0057 22.5846 24.006C22.5785 24.0379 22.5752 24.0712 22.5752 24.1053C22.5752 24.3843 22.7992 24.6102 23.0763 24.6102C23.3533 24.6102 23.5766 24.3843 23.5766 24.1053C23.5766 23.9328 23.4909 23.7805 23.3602 23.6893C23.3595 23.6889 23.3591 23.6886 23.3588 23.6882C23.3577 23.6878 23.3569 23.6867 23.3558 23.6864C23.1667 23.5524 23.0316 23.2082 23.0316 22.8054C23.0316 22.3748 23.1856 22.012 23.3954 21.8999L23.3998 21.8977C23.4027 21.8963 23.4056 21.8948 23.4081 21.8934C23.6017 21.7883 23.6489 21.562 23.4996 21.3013L23.3166 20.9816C23.11 20.6214 22.7731 20.6214 22.5668 20.9816L22.52 21.0629L22.4735 20.9816C22.2673 20.6214 21.93 20.6214 21.7241 20.9816L21.6951 21.0322L21.6664 20.9816C21.4601 20.6214 21.1228 20.6214 20.9166 20.9816L20.7336 21.3013C20.5273 21.6616 20.6958 21.956 21.1083 21.956H21.1079ZM22.7037 23.7102C22.7037 23.7102 23.0327 24.0273 23.175 24.0979C23.3174 24.1686 23.2426 24.2905 23.0331 24.3271C22.8236 24.3641 22.7103 24.0064 22.7037 23.7102ZM22.8359 21.0179C23.0469 20.9912 23.1532 21.082 23.0374 21.1885C22.9212 21.2951 22.6968 21.6836 22.6968 21.6836C22.6188 21.4078 22.6246 21.0443 22.8359 21.0179ZM22.0313 21.0428C22.2422 21.0164 22.3486 21.1072 22.2328 21.2138C22.1166 21.3203 21.8926 21.7088 21.8926 21.7088C21.8142 21.4327 21.82 21.0695 22.0313 21.0428V21.0428ZM21.2742 21.0662C21.4852 21.0399 21.5916 21.1307 21.4754 21.2372C21.3596 21.3438 21.1352 21.7322 21.1352 21.7322C21.0571 21.4565 21.0629 21.093 21.2742 21.0662V21.0662Z" fill="white"/>
<path d="M20.6689 27.5301C20.954 28.3591 21.5309 29.3063 21.7081 29.0207C21.784 28.898 21.9191 28.6077 22.0857 28.1778C22.1504 28.0105 22.2201 27.8223 22.2931 27.6143C22.5389 26.912 22.8203 25.9868 23.0752 24.9034C22.7517 24.903 22.4728 24.706 22.3504 24.4248C22.3374 24.4537 22.3243 24.483 22.3109 24.5119C21.7226 25.7902 21.1195 26.8388 20.6689 27.5301V27.5301Z" fill="white"/>
<path d="M19.2524 26.4548C19.2902 27.2673 19.6595 28.4522 19.8929 28.2134C19.9881 28.1164 20.1769 27.8693 20.4241 27.4954C20.475 27.4189 20.528 27.3372 20.5832 27.2505C21.0084 26.5808 21.5621 25.6076 22.1096 24.4179C22.163 24.3019 22.2146 24.1851 22.2639 24.0686C22.2534 24.0588 22.2425 24.0496 22.2316 24.0397C22.0911 23.9145 21.9361 23.7765 21.7738 23.5483C21.7531 23.5776 21.7317 23.6069 21.7102 23.6362C20.7117 24.9972 19.7611 25.9993 19.2524 26.4548Z" fill="white"/>
<path d="M18.8495 26.4962C18.8916 26.468 18.9515 26.4208 19.0274 26.3549C19.0924 26.2989 19.169 26.229 19.2565 26.1466C19.7641 25.6647 20.6199 24.7457 21.5317 23.503C21.5698 23.4514 21.6072 23.3994 21.6442 23.3474C21.6377 23.3367 21.6315 23.3261 21.6254 23.3151C21.4787 23.0588 21.405 22.7718 21.3454 22.5411C21.3316 22.4869 21.3156 22.4243 21.2989 22.3672C19.8095 23.749 18.7939 24.0566 18.6542 24.53C18.4537 25.2107 18.5627 26.6899 18.8495 26.4962V26.4962Z" fill="white"/>
<path d="M24.0083 17.2461V17.2684C24.0053 17.2646 24.0023 17.2612 24 17.2574C24.0026 17.254 24.0049 17.251 24.0072 17.2476C24.0072 17.2476 24.0079 17.2465 24.0083 17.2461V17.2461Z" fill="white"/>
<path d="M24.0099 15.4287V15.437C24.0099 15.437 24.008 15.4363 24.0068 15.4359V15.4298L24.0099 15.4287V15.4287Z" fill="white"/>
<path d="M24.0068 16.8423C24.0068 16.8423 24.0087 16.8412 24.0099 16.8408V16.8457C24.0099 16.8457 24.008 16.8457 24.0068 16.8454V16.8423Z" fill="white"/>
<path d="M20.699 14.2484C20.6946 14.2535 20.6903 14.259 20.6859 14.2645C20.5734 14.3905 20.0883 14.6446 20.0883 15.1056L20.0865 15.3985C20.0865 15.5109 20.0872 15.6178 20.089 15.7214L20.0774 15.7302C18.2615 11.7527 14.5732 9.58953 13.2178 6.78923C13.2134 6.78081 13.2094 6.77239 13.2051 6.7636C13.1862 6.72369 13.1673 6.68341 13.1492 6.64314C12.9938 6.2898 12.9077 5.89876 12.9077 5.48721C12.9077 5.20015 12.9498 4.92261 13.0279 4.66118C13.1296 4.29466 13.2378 4.20752 13.2378 4.20752C13.2378 4.20752 13.0399 4.64983 13.4498 5.08408C13.4567 5.09104 13.4636 5.09836 13.4705 5.10531C13.4778 5.11264 13.485 5.11996 13.4919 5.12728C13.7672 5.40592 14.0954 5.74351 14.4476 6.11625C15.0674 6.77092 15.7616 7.53398 16.3738 8.27616C17.0753 9.12636 17.669 9.94982 17.9195 10.5525C18.3981 11.7044 19.2797 12.2606 19.9223 12.5231C19.938 12.2489 20.0414 11.7059 20.5596 11.172C20.5345 11.2064 20.0596 11.8681 20.2433 12.6385C20.3127 12.9585 20.4652 13.2539 20.6903 13.4982H20.6906V13.4989C20.7026 13.5117 20.7146 13.5242 20.7266 13.5366L20.7357 13.5458C20.8203 13.6483 20.9724 13.909 20.699 14.2484V14.2484Z" fill="white"/>
</g>
<defs>
<clipPath id="clip0_311_14536">
<rect width="48" height="30" fill="white"/>
</clipPath>
</defs>
</svg>
