<?xml version="1.0" encoding="utf-8"?>
<!-- Generator: Adobe Illustrator 26.3.1, SVG Export Plug-In . SVG Version: 6.00 Build 0)  -->
<svg version="1.1" id="Layer_1" xmlns="http://www.w3.org/2000/svg" xmlns:xlink="http://www.w3.org/1999/xlink" x="0px" y="0px"
	 viewBox="0 0 48 30" style="enable-background:new 0 0 48 30;" xml:space="preserve">
<style type="text/css">
	.st0{fill:none;}
	.st1{fill:#FEE500;}
	.st2{opacity:0.55;fill:#FEE500;enable-background:new    ;}
</style>
<g>
	
		<image style="overflow:visible;opacity:0.5;enable-background:new    ;" width="78" height="60" xlink:href="857049A9.png"  transform="matrix(1 0 0 1 -15 -15)">
	</image>
	<g>
		<path class="st0" d="M47.5,11.5c-0.1,0.9-0.9,1.5-1.7,1.8c0.3,0.1,0.5,0.2,0.6,0.3c0.2,0.1,0.3,0.3,0.3,0.5
			c-0.1,0.6-1.3,1.1-2.1,1.4c0.1,0.1,0.2,0.1,0.2,0.2c0.2,0.2,0.2,0.4,0.2,0.6c-0.2,0.6-1.7,1-2.6,1.1c0.2,0.2,0.4,0.3,0.4,0.5
			c0.1,0.2,0.2,0.4,0.1,0.6c-0.3,0.6-1.9,0.6-2.3,0.6l0,0c0.1,0.2,0.2,0.3,0.3,0.4c0.1,0.2,0.1,0.3,0,0.5s-0.4,0.4-1.3,0.4
			c-0.5,0-1.2-0.1-1.8-0.2c0,0.1,0.1,0.2,0.1,0.2l0.1,0.2c0,0.1,0,0.2,0.1,0.2c0.1,0.2,0.1,0.3,0,0.6L38,21.5l-0.2,0.1
			c-0.3,0.1-0.5,0.1-0.8,0.1c-0.5,0-1.1-0.2-1.5-0.4l0,0c0,0.1,0,0.2,0,0.2c0.1,0.5-0.1,0.7-0.4,0.8c-0.1,0-0.2,0-0.4,0
			c-0.6,0-1.3-0.2-1.8-0.7c0,0.2,0,0.3-0.1,0.4c-0.1,0.2-0.2,0.3-0.5,0.3c-0.7,0-2-1.5-2-1.6c0,0,0-0.1-0.1-0.1c0,0,0,0.1-0.1,0.1
			C30,20.8,30,21.1,29.8,21c0,0,0,0-0.1,0l0,0l0,0l0,0l0,0l0,0c0,0,0,0-0.1,0l0,0l0,0c0,0,0,0,0-0.1l-0.1-0.1c0,0,0-0.1-0.1-0.1l0,0
			l0,0l0,0l-0.1-0.1l0,0l0,0c-0.1,0.3-0.3,0.5-0.7,0.5c-0.2,0-0.5-0.1-0.8-0.2c-0.1,0-0.1,0-0.2,0s-0.2,0-0.2,0.1
			c0,0,0.1,0.1,0.1,0.2l0.2,0.3c0.2,0.3,0.2,0.6,0,0.8c-0.1,0.2-0.2,0.3-0.4,0.3c0.6,0.5,1.1,0.8,1.5,1.1c0.5,0.3,0.8,0.5,1,0.9
			c0.2,0.5,0.2,1.8-0.1,2.1l-0.1,0.2h-0.3H29c-0.1,0.6-0.3,1.6-0.9,1.6h-0.2l-0.2-0.1c-0.1-0.1-0.2-0.2-0.3-0.3
			c-0.2,0.5-0.6,1.3-1.1,1.3h-0.2l-0.2-0.2c-0.1-0.1-0.1-0.2-0.2-0.4c-0.4,0.7-1.2,1.5-1.7,1.5h0c-0.5,0-1.2-0.8-1.7-1.5
			c-0.1,0.1-0.1,0.3-0.2,0.4L22,29h-0.3c-0.5,0-0.9-0.8-1.1-1.3c-0.1,0.2-0.2,0.3-0.3,0.3l-0.1,0.1H20c-0.6,0-0.8-1-0.9-1.6H19h-0.2
			l-0.2-0.2c-0.3-0.4-0.3-1.6-0.1-2.1c0.1-0.4,0.4-0.6,1-0.9c0.4-0.2,0.9-0.6,1.5-1.1c-0.2-0.1-0.3-0.2-0.4-0.3
			c-0.1-0.2-0.1-0.5,0-0.8l0.2-0.3c0-0.1,0.1-0.1,0.1-0.2c0,0-0.1-0.1-0.2-0.1s-0.1,0-0.2,0c-0.3,0.2-0.6,0.2-0.8,0.2
			c-0.4,0-0.6-0.2-0.7-0.5l0,0l0,0l-0.1,0.1l0,0l0,0l0,0c0,0,0,0.1-0.1,0.1l-0.1,0.1c0,0,0,0,0,0.1l0,0l0,0c0,0,0,0-0.1,0l0,0l0,0
			l0,0l0,0l0,0c0,0,0,0-0.1,0c-0.1,0.1-0.2-0.2-0.3-0.3c0,0,0-0.1-0.1-0.1c0,0,0,0.1-0.1,0.1c0,0-1.3,1.6-2,1.6
			c-0.2,0-0.4-0.1-0.5-0.3c0-0.1-0.1-0.3-0.1-0.4c-0.5,0.4-1.2,0.7-1.8,0.7c-0.1,0-0.2,0-0.3,0c-0.2,0-0.5-0.2-0.4-0.8
			c0,0,0-0.1,0-0.2v-0.1c-0.5,0.3-1,0.4-1.5,0.4c-0.3,0-0.5,0-0.8-0.1L10.4,21L10,21.4c-0.1-0.2,0-0.4,0-0.6v-0.1l0.1-0.3
			c0-0.1,0.1-0.2,0.1-0.2c-0.6,0.2-1.3,0.2-1.8,0.2c-0.9,0-1.2-0.2-1.3-0.4c-0.1-0.2-0.1-0.3,0-0.5c0-0.1,0.1-0.2,0.3-0.4l0,0
			c-0.5,0-2,0-2.3-0.6C5,18.3,5,18.1,5.2,17.9c0.1-0.1,0.2-0.3,0.4-0.5c-0.9-0.1-2.4-0.5-2.6-1.1c-0.1-0.2,0-0.4,0.2-0.6
			c0,0,0.1-0.1,0.2-0.2c-0.7-0.2-2-0.7-2.1-1.4c0-0.2,0.1-0.4,0.3-0.5c0.1-0.1,0.4-0.2,0.6-0.3c-0.8-0.3-1.6-0.9-1.7-1.8
			c0-0.4,0.5-0.5,0.7-0.6c0.1,0,0.2,0,0.2-0.1c-0.8-0.5-1.2-1.2-1.2-2c0-0.5,0.5-0.5,0.7-0.5c0.1,0,0.2,0,0.2,0
			C0.6,7.8,0.1,7,0.3,6.2c0-0.1,0.1-0.4,0.6-0.4c0.1,0,0.2,0,0.3,0s0.1,0,0.2,0h0.4c0.1,0,0.2,0,0.4,0c-0.4-0.6-1-1.9-0.7-2.5
			C1.6,3.1,1.8,3,2,3l0,0h0.1c0.4,0.1,1.4,0.4,2.8,0.9C4.7,3.3,4.5,2.2,4.8,1.8c0.1-0.2,0.3-0.2,0.4-0.2h0.1l0.2,0.1
			c0.3,0.1,1.1,0.5,2.1,1.2c0-0.5,0.1-1.4,0.4-1.7C8.1,1,8.2,0.9,8.4,0.9c0.1,0,0.2,0,0.4,0.1c0.5,0.4,2.3,2.1,4.2,4.5
			C13.1,5.2,13.2,5,13.3,5l0.6,0.4c0,0-0.1,0.2,0.1,0.4c0.3,0.3,0.6,0.6,1,1c0.7,0.8,1.4,1.4,1.9,2c0.8,1,1.3,1.7,1.6,2.2
			c0.3,0.7,0.8,1.2,1.3,1.4c0.1-0.3,0.3-0.6,0.6-1l0.2,0.2c0.1-0.2,0.3-0.4,0.6-0.5l0.1,0.2l0.2-0.3l0.2,1c0.1,0.5,0.9,0.9,1.9,1
			c0.1,0,0.3,0,0.4,0c0.2,0,0.3,0,0.4,0c1-0.1,1.8-0.5,1.9-1l0.2-1l0.2,0.3l0.1-0.2c0.2,0.1,0.4,0.3,0.6,0.5l0.2-0.2
			c0.3,0.3,0.5,0.7,0.6,1c0.5-0.3,1-0.7,1.3-1.4c0.2-0.5,0.8-1.3,1.6-2.2c0.5-0.6,1.2-1.3,1.9-2c0.4-0.3,0.7-0.7,0.9-0.9
			c0.2-0.2,0.2-0.4,0.2-0.5l-0.5-1.3L34.7,5c0.1,0.1,0.2,0.2,0.3,0.6c2-2.5,3.7-4.2,4.2-4.5C39.3,1,39.5,1,39.6,1
			c0.1,0,0.3,0.1,0.4,0.2c0.3,0.3,0.4,1.2,0.4,1.7c1-0.6,1.8-1.1,2.1-1.2h0.1h0.2c0.2,0,0.3,0.1,0.4,0.2c0.3,0.4,0.1,1.5-0.1,2.2
			c1.4-0.5,2.4-0.8,2.8-0.9l0,0L46,3c0.2,0,0.4,0.1,0.5,0.3c0.3,0.6-0.3,1.9-0.7,2.6c0.1,0,0.2,0,0.4,0c0,0,0.3,0,0.4,0
			c0.1,0,0.2,0,0.3,0s0.2,0,0.3,0c0.4,0,0.5,0.3,0.6,0.4C48,7.1,47.6,7.9,47,8.4c0.1,0,0.2,0,0.2,0c0.2,0,0.7,0,0.8,0.5
			c0,0.8-0.4,1.5-1.2,2c0.1,0,0.2,0,0.3,0.1C47,11,47.5,11.1,47.5,11.5z"/>
	</g>
</g>
<g>
	<path class="st1" d="M45.8,5.1c-0.1,0.1-0.1,0.2-0.2,0.3c-0.1,0.2-0.2,0.3-0.4,0.4c-0.7,0.7-3.1,0.6-7.4,2c-0.1,0-0.3,0.1-0.5,0.2
		V7.9c0-0.1-0.1-0.2-0.1-0.4c0-0.1-0.1-0.2-0.1-0.3L37,7.1c1.6-1,3-1.5,3.9-1.9c1.1-0.5,1.7-0.7,2-1.2c0.1-0.2,0.2-0.4,0.3-0.7
		c1.6-0.7,2.8-1,3.2-1.1C47.2,2.1,46.6,3.9,45.8,5.1L45.8,5.1z"/>
	<path class="st1" d="M40.5,18.5c-0.1,0-0.3,0-0.4,0c-0.1,0-0.2,0-0.3-0.1c-0.7-0.2-1.3-1.4-3.1-3.3l0.1-0.1
		c0.1-0.1,0.1-0.1,0.2-0.2l0.1-0.1l0,0c0.1-0.1,0.1-0.3,0.1-0.3c-0.1-0.2-0.2-0.2-0.3-0.2l0,0c0,0,0,0-0.1,0h-0.1
		c0.1-0.1,0.3-0.3,0.4-0.4c1.3,0.9,2.1,1.7,2.8,2.3c0.8,0.8,1.3,1.2,1.9,1.2c0.1,0,0.1,0,0.2,0c0.1,0,0.1,0,0.2,0
		c0.4,0.4,0.7,0.6,0.8,0.8C43.3,18.3,41.7,18.6,40.5,18.5L40.5,18.5z"/>
	<path class="st1" d="M37.8,19.5C37.8,19.5,37.7,19.5,37.8,19.5c-0.2-0.1-0.3-0.2-0.5-0.4l0,0c-0.4-0.5-0.7-1.3-1.5-2.5l0.1-0.1l0,0
		l0,0c0.1-0.1,0.1-0.2,0.1-0.3c0-0.2-0.2-0.3-0.3-0.3l0,0l0,0c0.1,0,0.1-0.1,0.2-0.1c0.2-0.1,0.4-0.3,0.6-0.5
		c0.7,0.7,1.2,1.4,1.6,1.9c0.7,0.9,1.1,1.4,1.6,1.5c0.2,0,0.4,0.1,0.6,0.1c0.3,0.3,0.4,0.6,0.5,0.7C41.1,20,38.9,20,37.8,19.5
		L37.8,19.5z"/>
	<path class="st1" d="M44.6,15c-0.1,0-0.3,0.1-0.4,0.1c-0.2,0-0.4,0.1-0.5,0.1c-0.9,0-2.5-1.6-6.3-3.3l0.1-0.1
		c0-0.1,0.1-0.2,0.1-0.3c0.1-0.2,0.2-0.4,0.3-0.7c0.1,0,0.3,0.1,0.4,0.2l0,0c0.1,0,0.2,0.1,0.4,0.1c0.5,0.2,1,0.4,1.5,0.6
		c0.6,0.2,1.1,0.4,1.7,0.6c0,0,0.1,0,0.1,0.1c0.1,0,0.1,0,0.2,0.1c0.5,0.2,1.1,0.4,1.7,0.6c0.1,0,0.2,0.1,0.4,0.1
		c0.1,0,0.3,0.1,0.4,0.1l0,0l0,0c0.1,0,0.2,0,0.3,0c0.2,0,0.4,0,0.6-0.1c0.6,0.3,1,0.5,1.2,0.6C47.3,13.8,45.8,14.6,44.6,15z"/>
	<path class="st1" d="M42.3,16.8L42.3,16.8c-0.2,0-0.3,0-0.4,0c0,0,0,0-0.1,0c-0.8-0.1-1.8-1.5-4.5-3.5l0,0c0.1-0.1,0.1-0.2,0.2-0.2
		c0.1-0.2,0.2-0.4,0.3-0.6l0,0c0-0.1,0-0.2,0-0.2c1.6,0.8,2.8,1.5,3.6,2.1c1,0.6,1.6,1,2.2,1c0,0,0,0,0.1,0c0.2,0,0.5-0.1,0.8-0.1
		c0.3,0.2,0.5,0.3,0.6,0.4C45.5,16.1,43.6,16.7,42.3,16.8L42.3,16.8z"/>
	<path class="st1" d="M32.8,21.2c0,0.4-0.1,0.7-0.1,0.8c-0.1,0.3-1.2-0.6-1.8-1.4c-0.1-0.1-0.1-0.2-0.2-0.3
		c-0.1-0.1-0.2-0.2-0.2-0.3l0,0l0,0l0,0l0,0l0,0h0.1l0,0c0.2,0,0.2-0.1,0.3-0.2c0-0.1,0.1-0.2,0-0.2c0.2,0,0.5,0.1,0.7,0.1
		s0.4,0,0.6,0l0,0v0.1v0.1c0,0.1,0,0.2,0,0.3c0,0.1,0.1,0.2,0.1,0.3l0,0c0,0.1,0.1,0.2,0.1,0.3C32.5,20.9,32.6,21,32.8,21.2
		L32.8,21.2z"/>
	<path class="st1" d="M35.3,22c-0.8,0.1-1.7-0.3-2.2-0.9c-0.1-0.1-0.2-0.2-0.3-0.4c-0.1-0.1-0.1-0.2-0.1-0.2c0-0.1-0.1-0.2-0.1-0.2
		c0-0.1-0.1-0.2-0.1-0.3c0-0.1,0-0.2,0-0.3c0-0.1,0-0.2,0-0.3c0.1,0,0.1,0,0.1,0l0,0c0.2-0.1,0.2-0.2,0.2-0.2c0-0.1,0-0.2,0-0.2
		c0-0.1-0.1-0.1-0.1-0.2l0,0c0,0,0,0,0-0.1l0,0h0.1c0.1,0,0.2,0,0.3,0c0.4,0,0.7-0.1,1-0.3c0.1,0.4,0.2,0.8,0.3,1.3
		c0,0.1,0.1,0.2,0.1,0.3c0,0.1,0.1,0.2,0.1,0.3l0,0c0.1,0.1,0.1,0.2,0.2,0.2c0.1,0.1,0.2,0.3,0.4,0.4c0,0.1,0,0.2,0,0.3
		c0,0.1,0,0.2,0,0.3C35.3,21.7,35.5,22,35.3,22L35.3,22z"/>
	<path class="st1" d="M37.9,21.3c-0.8,0.3-1.8,0-2.4-0.6c-0.1-0.1-0.3-0.2-0.4-0.3c0,0,0-0.1-0.1-0.1c-0.1-0.1-0.1-0.1-0.2-0.2
		c0-0.1-0.1-0.1-0.1-0.2s-0.1-0.2-0.1-0.3c-0.1-0.4-0.3-0.9-0.3-1.3l0,0h0.1l0,0c0.1,0,0.1-0.1,0.1-0.1c0-0.1,0-0.1,0.1-0.1
		c0-0.2-0.1-0.3-0.2-0.4l0,0v-0.1c0.1,0,0.2-0.1,0.3-0.1c0.3-0.1,0.7-0.3,0.9-0.5c0.3,0.5,0.5,1,0.8,1.3c0.5,0.8,0.7,1.4,1.2,1.6
		c0.1,0.2,0.2,0.4,0.2,0.7c0,0.1,0.1,0.2,0.1,0.2C37.9,20.9,38.1,21.2,37.9,21.3L37.9,21.3z"/>
	<path class="st1" d="M46.8,7.5c-0.1,0.1-0.3,0.2-0.4,0.3c-0.1,0.1-0.2,0.1-0.3,0.1C46,8,45.9,8,45.7,8.1c-0.1,0-0.2,0.1-0.3,0.1
		s-0.2,0-0.3,0c-0.6,0-1.1,0.1-1.7,0.1c-0.1,0-0.2,0-0.3,0c-1.1,0.1-2.2,0-3.3,0c-0.1,0-0.2,0-0.4,0c-0.7,0-1.4,0.1-2,0.2V8.4
		c0.2-0.1,0.3-0.1,0.5-0.2c0.6-0.2,1.2-0.4,1.8-0.5C41,7.3,42,7.1,42.9,6.9c1.3-0.3,2.1-0.4,2.5-0.8c0.2-0.2,0.4-0.4,0.5-0.7
		c0.3,0,0.5-0.1,0.8-0.1c0.1,0,0.2,0,0.3,0c0.3,0,0.7-0.1,0.8,0C48,6.2,47.5,7,46.8,7.5L46.8,7.5z"/>
	<path class="st1" d="M48,8.1c0,0.9-0.7,1.6-1.5,2c-0.2,0.1-0.3,0.1-0.5,0.2c-0.1,0-0.1,0-0.2,0c-0.1,0-0.2,0.1-0.3,0.1
		s-0.2,0-0.3,0s-0.2,0-0.3,0c-0.6-0.1-1.1-0.1-1.6-0.2c-0.1,0-0.2,0-0.3-0.1c-1.1-0.2-2.2-0.4-3.3-0.6c-0.1,0-0.2,0-0.4-0.1
		c-0.6-0.1-1.3-0.2-1.9-0.2c0,0,0,0,0-0.1s0-0.2,0-0.3c0,0,0,0,0-0.1c0.6-0.1,1.3-0.2,1.9-0.2h0.1l0,0l0,0c0.1,0,0.2,0,0.4,0
		c0.3,0,0.6,0,1,0c0.2,0,0.4,0,0.5,0c0.2,0,0.4,0,0.5,0c0.3,0,0.8,0,1.2,0h0.1c0.1,0,0.1,0,0.2,0l0,0c0.5,0,1.1,0,1.7-0.1
		c0.1,0,0.3,0,0.3,0c0.1,0,0.3,0,0.4-0.1l0,0c0.1,0,0.2-0.1,0.3-0.1c0.2-0.1,0.5-0.2,0.7-0.4h0.1c0.1,0,0.2,0,0.3,0
		C47.5,8,48,7.9,48,8.1z"/>
	<path class="st1" d="M47.7,10.8c-0.1,1-1.1,1.6-2.1,1.8c-0.2,0-0.4,0.1-0.6,0.1c0,0,0,0-0.1,0s-0.2,0-0.3,0s-0.2,0-0.3-0.1
		c-0.1,0-0.2-0.1-0.3-0.1c-0.6-0.2-1.1-0.3-1.6-0.5c-0.1,0-0.2-0.1-0.3-0.1c-1.1-0.4-2.2-0.8-3.3-1.2c-0.1,0-0.2-0.1-0.4-0.1
		c-0.1-0.1-0.3-0.1-0.4-0.2c0,0,0,0,0-0.1s0-0.2,0.1-0.3c0-0.1,0-0.3,0-0.5l0,0V9.4c0.4,0,0.7,0.1,1.1,0.2l0,0c0.1,0,0.2,0,0.4,0
		c0.5,0.1,1,0.2,1.6,0.3s1.1,0.2,1.7,0.3H43c0.1,0,0.1,0,0.2,0c0.5,0.1,1.1,0.2,1.7,0.2c0.1,0,0.2,0,0.3,0s0.1,0,0.2,0
		c0.1,0,0.1,0,0.2,0l0,0c0.1,0,0.2,0,0.3-0.1c0.2,0,0.4-0.1,0.7-0.2c0.1,0,0.1,0,0.2,0c0.1,0,0.2,0.1,0.3,0.1
		C47.2,10.6,47.7,10.6,47.7,10.8L47.7,10.8z"/>
	<path class="st1" d="M30.5,20.7L30.5,20.7c-0.1,0.1-0.1,0.2-0.1,0.2c-0.1,0.1-0.1,0.4-0.3,0.3c0,0,0,0-0.1,0l0,0l0,0l0,0l0,0l0,0
		c0,0,0,0-0.1-0.1c0,0,0,0-0.1,0c0,0,0,0-0.1-0.1c0,0,0,0-0.1-0.1l-0.1-0.1l-0.1-0.1l0,0c0,0,0,0,0-0.1l0,0l-0.1-0.1l0,0
		c0,0,0,0,0-0.1c0,0,0,0,0-0.1c0,0,0-0.1-0.1-0.1c0,0,0,0,0-0.1c0,0,0-0.1-0.1-0.1l0,0c0,0,0,0,0-0.1l0,0c0,0,0,0,0-0.1
		c0,0,0,0,0-0.1l0,0c0.3,0.1,0.7,0.2,1.1,0.3l0,0l0,0c0,0,0,0,0,0.1v0.1l0,0l0,0l0,0C30.3,20.3,30.4,20.5,30.5,20.7L30.5,20.7z"/>
	<path class="st1" d="M40.5,2c0,0.1,0,0.2,0,0.4c0,0.3-0.1,0.7-0.2,0.9C40.1,3.9,39,4.5,37.2,6c-0.4,0.3-0.8,0.7-1.2,1.1l0,0
		c0-0.1,0-0.2,0-0.3c0-0.2-0.1-0.4-0.2-0.6c0-0.1-0.1-0.2-0.1-0.2l0,0c0-0.1-0.1-0.1-0.2-0.1c0-0.1,0-0.2,0-0.3c0-0.1,0-0.2,0-0.3
		c2.2-2.9,4.1-4.8,4.6-5.1C40.3-0.2,40.5,0.9,40.5,2L40.5,2z"/>
	<path class="st1" d="M43.1,3.1c0,0.1-0.1,0.3-0.2,0.4c-0.1,0.1-0.1,0.3-0.2,0.4C42.3,4.6,40.2,5,36.8,7h-0.1
		c-0.2,0-0.3,0.1-0.4,0.2l-0.1,0.1l0,0c0.4-0.4,0.8-0.7,1.2-1c0.5-0.4,0.9-0.7,1.3-1c0-0.2,0.1-0.3,0.2-0.3c0.9-0.7,1.5-1.1,1.6-1.6
		c0.1-0.3,0.2-0.8,0.2-1.2c1.2-0.8,2.1-1.3,2.4-1.5C43.7,0.5,43.5,2,43.1,3.1L43.1,3.1z"/>
	<path class="st1" d="M28.9,20.2c0,0.4-0.5,0.3-1,0.1c-0.5-0.3-0.9,0-0.9,0c0-0.1,0.2-0.6,0.3-1.1c0-0.1,0-0.1,0-0.2
		c0.1-0.1,0.4-0.4,0.4-0.8c0-0.1,0-0.2,0-0.3l0,0l0,0c0,0,0,0,0,0.1c0,0.2,0.1,0.4,0.2,0.6c0,0,0,0.1,0.1,0.1c0,0.1,0.1,0.1,0.1,0.2
		l0,0l0.1,0.1c0.1,0.1,0.3,0.3,0.6,0.4c0,0.1,0,0.1,0,0.2l0,0l0,0c0,0,0,0,0,0.1c0,0,0,0,0,0.1c0,0,0,0,0,0.1c0,0,0,0,0,0.1l0,0
		C28.9,20.1,28.9,20.1,28.9,20.2L28.9,20.2z"/>
	<path class="st1" d="M28,16.3c0.4,0.1,1,0.1,1.5,0c0.1,0,0-0.1,0-0.2c-0.1,0-0.2,0-0.3,0c-0.1,0-0.1,0-0.1,0l0,0
		c-0.1,0-0.1,0-0.2-0.1l-0.1-0.1c-0.1-0.1-0.3-0.2-0.4-0.3l0,0C28.3,15.6,28.1,15.9,28,16.3L28,16.3z"/>
	<path class="st1" d="M28.9,14.6c-0.1,0.2-0.3,0.5-0.4,0.7c0,0,0,0,0.1,0.1c0,0,0,0,0.1,0.1s0.2,0.2,0.3,0.3c0,0,0.1,0,0.1,0.1h0.1
		c0,0,0,0,0.1,0l0,0c0,0,0,0,0.1,0s0.3,0,0.4,0c0.4,0,1-0.1,1.4-0.3c0.1-0.1-0.1-0.1-0.1-0.2c0,0,0,0-0.1-0.1l0,0l0,0
		c-0.1,0-0.2,0-0.3,0h-0.1l0,0l0,0c-0.1,0-0.1,0-0.2,0h-0.1c-0.2-0.1-0.3-0.1-0.5-0.2l0,0l0,0c-0.2-0.1-0.3-0.2-0.4-0.2
		C29,14.7,28.9,14.6,28.9,14.6z"/>
	<path class="st1" d="M29,14.3c0.1,0.1,0.3,0.2,0.4,0.3l0,0c0.1,0,0.1,0.1,0.2,0.1c0,0,0,0,0.1,0c0.1,0.1,0.3,0.1,0.4,0.2h0.1h0.1
		l0,0h0.1c0.1,0,0.3,0,0.4-0.1c0.4-0.1,0.9-0.3,1.2-0.6c0.1-0.1-0.1-0.1-0.1-0.1c-0.1,0-0.1,0.1-0.2,0.1h-0.1l0,0h-0.1
		c0,0,0,0-0.1,0h-0.1c-0.2,0-0.4-0.1-0.5-0.1c0,0,0,0-0.1,0l0,0c-0.2,0-0.3-0.1-0.5-0.1c-0.1,0-0.3-0.1-0.4-0.1h-0.1c0,0,0,0-0.1,0
		s-0.2-0.1-0.3-0.1C29.3,13.9,29.2,14.1,29,14.3L29,14.3z"/>
	<path class="st1" d="M29.6,13.5c0.1,0,0.2,0,0.2,0.1h0.1c0.2,0.1,0.4,0.2,0.7,0.2l0,0c0.1,0,0.1,0,0.2,0.1h0.1
		c0.1,0,0.3,0.1,0.5,0.1h0.1h0.1l0,0l0,0h0.1c0.1,0,0.2-0.1,0.3-0.1c0.4-0.2,0.8-0.5,1.1-0.9c0.1-0.1-0.1-0.1-0.2-0.1h-0.1l0,0
		c-0.1,0.1-0.3,0.2-0.4,0.3c0,0-0.1,0-0.1,0.1l0,0c-0.1,0-0.1,0-0.2,0H32c-0.1,0-0.1,0-0.2,0s-0.2,0-0.3,0c0,0,0,0-0.1,0l0,0
		c-0.2,0-0.3,0-0.5,0c-0.1,0-0.3,0-0.4,0c0,0,0,0-0.1,0l0,0l0,0h-0.1c-0.1,0-0.2,0-0.3,0C29.8,13.2,29.7,13.4,29.6,13.5L29.6,13.5z"
		/>
	<path class="st1" d="M30.1,12.8c0.1,0,0.1,0,0.2,0h0.1c0.1,0,0.2,0,0.3,0c0.2,0,0.4,0.1,0.6,0.1h0.1c0.2,0,0.3,0,0.5,0H32h0.1
		c0,0,0.1,0,0.1-0.1h0.1c0.1-0.1,0.2-0.2,0.3-0.3c0.3-0.3,0.5-0.6,0.6-1c0-0.1-0.1,0-0.2,0h-0.1c-0.1,0-0.1,0-0.2,0
		c-0.1,0.1-0.1,0.1-0.2,0.2l-0.1,0.1l0,0c0,0-0.1,0.1-0.2,0.1h-0.1C32,12,31.8,12,31.7,12.1h-0.1c-0.2,0-0.3,0.1-0.5,0.1
		c-0.1,0-0.3,0-0.4,0.1h-0.1l0,0C30.4,12.5,30.3,12.6,30.1,12.8L30.1,12.8z"/>
	<path class="st1" d="M30.9,11.9c0.1,0,0.2,0,0.3,0c0.1,0,0.2,0,0.3-0.1h0.1c0.1,0,0.3-0.1,0.5-0.1h0.1c0,0,0.1,0,0.1-0.1l0,0
		l0.1-0.1c0.1-0.1,0.2-0.2,0.2-0.3c0.2-0.3,0.4-0.8,0.3-1.2c0-0.1-0.1,0-0.1,0c-0.2,0.2-0.4,0.4-0.6,0.7
		C31.7,11,31.3,11.4,30.9,11.9L30.9,11.9z"/>
	<path class="st1" d="M27.7,16.5L27.7,16.5c0,0.1,0,0.2,0.1,0.2c0.1,0.4,0.1,0.8,0.2,1.2V18c0,0.2,0.1,0.4,0.2,0.6v0.1
		c0,0,0,0.1,0.1,0.1l0.1,0.1c0.4,0.4,1.3,0.7,2.1,0.7c0.1,0,0.1-0.1,0-0.2c-0.3-0.1-0.5-0.2-0.7-0.3c-0.1,0-0.1-0.1-0.2-0.1l0,0
		c-0.1,0-0.1-0.1-0.2-0.2c0-0.1-0.1-0.1-0.1-0.1c-0.1-0.2-0.3-0.5-0.4-0.7v-0.1l0,0c-0.1-0.2-0.2-0.5-0.3-0.7
		c-0.1-0.2-0.2-0.4-0.3-0.6l0,0C28.1,16.6,27.9,16.6,27.7,16.5L27.7,16.5z"/>
	<path class="st1" d="M28.7,16.7c0.2,0.4,0.3,0.8,0.5,1.1c0,0,0,0.1,0.1,0.1c0.1,0.2,0.2,0.4,0.3,0.6l0.1,0.1l0.1,0.1
		c0.1,0,0.1,0.1,0.2,0.1c0.1,0.1,0.3,0.2,0.5,0.2c0.1,0,0.2,0.1,0.4,0.1c0.5,0.1,1.2,0.1,1.7-0.1c0.2-0.1-0.1-0.2-0.1-0.3
		c0,0,0-0.1-0.1-0.1l0,0c-0.3,0-0.6-0.1-0.8-0.1c-0.1,0-0.1,0-0.2-0.1l0,0c-0.1,0-0.1-0.1-0.2-0.1s-0.1-0.1-0.1-0.1
		c-0.2-0.2-0.4-0.4-0.5-0.6c0,0,0,0,0-0.1l0,0c-0.2-0.2-0.3-0.4-0.5-0.6c-0.1-0.1-0.1-0.2-0.2-0.3c0,0-0.1,0-0.1,0.1l0,0
		c-0.2,0.1-0.5,0.1-0.8,0.1C28.8,16.7,28.7,16.7,28.7,16.7L28.7,16.7z"/>
	<path class="st1" d="M29.8,16.1C29.8,16.1,29.8,16.2,29.8,16.1C29.8,16.2,29.8,16.2,29.8,16.1c0.3,0.4,0.5,0.8,0.8,1.2l0.1,0.1
		c0.1,0.2,0.3,0.4,0.5,0.6l0.1,0.1l0.1,0.1c0.1,0,0.1,0,0.2,0.1c0.1,0,0.3,0.1,0.5,0.1c0.1,0,0.2,0,0.4,0c0.6,0,1.3-0.1,1.9-0.4
		c0.2-0.1-0.1-0.2-0.1-0.3l-0.1-0.1l0,0c-0.3,0.1-0.5,0.1-0.8,0.1l0,0c-0.1,0-0.1,0-0.2,0c-0.1,0-0.2,0-0.2,0l0,0
		c-0.1,0-0.2,0-0.2-0.1c-0.1,0-0.1-0.1-0.2-0.1c-0.3-0.2-0.5-0.3-0.7-0.5c0,0,0,0-0.1-0.1l0,0c-0.2-0.2-0.4-0.3-0.6-0.5
		c-0.1-0.1-0.3-0.3-0.4-0.4C30.4,16,30.1,16.1,29.8,16.1L29.8,16.1z"/>
	<path class="st1" d="M31,15.8c0.3,0.3,0.6,0.5,0.9,0.8l0.1,0.1c0.2,0.2,0.4,0.3,0.6,0.5l0.1,0.1c0.1,0,0.1,0,0.2,0.1
		c0.1,0,0.1,0,0.2,0c0.2,0,0.4,0,0.7,0c0.1,0,0.2,0,0.3-0.1c0.6-0.2,1.2-0.5,1.6-0.9c0.1-0.1-0.1-0.2-0.2-0.3L35.4,16l0,0
		c-0.2,0.1-0.4,0.2-0.6,0.2c-0.1,0-0.1,0-0.2,0l0,0l0,0c-0.1,0-0.1,0-0.2,0c-0.1,0-0.1,0-0.2-0.1c-0.3-0.1-0.5-0.2-0.7-0.3
		c0,0,0,0-0.1,0l0,0c-0.2-0.1-0.4-0.2-0.6-0.3c-0.2-0.1-0.4-0.2-0.5-0.3c0,0-0.1,0-0.1-0.1l0,0C32.1,15,32,15,31.9,15
		c-0.2,0.1-0.4,0.2-0.6,0.3c0.1,0,0.2,0.1,0.2,0.3c0,0.1,0,0.2-0.2,0.3l0,0C31.1,15.8,31,15.8,31,15.8L31,15.8z"/>
	<path class="st1" d="M32,14.7c0,0,0.1,0,0.1,0.1h0.1l0,0l0,0c0.4,0.2,0.8,0.5,1.2,0.6c0,0,0.1,0,0.1,0.1c0.2,0.1,0.4,0.2,0.6,0.3
		h0.1c0.1,0,0.1,0,0.2,0c0.1,0,0.1,0,0.2,0c0.1,0,0.2,0,0.3-0.1l0,0c0.1,0,0.2-0.1,0.4-0.1c0.5-0.2,1.1-0.7,1.5-1.2
		c0.1-0.1-0.2-0.1-0.2-0.2h-0.1c0,0-0.1,0-0.2-0.1c-0.2,0.1-0.4,0.2-0.5,0.3c-0.1,0-0.1,0.1-0.2,0.1l0,0c-0.1,0-0.1,0-0.2,0l0,0
		c-0.1,0-0.1,0-0.2,0c-0.3,0-0.5-0.1-0.7-0.1c0,0,0,0-0.1,0l0,0c-0.2,0-0.5-0.1-0.7-0.2c-0.2-0.1-0.4-0.1-0.6-0.1H33l0,0
		c-0.2,0-0.3-0.1-0.5-0.1c-0.1,0-0.1,0-0.2,0c0,0,0.1,0.1,0.1,0.2c0,0.1,0,0.2-0.1,0.3l0,0C32.2,14.6,32.1,14.6,32,14.7L32,14.7z"/>
	<path class="st1" d="M32.7,13.7c0.1,0,0.3,0,0.4,0.1l0,0l0,0h0.1c0.4,0.1,0.8,0.2,1.3,0.3h0.1c0.2,0.1,0.4,0.1,0.7,0.1h0.1
		c0.1,0,0.1,0,0.1,0c0.1,0,0.1,0,0.2-0.1c0.1,0,0.2-0.1,0.2-0.1c0.1-0.1,0.2-0.1,0.3-0.2l0,0c0.4-0.3,0.9-0.9,1.1-1.5
		c0.1-0.2-0.2-0.1-0.3-0.1h-0.1h-0.1l-0.1,0.1l0,0c-0.1,0-0.1,0.1-0.2,0.1c-0.1,0-0.1,0-0.2,0.1c-0.3,0.1-0.5,0.1-0.7,0.2h-0.1l0,0
		c-0.2,0.1-0.5,0.1-0.7,0.1s-0.4,0-0.6,0.1h-0.1l0,0c-0.3,0-0.7,0.2-1.1,0.4C33,13.5,32.9,13.6,32.7,13.7L32.7,13.7z"/>
	<path class="st1" d="M33.2,12.6l0.1,0.1v0.1c0.3-0.1,0.5-0.2,0.8-0.2h0.1c0.4-0.1,0.9-0.1,1.3-0.2h0.1c0.2,0,0.4-0.1,0.6-0.1l0,0
		l0,0h0.1c0,0,0.1,0,0.1-0.1l0.1-0.1l0,0c0.4-0.4,0.9-1.4,0.9-2.3c0-0.2-0.2,0-0.3,0H37c-0.1,0-0.2,0-0.2,0.1s-0.1,0.1-0.1,0.2
		c0,0.1-0.1,0.1-0.1,0.2l0,0c-0.1,0.1-0.1,0.1-0.2,0.2c-0.1,0.1-0.1,0.1-0.2,0.1c-0.3,0.2-0.6,0.4-0.9,0.6c0,0-0.1,0-0.1,0.1
		c0,0,0,0-0.1,0c-0.3,0.2-0.6,0.4-0.9,0.6c-0.3,0.2-0.6,0.3-0.8,0.5C33.3,12.4,33.3,12.5,33.2,12.6L33.2,12.6L33.2,12.6L33.2,12.6
		C33.4,12.5,33.3,12.6,33.2,12.6L33.2,12.6z"/>
	<path class="st1" d="M33.2,12.2C33.3,12.2,33.3,12.2,33.2,12.2c0.2-0.1,0.2-0.1,0.3-0.2c0.6-0.4,1.2-0.7,1.8-1.1
		c0.1,0,0.1-0.1,0.2-0.1c0.3-0.2,0.6-0.4,0.9-0.6c0.1,0,0.1-0.1,0.2-0.1c0.1,0,0.1-0.1,0.1-0.2V9.8c0,0,0-0.1,0.1-0.1
		c0.1-0.1,0.1-0.2,0.2-0.3c0.3-0.7,0.3-1.6-0.2-2.2c-0.1-0.1-0.3,0.1-0.4,0.2c-0.1,0-0.1,0.1-0.2,0.1c-0.1,0.1-0.2,0.1-0.3,0.2
		c0,0.1,0,0.1,0,0.2s0,0.2-0.1,0.2l0,0c0,0.1-0.1,0.2-0.1,0.2c0,0.1-0.1,0.1-0.1,0.2c-0.2,0.3-0.4,0.6-0.7,0.8l-0.1,0.1
		c0,0,0,0-0.1,0.1c-0.2,0.3-0.5,0.6-0.7,0.8s-0.4,0.5-0.6,0.7l0.1,0.1c0,0,0.1,0.2,0.1,0.3l0,0C33.5,11.8,33.4,12,33.2,12.2
		L33.2,12.2z"/>
	<path class="st1" d="M32.9,11.2L32.9,11.2C32.9,11.2,33,11.2,32.9,11.2c0.1,0,0.1,0,0.2,0l0,0l0.1-0.1c0.4-0.5,0.9-1,1.4-1.6
		c0-0.1,0.1-0.1,0.1-0.2c0.2-0.3,0.4-0.5,0.7-0.8c0-0.1,0.1-0.1,0.1-0.2c0-0.1,0.1-0.1,0.1-0.2l0,0c0-0.1,0-0.1,0-0.2s0-0.2,0.1-0.3
		c0.1-0.5,0-1.1-0.3-1.6c0,0.2-0.1,0.5-0.2,0.7c0,0,0,0.1-0.1,0.1l0,0c-0.5,1-1.2,1.9-2,2.7c0.1,0.1,0.1,0.2,0.2,0.3l0,0
		C33.2,10.3,33.1,10.8,32.9,11.2L32.9,11.2z"/>
	<path class="st1" d="M27,12.1c0,0.3-0.1,0.6-0.4,0.9l-2.3,2.3L24,15.1l-0.3,0.1l-2.3-2.3C21.1,12.6,21,12.3,21,12
		c0-0.2,0.1-0.4,0.2-0.6c0.1,0.7,1.1,1.3,2.3,1.4c0.2,0,0.3,0,0.5,0l0,0c0.2,0,0.3,0,0.5,0c1.2-0.1,2.2-0.7,2.3-1.4
		C26.9,11.6,27,11.8,27,12.1L27,12.1z"/>
	<path class="st1" d="M24.3,15.7L24.3,15.7C24.3,15.8,24.3,15.7,24.3,15.7c0,0.2-0.2,1.1-0.3,1.1l0,0l0,0l0,0l0,0l0,0
		c-0.2-0.1-0.3-0.9-0.3-1.1l0,0l0,0l0,0l0,0l0,0c0-0.1,0.2-0.2,0.3-0.3l0,0l0,0l0,0l0,0C24.1,15.5,24.3,15.6,24.3,15.7L24.3,15.7
		L24.3,15.7z"/>
	<path class="st1" d="M24,15.4L24,15.4L24,15.4L24,15.4L24,15.4L24,15.4L24,15.4z"/>
	<path class="st1" d="M24,16.8L24,16.8L24,16.8L24,16.8L24,16.8L24,16.8z"/>
	<path class="st1" d="M24.3,15.7L24.3,15.7L24.3,15.7C24.3,15.7,24.3,15.8,24.3,15.7L24.3,15.7L24.3,15.7z"/>
	<path class="st1" d="M25.5,14.9l-0.7,0.7l0,0L25.5,14.9L25.5,14.9z"/>
	<path class="st2" d="M24.3,15.7L24.3,15.7L24.3,15.7C24.3,15.7,24.3,15.8,24.3,15.7L24.3,15.7L24.3,15.7z"/>
	<path class="st1" d="M24.3,15.7L24.3,15.7L24.3,15.7C24.3,15.7,24.3,15.8,24.3,15.7L24.3,15.7L24.3,15.7z"/>
	<path class="st1" d="M25.5,14.9l-0.7,0.7l0,0L25.5,14.9L25.5,14.9z"/>
	<path class="st1" d="M26.4,14.2h-0.3l0.9-0.9c0.3-0.3,0.4-0.7,0.4-1.1c0-0.6-0.3-1.1-0.7-1.3c0,0,1.2,1.1,0.1,2.2l-2.3,2.3
		c0.1,0.1,0.1,0.2,0.1,0.3l0,0l0,0c0,0.1-0.1,0.4-0.1,0.7c0,0.1-0.1,0.2-0.1,0.3h1.1c0.5,0,1.1-0.4,1.3-0.9l0.2-0.5
		C27.3,14.7,27.1,14.2,26.4,14.2L26.4,14.2z M25.5,15.7c-0.2,0.2-0.4,0.2-0.6,0.1l0,0l0,0c-0.3-0.1-0.2-0.2-0.2-0.2l0,0l0,0l0.7-0.7
		l0,0l0.3-0.3C25.6,15,26.1,15.3,25.5,15.7L25.5,15.7z"/>
	<path class="st1" d="M27.6,15.4c0,0.2,0,0.4,0,0.6c0,0-0.6,1.1-2,1.1h-1.1c-0.3,0-0.3-0.1-0.3-0.1h1.3c0.6,0,1.3-0.5,1.6-1l0.2-0.5
		c0.1-0.2,0.1-0.3,0.2-0.5c0,0,0.1-0.1,0.1,0l0,0C27.5,15.2,27.6,15.3,27.6,15.4L27.6,15.4L27.6,15.4z"/>
	<path class="st1" d="M27.6,15.4c0,0.2,0,0.4,0,0.6c0,0-0.6,1.1-2,1.1h-1.1c-0.3,0-0.3-0.1-0.3-0.1h1.3c0.6,0,1.3-0.5,1.6-1l0.2-0.5
		c0.1-0.2,0.1-0.3,0.2-0.5c0,0,0.1-0.1,0.1,0l0,0C27.5,15.2,27.6,15.3,27.6,15.4L27.6,15.4L27.6,15.4z"/>
	<path class="st1" d="M27.3,21.3L27.1,21c-0.2-0.4-0.5-0.4-0.7,0v0.1V21c-0.2-0.4-0.5-0.4-0.7,0v0.1V21c-0.2-0.4-0.5-0.4-0.7,0
		l-0.2,0.3c-0.1,0.3-0.1,0.5,0.1,0.6l0,0l0,0c0.2,0.1,0.4,0.5,0.4,0.9s-0.1,0.7-0.3,0.9l0,0l0,0c-0.1,0.1-0.2,0.2-0.2,0.4
		c0,0.3,0.2,0.5,0.5,0.5s0.5-0.2,0.5-0.5V24l0,0l0,0l0,0l0,0l0,0l0,0l0,0c0.2-0.2,0.5-0.4,0.7-0.8c0.3-0.5,0.3-1.2,0.5-1.2l0,0l0,0
		h0.2C27.3,22,27.5,21.7,27.3,21.3L27.3,21.3z M25,24.3c-0.2,0-0.3-0.2-0.1-0.2c0.1-0.1,0.5-0.4,0.5-0.4C25.3,24,25.2,24.4,25,24.3z
		 M25.3,21.7c0,0-0.2-0.4-0.3-0.5c-0.1-0.1,0-0.2,0.2-0.2C25.4,21,25.4,21.4,25.3,21.7z M26.1,21.7c0,0-0.2-0.4-0.3-0.5
		c-0.1-0.1,0-0.2,0.2-0.2C26.2,21.1,26.2,21.4,26.1,21.7L26.1,21.7z M26.9,21.7c0,0-0.2-0.4-0.3-0.5c-0.1-0.1,0-0.2,0.2-0.2
		C26.9,21.1,26.9,21.5,26.9,21.7L26.9,21.7z"/>
	<path class="st1" d="M27.3,27.5c-0.3,0.8-0.9,1.8-1,1.5c-0.1-0.1-0.2-0.4-0.4-0.8c-0.1-0.2-0.1-0.4-0.2-0.6
		c-0.2-0.7-0.5-1.6-0.8-2.7c0.3,0,0.6-0.2,0.7-0.5v0.1C26.3,25.8,26.9,26.8,27.3,27.5L27.3,27.5z"/>
	<path class="st1" d="M28.7,26.5c0,0.8-0.4,2-0.6,1.8c-0.1-0.1-0.3-0.3-0.5-0.7c-0.1-0.1-0.1-0.2-0.2-0.2c-0.4-0.7-1-1.6-1.5-2.8
		c-0.1-0.1-0.1-0.2-0.2-0.3l0,0c0.1-0.1,0.3-0.3,0.5-0.5c0,0,0,0.1,0.1,0.1C27.3,25,28.2,26,28.7,26.5z"/>
	<path class="st1" d="M29.2,26.5c0,0-0.1-0.1-0.2-0.1c-0.1-0.1-0.1-0.1-0.2-0.2c-0.5-0.5-1.4-1.4-2.3-2.6c0-0.1-0.1-0.1-0.1-0.2l0,0
		c0.1-0.3,0.2-0.5,0.3-0.8c0-0.1,0-0.1,0-0.2c1.5,1.4,2.5,1.7,2.6,2.2C29.5,25.2,29.4,26.7,29.2,26.5L29.2,26.5z"/>
	<path class="st1" d="M27.4,18.2c0,0.3-0.3,0.6-0.3,0.6c-0.8,0.6-2.5,0.1-2.5,0.1c1.1,0.5,1.9,0.4,2.5,0.2c-0.1,0.5-0.2,0.9-0.3,1.3
		c-0.1,0-0.3,0.1-0.4,0.1s-0.1-0.1-0.2-0.1s-0.1,0-0.2,0c-0.2,0-0.3,0.1-0.4,0.2c-0.1-0.1-0.3-0.2-0.4-0.2c-0.2,0-0.5,0.2-0.6,0.4
		l-0.2,0.3c-0.2,0.3-0.1,0.5-0.1,0.6c0,0.2,0.2,0.3,0.3,0.4l0,0c0.1,0,0.2,0.2,0.2,0.5c0,0,0,0.1,0,0.2l0,0v0.1c0,0.1,0,0.2-0.1,0.3
		c0,0.1-0.1,0.2-0.1,0.2l0,0c0,0,0,0-0.1,0l0,0l0,0l0,0l0,0l0,0l0,0l0,0l0,0l0,0c-0.1,0.1-0.1,0.3-0.1,0.5c0,0.4,0.2,0.7,0.6,0.8
		c0.3,1.4,0.7,2.5,1,3.3c-0.3,0.7-1.4,1.9-1.7,1.8c-0.3,0.1-1.4-1.1-1.7-1.8c0.3-0.8,0.7-1.9,1-3.3c0.3-0.1,0.6-0.4,0.6-0.8
		c0-0.2-0.1-0.3-0.1-0.5l0,0l0,0l0,0l0,0l0,0l0,0l0,0l0,0l0,0c0,0,0,0-0.1,0l0,0c0,0-0.1-0.1-0.1-0.2s-0.1-0.2-0.1-0.3v-0.1l0,0
		c0-0.1,0-0.1,0-0.2c0-0.3,0.1-0.5,0.2-0.5l0,0c0.2-0.1,0.3-0.2,0.3-0.4c0-0.1,0.1-0.3-0.1-0.6L24,20.8c-0.2-0.3-0.4-0.4-0.6-0.4
		s-0.3,0.1-0.4,0.2c-0.1-0.1-0.3-0.2-0.4-0.2s-0.1,0-0.2,0s-0.1,0.1-0.2,0.1c-0.1-0.1-0.3-0.1-0.4-0.1c-0.1-0.4-0.2-0.8-0.3-1.3
		c0.6,0.2,1.4,0.3,2.5-0.2c0,0-1.7,0.5-2.5-0.1c0,0-0.3-0.3-0.3-0.6c0-0.3,0-1.5,0.1-1.5l0,0l0,0c0.4,0.3,0.9,0.7,1.7,0.7h1.1
		c0.3,0,0.4-0.1,0.5-0.2l0,0l0,0c0.1,0.1,0.2,0.2,0.5,0.2h1.1c0.8,0,1.4-0.3,1.7-0.7l0,0l0,0C27.4,16.8,27.4,17.9,27.4,18.2
		L27.4,18.2z"/>
	<path class="st1" d="M24,17.3L24,17.3L24,17.3C24,17.2,24,17.2,24,17.3L24,17.3z"/>
	<path class="st1" d="M24,15.4L24,15.4L24,15.4L24,15.4L24,15.4z"/>
	<path class="st1" d="M24,16.8L24,16.8L24,16.8L24,16.8L24,16.8z"/>
	<path class="st1" d="M35.1,5.5c0,0.4-0.1,0.8-0.2,1.2c0,0,0,0.1-0.1,0.1l0,0c-1.4,2.8-5,5-6.9,8.9l0,0c0-0.1,0-0.2,0-0.3v-0.3
		c0-0.5-0.5-0.7-0.6-0.8l0,0c-0.3-0.3-0.1-0.6,0-0.7l0,0l0,0l0,0l0,0c0.2-0.2,0.4-0.5,0.4-0.9c0.2-0.8-0.3-1.4-0.3-1.5
		c0.5,0.5,0.6,1.1,0.6,1.4c0.6-0.3,1.5-0.8,2-2c0.3-0.6,0.8-1.4,1.5-2.3c0.6-0.7,1.3-1.5,1.9-2.2c0.4-0.4,0.7-0.7,1-1l0,0l0,0
		c0.4-0.4,0.2-0.9,0.2-0.9s0.1,0.1,0.2,0.5C35,4.9,35.1,5.2,35.1,5.5L35.1,5.5z"/>
	<path class="st1" d="M2.2,5.1c0.1,0.1,0.1,0.2,0.2,0.3c0.1,0.2,0.2,0.3,0.4,0.4c0.7,0.7,3.1,0.6,7.4,2c0.1,0,0.3,0.1,0.5,0.2V7.9
		c0-0.1,0.1-0.2,0.1-0.4c0-0.1,0.1-0.2,0.1-0.3L11,7.1C9.3,6.2,8,5.6,7,5.2C5.9,4.8,5.3,4.5,5,4C4.9,3.9,4.8,3.6,4.7,3.4
		c-1.6-0.7-2.8-1-3.2-1.1C0.8,2.1,1.4,3.9,2.2,5.1L2.2,5.1z"/>
	<path class="st1" d="M7.5,18.5c0.1,0,0.3,0,0.4,0s0.2,0,0.3-0.1c0.7-0.2,1.3-1.4,3.1-3.3L11.2,15c-0.1-0.1-0.1-0.1-0.2-0.2
		l-0.1-0.1l0,0c-0.1-0.1-0.1-0.3-0.1-0.3c0.1-0.2,0.2-0.2,0.3-0.2l0,0c0,0,0,0,0.1,0h0.1c-0.1-0.1-0.3-0.3-0.4-0.4
		c-1.3,0.9-2.1,1.7-2.8,2.3c-0.8,0.8-1.3,1.2-1.9,1.2c-0.1,0-0.1,0-0.2,0s-0.1,0-0.2,0c-0.4,0.4-0.7,0.6-0.8,0.8
		C4.7,18.3,6.3,18.6,7.5,18.5L7.5,18.5z"/>
	<path class="st1" d="M10.2,19.5C10.2,19.5,10.3,19.5,10.2,19.5c0.2-0.1,0.3-0.2,0.5-0.4l0,0c0.4-0.5,0.7-1.3,1.5-2.5l-0.1-0.1l0,0
		l0,0C12,16.4,12,16.3,12,16.2c0-0.2,0.2-0.3,0.3-0.3l0,0l0,0c-0.1,0-0.1-0.1-0.2-0.1c-0.2-0.1-0.4-0.3-0.6-0.5
		c-0.7,0.7-1.2,1.4-1.6,1.9c-0.7,0.9-1.1,1.4-1.6,1.5c-0.2,0-0.4,0.1-0.6,0.1c-0.3,0.3-0.4,0.6-0.5,0.7C6.9,20,9.1,20,10.2,19.5
		L10.2,19.5z"/>
	<path class="st1" d="M3.4,15c0.2,0,0.3,0,0.4,0c0.2,0,0.4,0.1,0.5,0.1c0.9,0,2.5-1.6,6.3-3.3l-0.1-0.1c0-0.1-0.1-0.2-0.1-0.3
		c-0.1-0.2-0.2-0.4-0.3-0.7c-0.1,0-0.3,0.1-0.4,0.2l0,0c-0.1,0-0.2,0.1-0.4,0.1c-0.5,0.2-1,0.4-1.5,0.6c-0.6,0.2-1.1,0.4-1.7,0.6
		c0,0-0.1,0-0.1,0.1c-0.1,0-0.1,0-0.2,0.1c-0.5,0.2-1.1,0.4-1.7,0.6c-0.1,0-0.2,0.1-0.4,0.1C3.6,13,3.5,13,3.3,13l0,0l0,0
		c-0.1,0-0.2,0-0.3,0c-0.2,0-0.4,0-0.6-0.1c-0.6,0.3-1,0.5-1.2,0.6C0.7,13.8,2.2,14.6,3.4,15L3.4,15z"/>
	<path class="st1" d="M5.7,16.8L5.7,16.8c0.2,0,0.3,0,0.4,0c0,0,0,0,0.1,0c0.8-0.1,1.8-1.5,4.5-3.5l0,0c-0.1-0.1-0.1-0.2-0.2-0.2
		c-0.1-0.2-0.2-0.4-0.3-0.6l0,0c0-0.1,0-0.2,0-0.2c-1.6,0.8-2.8,1.5-3.6,2.1c-1,0.6-1.6,1-2.2,1c0,0,0,0-0.1,0
		c-0.2,0-0.5-0.1-0.8-0.1c-0.3,0.2-0.5,0.3-0.6,0.4C2.5,16.1,4.4,16.7,5.7,16.8L5.7,16.8z"/>
	<path class="st1" d="M15.2,21.2c0,0.4,0.1,0.7,0.1,0.8c0.1,0.3,1.2-0.6,1.8-1.4c0.1-0.1,0.1-0.2,0.2-0.3c0.1-0.1,0.2-0.2,0.2-0.3
		l0,0l0,0l0,0l0,0l0,0h-0.1l0,0c-0.2,0-0.2-0.1-0.3-0.2c0-0.1-0.1-0.2,0-0.2c-0.2,0-0.5,0.1-0.7,0.1s-0.4,0-0.6,0l0,0v0.1v0.1
		c0,0.1,0,0.2,0,0.3c0,0.1-0.1,0.2-0.1,0.3l0,0c0,0.1-0.1,0.2-0.1,0.3C15.5,20.9,15.4,21,15.2,21.2L15.2,21.2z"/>
	<path class="st1" d="M12.7,22c0.8,0.1,1.7-0.3,2.2-0.9c0.1-0.1,0.2-0.2,0.3-0.4c0.1-0.1,0.1-0.2,0.1-0.2c0-0.1,0.1-0.2,0.1-0.2
		c0-0.1,0.1-0.2,0.1-0.3c0-0.1,0-0.2,0-0.3c0-0.1,0-0.2,0-0.3c-0.1,0-0.1,0-0.1,0l0,0c-0.2-0.1-0.2-0.2-0.2-0.2c0-0.1,0-0.2,0-0.2
		c0-0.1,0.1-0.1,0.1-0.2l0,0c0,0,0,0,0-0.1l0,0h-0.1c-0.1,0-0.2,0-0.3,0c-0.4,0-0.7-0.1-1-0.3c-0.1,0.4-0.2,0.8-0.3,1.3
		c0,0.1-0.1,0.2-0.1,0.3c0,0.1-0.1,0.2-0.1,0.3l0,0c-0.1,0.1-0.1,0.2-0.2,0.2c-0.1,0.1-0.2,0.3-0.4,0.4c0,0.1,0,0.2,0,0.3
		c0,0.1,0,0.2,0,0.3C12.7,21.7,12.5,22,12.7,22L12.7,22z"/>
	<path class="st1" d="M10.1,21.3c0.8,0.3,1.8,0,2.4-0.6c0.1-0.1,0.3-0.2,0.4-0.3c0,0,0-0.1,0.1-0.1c0.1-0.1,0.1-0.1,0.2-0.2
		c0-0.1,0.1-0.1,0.1-0.2s0.1-0.2,0.1-0.3c0.1-0.4,0.3-0.9,0.3-1.3l0,0h-0.1l0,0c-0.1,0-0.1-0.1-0.1-0.1c0-0.1,0-0.1-0.1-0.1
		c0-0.2,0.1-0.3,0.2-0.4l0,0v-0.1c-0.1,0-0.2-0.1-0.3-0.1c-0.3-0.1-0.7-0.3-0.9-0.5c-0.3,0.5-0.5,1-0.8,1.3
		c-0.5,0.8-0.7,1.4-1.2,1.6c-0.1,0.2-0.2,0.4-0.2,0.7c0,0.1-0.1,0.2-0.1,0.2C10.1,20.9,9.9,21.2,10.1,21.3L10.1,21.3z"/>
	<path class="st1" d="M1.2,7.5c0.1,0.1,0.3,0.2,0.4,0.3c0.1,0.1,0.2,0.1,0.3,0.1C2,8,2.1,8,2.3,8.1c0.1,0,0.2,0.1,0.3,0.1
		s0.2,0,0.3,0c0.6,0,1.1,0.1,1.7,0.1c0.1,0,0.2,0,0.3,0c1.1,0.1,2.2,0,3.3,0c0.1,0,0.2,0,0.4,0c0.7,0,1.4,0.1,2,0.2V8.4
		c-0.2-0.1-0.3-0.1-0.5-0.2C9.5,7.9,8.9,7.8,8.3,7.6C7,7.3,6,7.1,5.1,6.9C3.8,6.7,3,6.5,2.6,6.1C2.4,5.9,2.2,5.7,2.1,5.4
		c-0.3,0-0.5-0.1-0.8-0.1c-0.1,0-0.2,0-0.3,0c-0.3,0-0.7-0.1-0.8,0C0,6.2,0.5,7,1.2,7.5L1.2,7.5z"/>
	<path class="st1" d="M0,8.1c0,0.9,0.7,1.6,1.5,2c0.2,0.1,0.3,0.1,0.5,0.2c0.1,0,0.1,0,0.2,0c0.1,0,0.2,0.1,0.3,0.1s0.2,0,0.3,0
		s0.2,0,0.3,0c0.6-0.1,1.1-0.1,1.6-0.2c0.1,0,0.2,0,0.3-0.1c1.1-0.2,2.2-0.4,3.3-0.6c0.1,0,0.2,0,0.4-0.1c0.6-0.1,1.3-0.2,1.9-0.2
		c0,0,0,0,0-0.1s0-0.2,0-0.3c0,0,0,0,0-0.1c-0.6,0-1.3-0.1-1.9-0.1H8.6l0,0l0,0c-0.1,0-0.2,0-0.4,0c-0.3,0-0.6,0-1,0
		c-0.2,0-0.4,0-0.5,0c-0.2,0-0.4,0-0.5,0c-0.3,0-0.8,0-1.2,0H4.9c-0.1,0-0.1,0-0.2,0l0,0c-0.5,0-1.1,0-1.7-0.1c-0.1,0-0.3,0-0.3,0
		c-0.1,0-0.3,0-0.4-0.1l0,0C2,8.3,1.9,8.2,1.8,8.2C1.6,8.1,1.4,8,1.2,7.8H1.1c-0.1,0-0.2,0-0.3,0C0.5,8,0,7.9,0,8.1L0,8.1z"/>
	<path class="st1" d="M0.3,10.8c0.1,1,1.1,1.6,2.1,1.8c0.2,0,0.4,0.1,0.6,0.1c0,0,0,0,0.1,0s0.2,0,0.3,0s0.2,0,0.3-0.1
		c0.1,0,0.2-0.1,0.3-0.1c0.6-0.2,1.1-0.3,1.6-0.5c0.1,0,0.2-0.1,0.3-0.1c1.1-0.4,2.2-0.8,3.3-1.2c0.1,0,0.2-0.1,0.4-0.1
		c0.1-0.1,0.3-0.1,0.4-0.2c0,0,0,0,0-0.1s0-0.2-0.1-0.3c0-0.1,0-0.3,0-0.5l0,0V9.4c-0.4,0-0.7,0.1-1.1,0.2l0,0c-0.1,0-0.2,0-0.4,0
		C8,9.8,7.4,9.9,6.9,10c-0.6,0.1-1.1,0.2-1.7,0.3H5.1c-0.1,0-0.1,0-0.2,0c-0.5,0.1-1.1,0.2-1.7,0.2c-0.1,0-0.2,0-0.3,0s-0.1,0-0.2,0
		c-0.1,0-0.1,0-0.2,0l0,0c-0.1,0-0.2,0-0.3-0.1c-0.2,0-0.4-0.1-0.7-0.2c-0.1,0-0.1,0-0.2,0S1.1,10.3,1,10.3
		C0.8,10.6,0.3,10.6,0.3,10.8L0.3,10.8z"/>
	<path class="st1" d="M17.5,20.7L17.5,20.7c0.1,0.1,0.1,0.2,0.1,0.2c0.1,0.1,0.1,0.4,0.3,0.3c0,0,0,0,0.1,0l0,0l0,0l0,0l0,0l0,0
		c0,0,0,0,0.1-0.1c0,0,0,0,0.1,0c0,0,0,0,0.1-0.1c0,0,0,0,0.1-0.1l0.1-0.1l0.1-0.1l0,0c0,0,0,0,0-0.1l0,0l0.1-0.1l0,0c0,0,0,0,0-0.1
		c0,0,0,0,0-0.1c0,0,0-0.1,0.1-0.1c0,0,0,0,0-0.1c0,0,0-0.1,0.1-0.1l0,0c0,0,0,0,0-0.1l0,0c0,0,0,0,0-0.1c0,0,0,0,0-0.1l0,0
		c-0.3,0.1-0.7,0.2-1.1,0.3l0,0l0,0c0,0,0,0,0,0.1v0.1l0,0l0,0l0,0C17.7,20.3,17.6,20.5,17.5,20.7L17.5,20.7z"/>
	<path class="st1" d="M7.5,2c0,0.1,0,0.2,0,0.4c0,0.3,0.1,0.7,0.2,0.9C7.9,3.9,9.1,4.5,10.8,6c0.4,0.3,0.8,0.7,1.2,1.1l0,0
		c0-0.1,0-0.2,0-0.3c0-0.2,0.1-0.4,0.2-0.6c0-0.1,0.1-0.2,0.1-0.2l0,0c0-0.1,0.1-0.1,0.2-0.1c0-0.1,0-0.2,0-0.3c0-0.1,0-0.2,0-0.3
		c-2-3-3.9-4.9-4.4-5.3C7.7-0.2,7.5,0.9,7.5,2L7.5,2z"/>
	<path class="st1" d="M4.9,3.1C5,3.3,5,3.4,5.1,3.5s0.1,0.3,0.2,0.4C5.7,4.6,7.8,5,11.2,7h0.1c0.2,0,0.3,0.1,0.4,0.2l0.1,0.1l0,0
		c-0.4-0.4-0.8-0.7-1.2-1c-0.5-0.4-0.9-0.7-1.3-1C9.3,5.1,9.2,5,9.1,5C8.2,4.3,7.6,3.9,7.5,3.4C7.3,3,7.3,2.6,7.2,2.1
		C6,1.3,5.2,0.8,4.8,0.7C4.3,0.5,4.5,2,4.9,3.1L4.9,3.1z"/>
	<path class="st1" d="M19.1,20.2c0,0.4,0.5,0.3,1,0.1c0.5-0.2,0.9,0.1,0.9,0.1c0-0.1-0.2-0.6-0.3-1.1c0-0.1,0-0.1,0-0.2
		c-0.1-0.1-0.4-0.4-0.4-0.8c0-0.1,0-0.2,0-0.3l0,0l0,0c0,0,0,0,0,0.1c0,0.2-0.1,0.4-0.2,0.6c0,0,0,0.1-0.1,0.1
		c0,0.1-0.1,0.1-0.1,0.2l0,0l-0.1,0.1c-0.1,0.1-0.3,0.3-0.6,0.4c0,0.1,0,0.1,0,0.2l0,0l0,0c0,0,0,0,0,0.1c0,0,0,0,0,0.1
		c0,0,0,0,0,0.1C19.2,20,19.2,20,19.1,20.2L19.1,20.2C19.1,20.1,19.1,20.1,19.1,20.2L19.1,20.2z"/>
	<path class="st1" d="M20,16.3c-0.4,0.1-1,0.1-1.5,0c-0.1,0,0-0.1,0-0.2c0.1,0,0.2,0,0.3,0c0.1,0,0.1,0,0.1,0l0,0
		c0.1,0,0.1,0,0.2-0.1l0.1-0.1c0.1-0.1,0.3-0.2,0.4-0.3l0,0C19.7,15.6,19.9,15.9,20,16.3L20,16.3z"/>
	<path class="st1" d="M19.1,14.6c0.1,0.2,0.3,0.5,0.4,0.7c0,0,0,0-0.1,0.1c0,0,0,0-0.1,0.1s-0.2,0.2-0.3,0.3c0,0-0.1,0-0.1,0.1h-0.1
		c0,0,0,0-0.1,0l0,0c0,0,0,0-0.1,0s-0.3,0-0.4,0c-0.4,0-1-0.1-1.4-0.3c-0.1-0.1,0.1-0.1,0.1-0.2c0,0,0,0,0.1-0.1l0,0l0,0
		c0.1,0,0.2,0,0.3,0h0.1l0,0l0,0c0.1,0,0.1,0,0.2,0h0.1c0.2-0.1,0.3-0.1,0.5-0.2l0,0l0,0c0.2-0.1,0.3-0.2,0.4-0.2
		C19,14.7,19.1,14.6,19.1,14.6L19.1,14.6z"/>
	<path class="st1" d="M19,14.3c-0.1,0.1-0.3,0.2-0.4,0.3l0,0c-0.1,0-0.1,0.1-0.2,0.1c0,0,0,0-0.1,0c-0.1,0.1-0.3,0.1-0.4,0.2h-0.1
		h-0.1l0,0h-0.1c-0.1,0-0.3,0-0.4-0.1c-0.4-0.1-0.9-0.3-1.2-0.6c-0.1-0.1,0.1-0.1,0.1-0.1c0.1,0,0.1,0.1,0.2,0.1h0.1l0,0h0.1
		c0,0,0,0,0.1,0h0.1c0.2,0,0.4-0.1,0.5-0.1c0,0,0,0,0.1,0l0,0c0.2,0,0.3-0.1,0.5-0.1c0.1,0,0.3-0.1,0.4-0.1h0.1c0,0,0,0,0.1,0
		s0.2-0.1,0.3-0.1C18.7,13.9,18.8,14.1,19,14.3z"/>
	<path class="st1" d="M18.4,13.5c-0.1,0-0.2,0-0.2,0.1h-0.1c-0.2,0.1-0.4,0.2-0.7,0.2l0,0c-0.1,0-0.1,0-0.2,0.1h-0.1
		c-0.1,0-0.3,0.1-0.5,0.1h-0.1h-0.1l0,0l0,0h-0.1c-0.1,0-0.2-0.1-0.3-0.1c-0.4-0.2-0.8-0.5-1.1-0.9c-0.1-0.1,0.1-0.1,0.2-0.1h0.1
		l0,0c0.1,0.1,0.3,0.2,0.4,0.3c0,0,0.1,0,0.1,0.1l0,0c0.1,0,0.1,0,0.2,0H16c0.1,0,0.1,0,0.2,0s0.2,0,0.3,0c0,0,0,0,0.1,0l0,0
		c0.2,0,0.3,0,0.5,0c0.1,0,0.3,0,0.4,0c0,0,0,0,0.1,0l0,0l0,0h0.1c0.1,0,0.2,0,0.3,0C18.2,13.2,18.3,13.4,18.4,13.5L18.4,13.5z"/>
	<path class="st1" d="M17.9,12.8c-0.1,0-0.1,0-0.2,0h-0.1c-0.1,0-0.2,0-0.3,0c-0.2,0-0.4,0.1-0.6,0.1h-0.1c-0.2,0-0.3,0-0.5,0H16
		h-0.1c0,0-0.1,0-0.1-0.1h-0.1c-0.1-0.1-0.2-0.2-0.3-0.3c-0.3-0.3-0.5-0.6-0.6-1c0-0.1,0.1,0,0.2,0h0.1c0.1,0,0.1,0,0.2,0
		c0.1,0.1,0.1,0.1,0.2,0.2l0.1,0.1l0,0c0,0,0.1,0.1,0.2,0.1h0.1c0.2,0.1,0.3,0.1,0.5,0.1h0.1c0.2,0,0.3,0.1,0.5,0.1
		c0.1,0,0.3,0,0.4,0.1h0.1l0,0C17.6,12.5,17.7,12.6,17.9,12.8L17.9,12.8z"/>
	<path class="st1" d="M17.1,11.9c-0.1,0-0.2,0-0.3,0c-0.1,0-0.2,0-0.3-0.1h-0.1c-0.1,0-0.3-0.1-0.5-0.1h-0.1c0,0-0.1,0-0.1-0.1l0,0
		l-0.1-0.1c-0.1-0.1-0.2-0.2-0.2-0.3c-0.2-0.3-0.4-0.8-0.3-1.2c0-0.1,0.1,0,0.1,0c0.2,0.2,0.4,0.4,0.6,0.7
		C16.3,11,16.7,11.4,17.1,11.9L17.1,11.9z"/>
	<path class="st1" d="M20.3,16.5L20.3,16.5c0,0.1,0,0.2-0.1,0.2c-0.1,0.4-0.1,0.8-0.2,1.2V18c0,0.2-0.1,0.4-0.2,0.6v0.1
		c0,0,0,0.1-0.1,0.1l-0.1,0.1c-0.4,0.4-1.3,0.7-2.1,0.7c-0.1,0-0.1-0.1,0-0.2c0.3-0.1,0.5-0.2,0.7-0.3c0.1,0,0.1-0.1,0.2-0.1l0,0
		c0.1,0,0.1-0.1,0.2-0.2c0-0.1,0.1-0.1,0.1-0.1c0.1-0.2,0.3-0.5,0.4-0.7v-0.1l0,0c0.1-0.2,0.2-0.5,0.3-0.7c0.1-0.2,0.2-0.4,0.3-0.6
		l0,0C19.9,16.6,20.1,16.6,20.3,16.5L20.3,16.5z"/>
	<path class="st1" d="M19.3,16.7c-0.2,0.4-0.3,0.8-0.5,1.1c0,0,0,0.1-0.1,0.1c-0.1,0.2-0.2,0.4-0.3,0.6l-0.1,0.1l-0.1,0.1
		c-0.1,0-0.1,0.1-0.2,0.1c0,0.2-0.2,0.2-0.4,0.3c-0.1,0-0.2,0.1-0.4,0.1c-0.5,0.1-1.2,0.1-1.7-0.1c-0.2-0.1,0.1-0.2,0.1-0.3
		c0,0,0-0.1,0.1-0.1l0,0c0.3,0,0.6-0.1,0.8-0.1c0.1,0,0.1,0,0.2-0.1l0,0c0.1,0,0.1-0.1,0.2-0.1s0.1-0.1,0.1-0.1
		c0.2-0.2,0.4-0.4,0.5-0.6c0,0,0,0,0-0.1l0,0c0.2-0.2,0.3-0.4,0.5-0.6c0.1-0.1,0.1-0.2,0.2-0.3c0,0,0.1,0,0.1,0.1l0,0
		c0.2,0.1,0.5,0.1,0.8,0.1C19.2,16.7,19.3,16.7,19.3,16.7L19.3,16.7z"/>
	<path class="st1" d="M18.2,16.1C18.2,16.1,18.2,16.2,18.2,16.1C18.2,16.2,18.2,16.2,18.2,16.1c-0.3,0.4-0.5,0.8-0.8,1.2l-0.1,0.1
		c-0.1,0.2-0.3,0.4-0.5,0.6l-0.1,0.1l-0.1,0.1c-0.1,0-0.1,0-0.2,0.1c-0.1,0-0.3,0.1-0.5,0.1c-0.1,0-0.2,0-0.4,0
		c-0.6,0-1.3-0.1-1.9-0.4c-0.2-0.1,0.1-0.2,0.1-0.3l0.1-0.1l0,0c0.3,0.1,0.5,0.1,0.8,0.1l0,0c0.1,0,0.1,0,0.2,0c0.1,0,0.2,0,0.2,0
		l0,0c0.1,0,0.2,0,0.2-0.1c0.1,0,0.1-0.1,0.2-0.1c0.3-0.2,0.5-0.3,0.7-0.5c0,0,0,0,0.1-0.1l0,0c0.2-0.2,0.4-0.3,0.6-0.5
		c0.1-0.1,0.3-0.3,0.4-0.4C17.6,16,17.9,16.1,18.2,16.1L18.2,16.1z"/>
	<path class="st1" d="M17,15.8c-0.3,0.3-0.6,0.5-0.9,0.8L16,16.7c-0.2,0.2-0.4,0.3-0.6,0.5l-0.1,0.1c-0.1,0-0.1,0-0.2,0.1
		c-0.1,0-0.1,0-0.2,0c-0.2,0-0.4,0-0.7,0c-0.1,0-0.2,0-0.3-0.1c-0.6-0.2-1.2-0.5-1.6-0.9c-0.1-0.1,0.1-0.2,0.2-0.3l0.1-0.1l0,0
		c0.2,0.1,0.4,0.2,0.6,0.2c0.1,0,0.1,0,0.2,0l0,0l0,0c0.1,0,0.1,0,0.2,0c0.1,0,0.1,0,0.2-0.1c0.3-0.1,0.5-0.2,0.7-0.3c0,0,0,0,0.1,0
		l0,0c0.2-0.1,0.4-0.2,0.6-0.3c0.2-0.1,0.4-0.2,0.5-0.3c0,0,0.1,0,0.1-0.1l0,0C15.9,15,16,15,16.1,15c0.2,0.1,0.4,0.2,0.6,0.3
		c-0.1,0-0.2,0.1-0.2,0.3c0,0.1,0,0.2,0.2,0.3l0,0C16.9,15.8,17,15.8,17,15.8L17,15.8z"/>
	<path class="st1" d="M16,14.7c0,0-0.1,0-0.1,0.1h-0.1l0,0l0,0c-0.4,0.2-0.8,0.5-1.2,0.6c0,0-0.1,0-0.1,0.1
		c-0.2,0.1-0.4,0.2-0.6,0.3h-0.1c-0.1,0-0.1,0-0.2,0c-0.1,0-0.1,0-0.2,0c-0.1,0-0.2,0-0.3-0.1l0,0c-0.1,0-0.2-0.1-0.4-0.1
		c-0.5-0.2-1.1-0.7-1.5-1.2c-0.1-0.1,0.2-0.1,0.2-0.2h0.1c0,0,0.1,0,0.2-0.1c0.2,0.1,0.4,0.2,0.5,0.3c0.1,0,0.1,0.1,0.2,0.1l0,0
		c0.1,0,0.1,0,0.2,0l0,0c0.1,0,0.1,0,0.2,0c0.3,0,0.5-0.1,0.7-0.1c0,0,0,0,0.1,0l0,0c0.2,0,0.5-0.1,0.7-0.2c0.2-0.1,0.4-0.1,0.6-0.1
		H15l0,0c0.2,0,0.3-0.1,0.5-0.1c0.1,0,0.1,0,0.2,0c0,0-0.1,0.1-0.1,0.2c0,0.1,0,0.2,0.1,0.3l0,0C15.8,14.6,15.9,14.6,16,14.7
		L16,14.7z"/>
	<path class="st1" d="M15.3,13.7c-0.1,0-0.3,0-0.4,0.1l0,0l0,0h-0.1c-0.4,0.1-0.8,0.2-1.3,0.3h-0.1c-0.2,0.1-0.4,0.1-0.7,0.1h-0.1
		c-0.1,0-0.1,0-0.1,0c-0.1,0-0.1,0-0.2-0.1c-0.1,0-0.2-0.1-0.2-0.1c-0.1-0.1-0.2-0.1-0.3-0.2l0,0c-0.4-0.3-0.9-0.9-1.1-1.5
		c-0.1-0.2,0.2-0.1,0.3-0.1h0.1h0.1l0.1,0.1l0,0c0.1,0,0.1,0.1,0.2,0.1c0.1,0,0.1,0,0.2,0.1c0.3,0.1,0.5,0.1,0.7,0.2h0.1l0,0
		c0.2,0.1,0.5,0.1,0.7,0.1s0.4,0,0.6,0.1h0.1l0,0c0.3,0,0.7,0.2,1.1,0.4C15,13.5,15.1,13.6,15.3,13.7L15.3,13.7z"/>
	<path class="st1" d="M14.8,12.6l-0.1,0.1v0.1c-0.3-0.1-0.5-0.2-0.8-0.2h-0.1c-0.4-0.1-0.9-0.1-1.3-0.2h-0.1c-0.2,0-0.4-0.1-0.6-0.1
		l0,0l0,0h-0.1c0,0-0.1,0-0.1-0.1l-0.1-0.1l0,0c-0.4-0.4-0.9-1.4-0.9-2.3c0-0.2,0.2,0,0.3,0H11c0.1,0,0.2,0,0.2,0.1s0.1,0.1,0.1,0.2
		c0,0.1,0.1,0.1,0.1,0.2l0,0c0.1,0.1,0.1,0.1,0.2,0.2c0.1,0.1,0.1,0.1,0.2,0.1c0.3,0.2,0.6,0.4,0.9,0.6c0,0,0.1,0,0.1,0.1
		c0,0,0,0,0.1,0c0.3,0.2,0.6,0.4,0.9,0.6c0.3,0.2,0.6,0.3,0.8,0.5C14.7,12.4,14.7,12.5,14.8,12.6L14.8,12.6L14.8,12.6L14.8,12.6
		C14.6,12.5,14.7,12.6,14.8,12.6L14.8,12.6z"/>
	<path class="st1" d="M14.8,12.2C14.7,12.2,14.7,12.2,14.8,12.2c-0.2-0.1-0.2-0.1-0.3-0.2c-0.6-0.4-1.2-0.7-1.8-1.1
		c-0.1,0-0.1-0.1-0.2-0.1c-0.3-0.2-0.6-0.4-0.9-0.6c-0.1,0-0.1-0.1-0.2-0.1c-0.1,0-0.1-0.1-0.1-0.2V9.8c0,0,0-0.1-0.1-0.1
		c-0.1-0.1-0.1-0.2-0.2-0.3c-0.3-0.7-0.3-1.6,0.2-2.2c0.1-0.1,0.3,0.1,0.4,0.2c0.1,0,0.1,0.1,0.2,0.1c0.1,0.1,0.2,0.1,0.3,0.2
		c0,0.1,0,0.1,0,0.2s0,0.2,0.1,0.2l0,0c0,0.1,0.1,0.2,0.1,0.2c0,0.1,0.1,0.1,0.1,0.2c0.2,0.3,0.4,0.6,0.7,0.8l0.1,0.1
		c0,0,0,0,0.1,0.1c0.2,0.3,0.5,0.6,0.7,0.8s0.4,0.5,0.6,0.7l-0.1,0.1c0,0-0.1,0.2-0.1,0.3l0,0C14.5,11.8,14.6,12,14.8,12.2
		L14.8,12.2z"/>
	<path class="st1" d="M15.1,11.2L15.1,11.2C15.1,11.2,15,11.2,15.1,11.2c-0.1,0-0.1,0-0.2,0l0,0l-0.1-0.1c-0.4-0.5-0.9-1-1.4-1.6
		c0-0.1-0.1-0.1-0.1-0.2c-0.2-0.3-0.4-0.5-0.7-0.8c0-0.1-0.1-0.1-0.1-0.2c0-0.1-0.1-0.1-0.1-0.2l0,0c0-0.1,0-0.1,0-0.2
		s0-0.2-0.1-0.3c-0.1-0.5,0-1.1,0.3-1.6c0,0.2,0.1,0.5,0.2,0.7c0,0,0,0.1,0.1,0.1l0,0c0.5,1,1.2,1.9,2,2.7c-0.1,0.1-0.1,0.2-0.2,0.3
		l0,0C14.8,10.3,14.9,10.8,15.1,11.2L15.1,11.2z"/>
	<path class="st1" d="M23.7,15.7L23.7,15.7C23.7,15.8,23.7,15.7,23.7,15.7L23.7,15.7L23.7,15.7z"/>
	<path class="st1" d="M24,16.8L24,16.8L24,16.8L24,16.8L24,16.8L24,16.8z"/>
	<path class="st1" d="M24,15.4L24,15.4L24,15.4L24,15.4L24,15.4L24,15.4L24,15.4z"/>
	<path class="st1" d="M22.5,14.9L22.5,14.9l0.7,0.7l0,0L22.5,14.9z"/>
	<path class="st2" d="M23.7,15.8C23.7,15.8,23.7,15.7,23.7,15.8C23.7,15.7,23.7,15.7,23.7,15.8L23.7,15.8L23.7,15.8z"/>
	<path class="st1" d="M23.7,15.8C23.7,15.8,23.7,15.7,23.7,15.8C23.7,15.7,23.7,15.7,23.7,15.8L23.7,15.8L23.7,15.8z"/>
	<path class="st1" d="M22.5,14.9L22.5,14.9l0.7,0.7l0,0L22.5,14.9z"/>
	<path class="st1" d="M23.5,16.4c-0.1-0.2-0.1-0.5-0.1-0.7l0,0l0,0c0-0.1,0-0.2,0.1-0.3l-2.3-2.3c-1.1-1.1,0-2.2,0.1-2.2
		c-0.4,0.3-0.7,0.8-0.7,1.3c0,0.4,0.2,0.8,0.4,1.1l0.9,0.9h-0.3c-0.6,0-0.9,0.5-0.6,1.2l0.2,0.5c0.2,0.5,0.8,0.9,1.3,0.9h1.1
		C23.6,16.6,23.5,16.5,23.5,16.4L23.5,16.4z M23.1,15.8L23.1,15.8C23,15.8,23,15.8,23.1,15.8c-0.2,0.1-0.4,0-0.6-0.1
		c-0.6-0.4-0.1-0.7-0.2-1.1l0.3,0.3l0,0l0.7,0.7l0,0l0,0C23.3,15.6,23.3,15.7,23.1,15.8L23.1,15.8z"/>
	<path class="st1" d="M20.4,15.4c0,0.2,0,0.4,0,0.6c0,0,0.6,1.1,2,1.1h1.1c0.3,0,0.3-0.1,0.3-0.1h-1.3c-0.6,0-1.3-0.5-1.6-1
		l-0.2-0.5c-0.1-0.2-0.1-0.3-0.2-0.5c0,0-0.1-0.1-0.1,0l0,0C20.5,15.2,20.4,15.3,20.4,15.4L20.4,15.4L20.4,15.4z"/>
	<path class="st1" d="M20.4,15.4c0,0.2,0,0.4,0,0.6c0,0,0.6,1.1,2,1.1h1.1c0.3,0,0.3-0.1,0.3-0.1h-1.3c-0.6,0-1.3-0.5-1.6-1
		l-0.2-0.5c-0.1-0.2-0.1-0.3-0.2-0.5c0,0-0.1-0.1-0.1,0l0,0C20.5,15.2,20.4,15.3,20.4,15.4L20.4,15.4L20.4,15.4z"/>
	<path class="st1" d="M21.1,22h0.2l0,0l0,0c0.3,0,0.2,0.7,0.5,1.2c0.3,0.4,0.5,0.6,0.7,0.8l0,0l0,0l0,0l0,0l0,0l0,0l0,0v0.1
		c0,0.3,0.2,0.5,0.5,0.5s0.5-0.2,0.5-0.5c0-0.2-0.1-0.3-0.2-0.4l0,0l0,0c-0.2-0.1-0.3-0.5-0.3-0.9s0.2-0.8,0.4-0.9l0,0l0,0
		c0.2-0.1,0.2-0.3,0.1-0.6L23.3,21c-0.2-0.4-0.5-0.4-0.7,0v0.1V21c-0.2-0.4-0.5-0.4-0.7,0v0.1V21c-0.2-0.4-0.5-0.4-0.7,0L21,21.3
		C20.5,21.7,20.7,22,21.1,22L21.1,22z M22.7,23.7c0,0,0.3,0.3,0.5,0.4c0.1,0.1,0.1,0.2-0.1,0.2C22.8,24.4,22.7,24,22.7,23.7z
		 M22.8,21c0.2,0,0.3,0.1,0.2,0.2c-0.1,0.1-0.3,0.5-0.3,0.5C22.6,21.4,22.6,21,22.8,21z M22,21c0.2,0,0.3,0.1,0.2,0.2
		c-0.1,0.1-0.3,0.5-0.3,0.5C21.8,21.4,21.8,21.1,22,21L22,21z M21.3,21.1c0.2,0,0.3,0.1,0.2,0.2c-0.1,0.1-0.3,0.5-0.3,0.5
		C21.1,21.5,21.1,21.1,21.3,21.1L21.3,21.1z"/>
	<path class="st1" d="M20.7,27.5c0.3,0.8,0.9,1.8,1,1.5c0.1-0.1,0.2-0.4,0.4-0.8c0.1-0.2,0.1-0.4,0.2-0.6c0.2-0.7,0.5-1.6,0.8-2.7
		c-0.3,0-0.6-0.2-0.7-0.5v0.1C21.7,25.8,21.1,26.8,20.7,27.5L20.7,27.5z"/>
	<path class="st1" d="M19.3,26.5c0,0.8,0.4,2,0.6,1.8c0.1-0.1,0.3-0.3,0.5-0.7c0.1-0.1,0.1-0.2,0.2-0.2c0.4-0.7,1-1.6,1.5-2.8
		c0.1-0.1,0.1-0.2,0.2-0.3l0,0c-0.1-0.1-0.3-0.3-0.5-0.5c0,0,0,0.1-0.1,0.1C20.7,25,19.8,26,19.3,26.5z"/>
	<path class="st1" d="M18.8,26.5c0,0,0.1-0.1,0.2-0.1c0.1-0.1,0.1-0.1,0.2-0.2c0.5-0.5,1.4-1.4,2.3-2.6c0-0.1,0.1-0.1,0.1-0.2l0,0
		c-0.1-0.3-0.2-0.5-0.3-0.8c0-0.1,0-0.1,0-0.2c-1.5,1.4-2.5,1.7-2.6,2.2C18.5,25.2,18.6,26.7,18.8,26.5L18.8,26.5z"/>
	<path class="st1" d="M24,17.2L24,17.2C24,17.3,24,17.3,24,17.2C24,17.3,24,17.3,24,17.2L24,17.2L24,17.2z"/>
	<path class="st1" d="M24,15.4L24,15.4L24,15.4L24,15.4L24,15.4L24,15.4z"/>
	<path class="st1" d="M24,16.8L24,16.8L24,16.8L24,16.8L24,16.8z"/>
	<path class="st1" d="M20.7,14.2C20.7,14.3,20.7,14.3,20.7,14.2c-0.1,0.1-0.6,0.4-0.6,0.9v0.3c0,0.1,0,0.2,0,0.3l0,0
		c-1.8-4-5.5-6.1-6.9-8.9l0,0c0,0,0-0.1-0.1-0.1c-0.2-0.4-0.2-0.7-0.2-1.2c0-0.3,0-0.6,0.1-0.8c0.1-0.4,0.2-0.5,0.2-0.5
		S13,4.6,13.4,5.1l0,0l0,0c0.3,0.3,0.6,0.6,1,1c0.6,0.7,1.3,1.4,1.9,2.2c0.7,0.9,1.3,1.7,1.5,2.3c0.5,1.2,1.4,1.7,2,2
		c0-0.3,0.1-0.8,0.6-1.4c0,0-0.5,0.7-0.3,1.5c0.1,0.3,0.2,0.6,0.4,0.9l0,0l0,0l0,0l0,0C20.8,13.6,21,13.9,20.7,14.2L20.7,14.2z"/>
</g>
</svg>
