<svg width="425" height="385" viewBox="0 0 425 385" fill="none" xmlns="http://www.w3.org/2000/svg">
<g filter="url(#filter0_ddi_281_33936)">
<path d="M287.761 64.7752L287.034 63.5167H285.581H139.703H138.25L137.523 64.7752L64.589 191.109L63.8624 192.368L64.589 193.626L137.523 319.951L138.25 321.209H139.703H285.581H287.034L287.761 319.951L360.695 193.626L361.422 192.368L360.695 191.109L287.761 64.7752Z" stroke="#FEE500" stroke-opacity="0.2" stroke-width="5.03402" shape-rendering="crispEdges"/>
</g>
<path d="M285.581 66.0337H139.703L66.7688 192.367L139.703 318.692H285.581L358.515 192.367L285.581 66.0337Z" fill="url(#paint0_linear_281_33936)" fill-opacity="0.75"/>
<g filter="url(#filter1_di_281_33936)">
<path d="M271.207 175.799C266.463 175.799 262.283 177.758 259.208 180.832C247.908 173.015 232.69 167.981 215.821 167.446L224.591 127.95L252.506 134.217C252.506 141.055 258.074 146.623 264.913 146.623C271.751 146.623 277.473 140.891 277.473 134.062C277.473 127.233 271.905 121.502 264.913 121.502C260.043 121.502 255.825 124.449 253.739 128.467L222.913 121.628C221.362 121.22 219.839 122.327 219.431 123.878L209.808 167.428C193.067 168.126 178.003 173.16 166.666 180.977C163.592 177.785 159.257 175.817 154.513 175.817C136.919 175.817 131.16 199.424 147.267 207.496C146.696 209.999 146.442 212.656 146.442 215.313C146.442 241.831 176.316 263.325 213.001 263.325C249.685 263.325 279.714 241.831 279.714 215.313C279.714 212.656 279.432 209.872 278.734 207.369C294.524 199.27 288.701 175.817 271.198 175.817L271.207 175.799ZM172.806 209.155C172.806 202.19 178.374 196.594 185.367 196.594C192.359 196.594 197.773 202.163 197.773 209.155C197.773 216.148 192.205 221.562 185.367 221.562C178.402 221.589 172.806 215.993 172.806 209.155ZM240.634 238.748C229.117 250.266 196.613 250.266 185.095 238.748C183.825 237.642 183.825 235.674 185.095 234.413C186.201 233.306 188.169 233.306 189.276 234.413C198.073 243.437 227.257 243.591 236.435 234.413C237.542 233.306 239.51 233.306 240.616 234.413C241.913 235.683 241.913 237.642 240.644 238.748H240.634ZM240.38 221.598C233.542 221.598 227.974 216.03 227.974 209.191C227.974 202.353 233.542 196.631 240.38 196.631C247.219 196.631 252.941 202.199 252.941 209.191C252.914 215.993 247.337 221.598 240.38 221.598Z" fill="#C4F26E"/>
</g>
<defs>
<filter id="filter0_ddi_281_33936" x="0.547859" y="0.591499" width="424.188" height="383.543" filterUnits="userSpaceOnUse" color-interpolation-filters="sRGB">
<feFlood flood-opacity="0" result="BackgroundImageFix"/>
<feColorMatrix in="SourceAlpha" type="matrix" values="0 0 0 0 0 0 0 0 0 0 0 0 0 0 0 0 0 0 127 0" result="hardAlpha"/>
<feOffset/>
<feGaussianBlur stdDeviation="30.2041"/>
<feComposite in2="hardAlpha" operator="out"/>
<feColorMatrix type="matrix" values="0 0 0 0 0.996078 0 0 0 0 0.898039 0 0 0 0 0 0 0 0 0.1 0"/>
<feBlend mode="normal" in2="BackgroundImageFix" result="effect1_dropShadow_281_33936"/>
<feColorMatrix in="SourceAlpha" type="matrix" values="0 0 0 0 0 0 0 0 0 0 0 0 0 0 0 0 0 0 127 0" result="hardAlpha"/>
<feOffset dy="20.1361"/>
<feGaussianBlur stdDeviation="10.068"/>
<feComposite in2="hardAlpha" operator="out"/>
<feColorMatrix type="matrix" values="0 0 0 0 0 0 0 0 0 0 0 0 0 0 0 0 0 0 0.25 0"/>
<feBlend mode="normal" in2="effect1_dropShadow_281_33936" result="effect2_dropShadow_281_33936"/>
<feBlend mode="normal" in="SourceGraphic" in2="effect2_dropShadow_281_33936" result="shape"/>
<feColorMatrix in="SourceAlpha" type="matrix" values="0 0 0 0 0 0 0 0 0 0 0 0 0 0 0 0 0 0 127 0" result="hardAlpha"/>
<feOffset/>
<feGaussianBlur stdDeviation="25.1701"/>
<feComposite in2="hardAlpha" operator="arithmetic" k2="-1" k3="1"/>
<feColorMatrix type="matrix" values="0 0 0 0 0.996078 0 0 0 0 0.898039 0 0 0 0 0 0 0 0 0.05 0"/>
<feBlend mode="normal" in2="shape" result="effect3_innerShadow_281_33936"/>
</filter>
<filter id="filter1_di_281_33936" x="87.4504" y="71.1614" width="250.833" height="242.504" filterUnits="userSpaceOnUse" color-interpolation-filters="sRGB">
<feFlood flood-opacity="0" result="BackgroundImageFix"/>
<feColorMatrix in="SourceAlpha" type="matrix" values="0 0 0 0 0 0 0 0 0 0 0 0 0 0 0 0 0 0 127 0" result="hardAlpha"/>
<feOffset/>
<feGaussianBlur stdDeviation="25.1701"/>
<feComposite in2="hardAlpha" operator="out"/>
<feColorMatrix type="matrix" values="0 0 0 0 0.996078 0 0 0 0 0.898039 0 0 0 0 0 0 0 0 0.44 0"/>
<feBlend mode="normal" in2="BackgroundImageFix" result="effect1_dropShadow_281_33936"/>
<feBlend mode="normal" in="SourceGraphic" in2="effect1_dropShadow_281_33936" result="shape"/>
<feColorMatrix in="SourceAlpha" type="matrix" values="0 0 0 0 0 0 0 0 0 0 0 0 0 0 0 0 0 0 127 0" result="hardAlpha"/>
<feOffset/>
<feGaussianBlur stdDeviation="50.3402"/>
<feComposite in2="hardAlpha" operator="arithmetic" k2="-1" k3="1"/>
<feColorMatrix type="matrix" values="0 0 0 0 0.996078 0 0 0 0 0.898039 0 0 0 0 0 0 0 0 1 0"/>
<feBlend mode="normal" in2="shape" result="effect2_innerShadow_281_33936"/>
</filter>
<linearGradient id="paint0_linear_281_33936" x1="66.7688" y1="217.63" x2="357.963" y2="210.583" gradientUnits="userSpaceOnUse">
<stop stop-color="#1E1F0A"/>
<stop offset="1" stop-color="#052A17"/>
</linearGradient>
</defs>
</svg>
