<svg width="20" height="21" viewBox="0 0 20 21" fill="none" xmlns="http://www.w3.org/2000/svg">
<path d="M19 1.00011V20.6365H1V1.00011H19Z" fill="#111111" fill-opacity="0.9" stroke="white" stroke-opacity="0.1" stroke-width="0.5"/>
<path d="M9.99991 5.90918C12.7114 5.90918 14.909 8.10677 14.909 10.8183C14.909 13.5298 12.7114 15.7274 9.99991 15.7274C7.28841 15.7274 5.09082 13.5298 5.09082 10.8183C5.09082 8.10677 7.28841 5.90918 9.99991 5.90918ZM9.99991 15.1137C10.3202 15.1137 10.7746 14.8376 11.1869 14.0149C11.3768 13.6352 11.5359 13.1597 11.6318 12.6592H8.35076C8.4639 13.1597 8.62306 13.6352 8.81291 14.0149C9.2252 14.8376 9.67967 15.1137 9.99991 15.1137ZM8.24146 12.0455H11.7584C11.8121 11.6582 11.8408 11.2459 11.8408 10.8183C11.8408 10.3906 11.8121 9.97836 11.7584 9.591H8.24146C8.18777 9.97836 8.159 10.3906 8.159 10.8183C8.159 11.2459 8.18777 11.6582 8.24146 12.0455ZM11.6318 8.97736C11.5359 8.45961 11.3768 8.0013 11.1869 7.62142C10.7746 6.79838 10.3202 6.52282 9.99991 6.52282C9.67967 6.52282 9.2252 6.79838 8.81291 7.62142C8.62306 8.0013 8.4639 8.45961 8.35076 8.97736H11.6318ZM12.3605 9.591C12.4276 9.98411 12.4545 10.3945 12.4545 10.8183C12.4545 11.2421 12.4276 11.6524 12.3605 12.0455H14.117C14.234 11.6563 14.2954 11.244 14.2954 10.8183C14.2954 10.3926 14.234 9.98027 14.117 9.591H12.3605ZM11.371 6.74641C11.7737 7.28967 12.092 8.06458 12.2761 8.97736H13.8812C13.3864 7.93226 12.4794 7.11958 11.371 6.74641ZM8.62882 6.74641C7.52044 7.11958 6.61417 7.93226 6.11789 8.97736H7.7237C7.90779 8.06458 8.22612 7.28967 8.62882 6.74641ZM5.70446 10.8183C5.70446 11.244 5.76659 11.6563 5.88241 12.0455H7.62207C7.57221 11.6524 7.54537 11.2421 7.54537 10.8183C7.54537 10.3945 7.57221 9.98411 7.62207 9.591H5.88241C5.76659 9.98027 5.70446 10.3926 5.70446 10.8183ZM13.8812 12.6592H12.2761C12.092 13.572 11.7737 14.3467 11.371 14.8894C12.4794 14.5173 13.3864 13.7043 13.8812 12.6592ZM7.7237 12.6592H6.11789C6.61417 13.7043 7.52044 14.5173 8.62882 14.8894C8.22612 14.3467 7.90779 13.572 7.7237 12.6592Z" fill="white"/>
</svg>
