<svg width="20" height="21" viewBox="0 0 20 21" fill="none" xmlns="http://www.w3.org/2000/svg">
<path d="M19.0001 0.999989V20.6364H1.00006V0.999989H19.0001Z" fill="#111111" fill-opacity="0.9" stroke="white" stroke-opacity="0.1" stroke-width="0.5"/>
<path d="M13.2976 16.1177L13.8914 16.7116H11.4117L9.2033 14.5032H8.66496L7.72081 15.4474V16.2265H7.12712V15.5017L8.63581 13.9928V13.9356L8.60458 13.9043L7.1266 15.3823V14.8428L8.3348 13.6346L7.14152 12.4413L7.14377 12.439H7.13493V12.0131H7.13475V11.5113L6.33044 10.7069V9.99607H5.33806L5.05388 9.71189H6.33009V9.63H4.68469L5.27838 9.03631H6.33027V8.73634H6.99561C7.47792 8.73634 7.86863 9.12722 7.86863 9.60935H8.67883L15 3.28833L14.9884 3.97501L12.9558 6.00765V6.18843L14.9853 4.15891L14.9737 4.8456L12.9559 6.86331V7.04409L14.9707 5.02933L14.9589 5.71601L12.9559 7.71898V7.89976L14.9558 5.89991L14.9442 6.58659L12.9559 8.57482V8.7556L14.941 6.7705L14.9294 7.45718L12.9559 9.43066V9.61143L14.9263 7.64108L14.9145 8.32776L12.9559 10.2863V10.4671L14.9114 8.51167L14.8998 9.19835L12.9559 11.1422V11.3229L14.8966 9.38225L14.885 10.0689L11.5522 13.4017H11.0501V13.9092H11.0897L11.6834 14.5029H11.0984L11.2406 14.6451H11.8255L12.4193 15.239H11.2949L10.5588 14.5029H10.4207L11.2991 15.3813H12.5618L13.1556 15.9751H11.3536L9.88131 14.5029H9.74321L11.3577 16.1174H13.2981L13.2976 16.1177Z" fill="white"/>
</svg>
